<svg width="40" height="40" viewBox="0 0 40 40" fill="none" xmlns="http://www.w3.org/2000/svg">
<path d="M37.5 32.5H36.25V16.25C36.25 15.587 35.9866 14.9511 35.5178 14.4822C35.0489 14.0134 34.413 13.75 33.75 13.75H23.75V6.25C23.75 5.58696 23.4866 4.95107 23.0178 4.48223C22.5489 4.01339 21.913 3.75 21.25 3.75H6.25C5.58696 3.75 4.95107 4.01339 4.48223 4.48223C4.01339 4.95107 3.75 5.58696 3.75 6.25V32.5H2.5C2.16848 32.5 1.85054 32.6317 1.61612 32.8661C1.3817 33.1005 1.25 33.4185 1.25 33.75C1.25 34.0815 1.3817 34.3995 1.61612 34.6339C1.85054 34.8683 2.16848 35 2.5 35H37.5C37.8315 35 38.1495 34.8683 38.3839 34.6339C38.6183 34.3995 38.75 34.0815 38.75 33.75C38.75 33.4185 38.6183 33.1005 38.3839 32.8661C38.1495 32.6317 37.8315 32.5 37.5 32.5ZM18.75 21.25C18.75 21.5815 18.6183 21.8995 18.3839 22.1339C18.1495 22.3683 17.8315 22.5 17.5 22.5H12.5C12.1685 22.5 11.8505 22.3683 11.6161 22.1339C11.3817 21.8995 11.25 21.5815 11.25 21.25C11.25 20.9185 11.3817 20.6005 11.6161 20.3661C11.8505 20.1317 12.1685 20 12.5 20H17.5C17.8315 20 18.1495 20.1317 18.3839 20.3661C18.6183 20.6005 18.75 20.9185 18.75 21.25ZM10 10H15C15.3315 10 15.6495 10.1317 15.8839 10.3661C16.1183 10.6005 16.25 10.9185 16.25 11.25C16.25 11.5815 16.1183 11.8995 15.8839 12.1339C15.6495 12.3683 15.3315 12.5 15 12.5H10C9.66848 12.5 9.35054 12.3683 9.11612 12.1339C8.8817 11.8995 8.75 11.5815 8.75 11.25C8.75 10.9185 8.8817 10.6005 9.11612 10.3661C9.35054 10.1317 9.66848 10 10 10ZM10 26.25H15C15.3315 26.25 15.6495 26.3817 15.8839 26.6161C16.1183 26.8505 16.25 27.1685 16.25 27.5C16.25 27.8315 16.1183 28.1495 15.8839 28.3839C15.6495 28.6183 15.3315 28.75 15 28.75H10C9.66848 28.75 9.35054 28.6183 9.11612 28.3839C8.8817 28.1495 8.75 27.8315 8.75 27.5C8.75 27.1685 8.8817 26.8505 9.11612 26.6161C9.35054 26.3817 9.66848 26.25 10 26.25ZM23.75 16.25H33.75V32.5H23.75V16.25Z" fill="white"/>
<path d="M30 26.25H27.5C27.1685 26.25 26.8505 26.3817 26.6161 26.6161C26.3817 26.8505 26.25 27.1685 26.25 27.5C26.25 27.8315 26.3817 28.1495 26.6161 28.3839C26.8505 28.6183 27.1685 28.75 27.5 28.75H30C30.3315 28.75 30.6495 28.6183 30.8839 28.3839C31.1183 28.1495 31.25 27.8315 31.25 27.5C31.25 27.1685 31.1183 26.8505 30.8839 26.6161C30.6495 26.3817 30.3315 26.25 30 26.25Z" fill="white"/>
<path d="M27.5 22.5H30C30.3315 22.5 30.6495 22.3683 30.8839 22.1339C31.1183 21.8995 31.25 21.5815 31.25 21.25C31.25 20.9185 31.1183 20.6005 30.8839 20.3661C30.6495 20.1317 30.3315 20 30 20H27.5C27.1685 20 26.8505 20.1317 26.6161 20.3661C26.3817 20.6005 26.25 20.9185 26.25 21.25C26.25 21.5815 26.3817 21.8995 26.6161 22.1339C26.8505 22.3683 27.1685 22.5 27.5 22.5Z" fill="white"/>
</svg>
