<svg width="120" height="107" viewBox="0 0 120 107" fill="none" xmlns="http://www.w3.org/2000/svg">
<path fill-rule="evenodd" clip-rule="evenodd" d="M83.605 0.0800781C83.9145 0.0800781 84.2875 0.091648 84.4293 0.10611C84.571 0.123465 84.8573 0.175529 85.0655 0.224701C85.2738 0.27098 85.5717 0.357754 85.7307 0.415603C85.8898 0.47056 86.1241 0.568904 86.2513 0.629645C86.3786 0.690387 86.5926 0.806085 86.7286 0.889967C86.8645 0.970956 87.093 1.12715 87.2347 1.23417C87.3764 1.34408 87.6193 1.55234 87.7697 1.70275C87.9201 1.85026 88.0966 2.0296 88.1631 2.10191C88.2267 2.17422 88.3453 2.31595 88.4263 2.42008C88.5044 2.52421 88.6287 2.70065 88.701 2.81056C88.7733 2.92047 88.8832 3.11716 88.9498 3.24443C89.0163 3.3717 89.1059 3.55392 89.1464 3.64937C89.1898 3.74482 89.2679 3.96465 89.3229 4.14109C89.3749 4.31753 89.4559 4.64727 89.4964 4.87867C89.5687 5.25758 89.5745 5.3646 89.5745 5.96334C89.5745 6.56208 89.5687 6.6691 89.4964 7.04801C89.4559 7.27941 89.3807 7.59758 89.3315 7.75667C89.2853 7.91575 89.2101 8.12401 89.1696 8.21946C89.1262 8.31491 89.0452 8.49135 88.9874 8.60994C88.9295 8.72853 88.8456 8.8934 88.7965 8.9715C88.7502 9.05249 88.62 9.24917 88.5073 9.40537C88.3829 9.5847 88.1457 9.8537 87.8854 10.1169C87.6454 10.357 87.3359 10.6318 87.1624 10.759C86.9946 10.8805 86.85 10.9789 86.8356 10.9818C86.824 10.9818 86.7662 11.0165 86.7083 11.057C86.6476 11.0975 86.4567 11.1987 86.2803 11.2855C86.1038 11.3693 85.8002 11.4908 85.6006 11.5545C85.401 11.6181 85.1147 11.6962 84.9643 11.728C84.8139 11.7627 84.571 11.8032 84.4293 11.8235C84.2644 11.8437 83.9202 11.8524 83.4893 11.8437C82.8675 11.8321 82.772 11.8235 82.3758 11.7396C82.1386 11.6904 81.806 11.6007 81.6383 11.5458C81.4706 11.4879 81.1669 11.3578 80.9586 11.2565C80.7504 11.1553 80.4727 10.9991 80.3368 10.9066C80.2009 10.814 80.0331 10.6925 79.9608 10.6376C79.8885 10.5797 79.7642 10.4756 79.6861 10.4033C79.6109 10.331 79.4865 10.2153 79.4113 10.1429C79.339 10.0706 79.2002 9.92312 79.1047 9.81031C79.0064 9.69751 78.8589 9.5095 78.7721 9.39091C78.6854 9.27231 78.561 9.0843 78.4974 8.9715C78.4337 8.85869 78.3412 8.69093 78.292 8.59548C78.2458 8.50003 78.1648 8.3178 78.1156 8.19053C78.0664 8.06327 77.9941 7.84922 77.9536 7.71328C77.9103 7.57733 77.8437 7.27073 77.8004 7.03355C77.7367 6.65753 77.7252 6.5158 77.7252 5.9778C77.7223 5.42824 77.7309 5.30386 77.8004 4.90759C77.8437 4.66173 77.9305 4.30307 77.9912 4.11217C78.0549 3.92126 78.1416 3.68119 78.185 3.57706C78.2284 3.47293 78.3354 3.25889 78.4222 3.09981C78.5118 2.94072 78.6478 2.718 78.7259 2.60809C78.8068 2.49817 78.9572 2.30149 79.0642 2.17422C79.1713 2.04695 79.3824 1.82712 79.5299 1.6825C79.6803 1.53788 79.9348 1.32384 80.0968 1.20524C80.2587 1.08665 80.4467 0.953601 80.5161 0.910214C80.5855 0.866827 80.7822 0.762699 80.9586 0.673032C81.1351 0.586259 81.4069 0.467668 81.566 0.412711C81.7251 0.354862 82.0316 0.268088 82.2457 0.218916C82.4597 0.172637 82.7287 0.120573 82.8386 0.109003C82.9485 0.0945404 83.2955 0.0829706 83.605 0.0800781ZM82.853 3.02749C82.7171 3.05931 82.5233 3.12005 82.4192 3.16344C82.3151 3.20683 82.1762 3.27914 82.1068 3.32253C82.0403 3.36591 81.9796 3.40351 81.9709 3.40351C81.9622 3.40351 81.8812 3.46136 81.7887 3.53078C81.699 3.6002 81.5342 3.75061 81.4243 3.8692C81.3144 3.98779 81.1813 4.15266 81.1293 4.23365C81.0743 4.31753 80.9904 4.46794 80.9413 4.56628C80.8892 4.66752 80.8082 4.87867 80.762 5.03775C80.681 5.30386 80.6723 5.37039 80.6607 5.8621C80.655 6.20052 80.6607 6.46084 80.6839 6.57076C80.7012 6.66621 80.7475 6.84265 80.7851 6.96124C80.8227 7.07983 80.8979 7.27652 80.9557 7.39511C81.0136 7.5137 81.1206 7.69014 81.19 7.78559C81.2623 7.88104 81.3954 8.03723 81.4879 8.12979C81.5776 8.22524 81.7164 8.34962 81.7974 8.40747C81.8755 8.46532 82.0114 8.55209 82.0924 8.60416C82.1762 8.65622 82.3469 8.73721 82.4684 8.78638C82.5927 8.83555 82.8241 8.90208 82.9832 8.9339C83.1885 8.97728 83.3852 8.99464 83.6628 8.99175C83.9463 8.99175 84.1285 8.97728 84.328 8.9339C84.4784 8.90208 84.7011 8.83555 84.8197 8.78927C84.9383 8.74299 85.1205 8.65333 85.2246 8.59259C85.3287 8.53184 85.5167 8.3959 85.644 8.29177C85.7741 8.18475 85.9563 7.99385 86.0605 7.85501C86.1617 7.72196 86.2947 7.50791 86.3555 7.38065C86.4162 7.25338 86.5001 7.03066 86.5406 6.88893C86.5839 6.7472 86.6302 6.49266 86.6447 6.3249C86.6591 6.15714 86.662 5.87946 86.6534 5.70302C86.6389 5.47162 86.6071 5.29229 86.5406 5.05222C86.4885 4.86999 86.3988 4.6357 86.3439 4.53157C86.2889 4.42744 86.2022 4.27704 86.1472 4.19894C86.0923 4.11795 85.965 3.96465 85.8609 3.85474C85.7568 3.74482 85.6006 3.60309 85.5138 3.53657C85.4271 3.47004 85.2882 3.37748 85.2102 3.32831C85.1292 3.28203 84.9817 3.20683 84.8775 3.16055C84.7734 3.11716 84.5797 3.05642 84.4437 3.0246C84.3078 2.99278 84.0938 2.95229 83.9665 2.93783C83.8393 2.92337 83.6773 2.91469 83.605 2.91469C83.5327 2.91758 83.391 2.92915 83.2868 2.94361C83.1827 2.95518 82.989 2.99278 82.853 3.02749ZM80.7273 90.1513C81.083 90.1484 81.3953 90.1657 81.7106 90.2062C81.9651 90.2351 82.2717 90.2872 82.3903 90.3219C82.5088 90.3537 82.6592 90.3913 82.7229 90.4087C82.7865 90.4232 82.9687 90.481 83.1278 90.5389C83.2868 90.5967 83.5674 90.7182 83.7496 90.8108C83.9318 90.9004 84.2008 91.0537 84.3425 91.1463C84.4842 91.2417 84.6867 91.3892 84.7908 91.476C84.8949 91.5599 85.0742 91.7248 85.1899 91.8376C85.3056 91.9504 85.4965 92.1615 85.6122 92.3033C85.7279 92.445 85.8754 92.6417 85.939 92.7371C85.9997 92.8326 86.0865 92.9685 86.127 93.0408C86.1675 93.1131 86.2485 93.2578 86.3063 93.3648C86.3641 93.4747 86.4104 93.5846 86.4104 93.6107C86.4133 93.6483 86.2918 93.735 86.0286 93.8912C85.8175 94.0156 85.5977 94.1487 85.5428 94.1862C85.4878 94.2239 85.4329 94.2557 85.4184 94.2557C85.4068 94.2557 85.2854 94.3251 85.1436 94.409C85.0048 94.4929 84.7445 94.649 84.5652 94.7561C84.3888 94.8631 84.2326 94.9499 84.2181 94.9499C84.2066 94.9499 84.1776 94.9701 84.1545 94.9904C84.1314 95.0106 84.0533 95.0627 83.981 95.1003C83.9087 95.1408 83.7004 95.2594 83.5182 95.3664C83.336 95.4734 83.174 95.5544 83.1567 95.5486C83.1393 95.5399 83.0815 95.4445 83.0266 95.3374C82.9716 95.2275 82.8762 95.0598 82.8125 94.9643C82.7518 94.8689 82.5869 94.6809 82.451 94.5449C82.3035 94.3974 82.1271 94.2557 82.0143 94.192C81.9102 94.1342 81.7077 94.0503 81.566 94.0011C81.3693 93.9346 81.2276 93.9086 80.9876 93.8941C80.8111 93.8825 80.5653 93.8883 80.438 93.9028C80.3108 93.9201 80.117 93.9693 80.0042 94.0156C79.8741 94.0677 79.7555 94.1429 79.6687 94.2267C79.5964 94.299 79.5068 94.4147 79.4692 94.4871C79.4142 94.5941 79.4026 94.6635 79.4026 94.8631C79.4026 95.0569 79.4142 95.135 79.4634 95.2304C79.4981 95.2999 79.5819 95.4098 79.6485 95.4792C79.7179 95.5486 79.8451 95.6498 79.9319 95.7048C80.0187 95.7626 80.1893 95.8552 80.3079 95.9102C80.4265 95.968 80.6174 96.049 80.7273 96.0924C80.8372 96.1329 81.0801 96.2168 81.2623 96.2775C81.4445 96.3382 81.7627 96.4366 81.9709 96.4973C82.1791 96.5581 82.5956 96.6882 82.8964 96.7895C83.1972 96.8878 83.5298 97.0035 83.6339 97.0469C83.738 97.0903 84.0041 97.2147 84.2268 97.3275C84.4495 97.4374 84.652 97.5473 84.6751 97.5704C84.6982 97.5907 84.7271 97.6109 84.7387 97.6109C84.7532 97.6109 84.8949 97.6977 85.0569 97.8047C85.2217 97.9117 85.4386 98.065 85.5428 98.1489C85.6469 98.2299 85.7886 98.3601 85.8609 98.4382C85.9332 98.5163 86.0547 98.6609 86.1299 98.7592C86.2051 98.8605 86.2658 98.9472 86.2658 98.9559C86.2658 98.9646 86.2918 99.0051 86.3208 99.0514C86.3497 99.0948 86.4278 99.2481 86.4914 99.3898C86.555 99.5315 86.6476 99.8005 86.6967 99.9827C86.7517 100.191 86.798 100.454 86.8182 100.691C86.8385 100.908 86.8442 101.27 86.8327 101.545C86.824 101.808 86.798 102.126 86.7719 102.253C86.7488 102.381 86.7083 102.557 86.6823 102.644C86.6562 102.731 86.6042 102.895 86.5666 103.005C86.529 103.115 86.4364 103.326 86.3641 103.468C86.2918 103.61 86.1906 103.786 86.1414 103.859C86.0894 103.931 85.9795 104.073 85.8927 104.177C85.8031 104.281 85.6729 104.423 85.6006 104.495C85.5283 104.567 85.3981 104.686 85.3114 104.761C85.2246 104.833 85.0829 104.94 84.999 104.998C84.918 105.056 84.7937 105.134 84.7243 105.175C84.6577 105.215 84.5045 105.299 84.3859 105.36C84.2673 105.421 84.0706 105.51 83.952 105.559C83.8335 105.609 83.605 105.69 83.4459 105.742C83.2868 105.791 82.9658 105.869 82.7287 105.915C82.4944 105.961 82.182 106.011 82.0345 106.028C81.8899 106.042 81.4416 106.057 81.0454 106.057C80.6463 106.057 80.1806 106.042 80.0042 106.025C79.8278 106.011 79.4894 105.959 79.2522 105.912C79.0122 105.866 78.6883 105.788 78.5292 105.739C78.3701 105.69 78.1359 105.611 78.0086 105.562C77.8813 105.513 77.6268 105.395 77.4446 105.299C77.2624 105.204 77.0686 105.094 77.0166 105.056C76.9674 105.019 76.9182 104.987 76.9096 104.987C76.9009 104.987 76.7678 104.891 76.6117 104.773C76.4584 104.654 76.2125 104.437 76.065 104.287C75.9204 104.139 75.7643 103.971 75.718 103.916C75.6717 103.862 75.5792 103.74 75.5126 103.65C75.4461 103.558 75.3912 103.477 75.3912 103.468C75.3912 103.459 75.3594 103.41 75.3218 103.361C75.2813 103.309 75.1685 103.104 75.0701 102.904C74.9718 102.705 74.8735 102.485 74.8532 102.412C74.8301 102.34 74.8127 102.274 74.8127 102.262C74.8127 102.248 74.9718 102.146 75.1656 102.033C75.3622 101.924 75.5416 101.819 75.5647 101.805C75.5878 101.791 75.6717 101.741 75.7527 101.695C75.8308 101.649 76.0795 101.507 76.3022 101.374C76.5249 101.244 76.71 101.137 76.7129 101.14C76.7187 101.14 76.7707 101.108 76.8286 101.07C76.8893 101.033 77.0629 100.931 77.2132 100.842C77.3636 100.755 77.5401 100.654 77.6037 100.616C77.6673 100.581 77.7888 100.515 77.8698 100.469C77.9536 100.425 78.0288 100.376 78.0375 100.359C78.0462 100.341 78.078 100.33 78.1098 100.33C78.1532 100.33 78.1937 100.385 78.2776 100.555C78.3383 100.677 78.4366 100.856 78.4974 100.952C78.5581 101.047 78.6767 101.203 78.7577 101.299C78.8387 101.397 78.9833 101.542 79.0787 101.626C79.1741 101.707 79.3303 101.822 79.4258 101.88C79.5212 101.938 79.6976 102.028 79.8162 102.08C79.9348 102.132 80.1691 102.207 80.3368 102.245C80.6 102.302 80.7157 102.311 81.2045 102.311C81.6904 102.308 81.806 102.3 82.0287 102.245C82.1705 102.207 82.3527 102.141 82.4337 102.097C82.5117 102.054 82.6216 101.973 82.6766 101.918C82.7287 101.863 82.801 101.767 82.8328 101.704C82.8675 101.634 82.8964 101.51 82.9051 101.386C82.9137 101.221 82.9051 101.154 82.853 101.038C82.8183 100.96 82.7489 100.842 82.6997 100.781C82.6477 100.717 82.5291 100.616 82.4337 100.55C82.3382 100.486 82.1762 100.393 82.0721 100.341C81.968 100.292 81.7655 100.211 81.6238 100.162C81.4821 100.113 81.2276 100.035 81.0599 99.9856C80.8921 99.9365 80.5942 99.8497 80.3947 99.7918C80.1951 99.734 79.877 99.6385 79.6861 99.5778C79.4952 99.5142 79.2349 99.4274 79.1076 99.3811C78.9804 99.3348 78.8155 99.2683 78.7374 99.2365C78.6622 99.2018 78.5957 99.1728 78.587 99.1728C78.5784 99.1728 78.3961 99.089 78.1821 98.9848C77.9681 98.8807 77.6586 98.7101 77.4938 98.6059C77.3318 98.4989 77.1004 98.3311 76.9819 98.2328C76.8633 98.1345 76.6811 97.9638 76.577 97.8539C76.4728 97.744 76.3311 97.5762 76.2588 97.4808C76.1865 97.3853 76.0795 97.2291 76.0246 97.1337C75.9696 97.0382 75.8886 96.8965 75.8481 96.8155C75.8076 96.7374 75.7267 96.5291 75.6717 96.3527C75.6139 96.1763 75.5444 95.9044 75.5155 95.7453C75.4779 95.5312 75.4635 95.3085 75.4635 94.892C75.4635 94.4263 75.475 94.2643 75.5329 93.952C75.5705 93.7437 75.6486 93.44 75.7093 93.2722C75.77 93.1045 75.8655 92.876 75.9233 92.766C75.9812 92.6561 76.0564 92.5173 76.0882 92.4623C76.1229 92.4074 76.2039 92.283 76.2733 92.1876C76.3427 92.0921 76.4671 91.9359 76.5538 91.8434C76.6377 91.7479 76.817 91.5744 76.9529 91.4558C77.0889 91.3401 77.3087 91.1694 77.4446 91.0769C77.5806 90.9872 77.8409 90.8397 78.0231 90.7471C78.2053 90.6574 78.4598 90.5446 78.587 90.4984C78.7143 90.4521 78.9428 90.3798 79.0932 90.3393C79.2436 90.2988 79.5559 90.238 79.7873 90.2091C80.0505 90.1744 80.4004 90.1542 80.7273 90.1513ZM2.88391 90.4694C3.9251 90.4694 4.79276 90.4781 4.81301 90.4897C4.84193 90.5042 4.8506 91.6553 4.85639 95.644C4.86796 100.521 4.87085 100.787 4.92002 100.981C4.94894 101.091 5.00678 101.25 5.04438 101.328C5.08487 101.409 5.16585 101.539 5.22659 101.617C5.28733 101.698 5.41169 101.817 5.50713 101.88C5.59968 101.947 5.75875 102.036 5.86287 102.08C5.96699 102.123 6.1492 102.175 6.26778 102.198C6.38636 102.219 6.62063 102.245 6.78837 102.256C7.0024 102.268 7.19906 102.259 7.4449 102.227C7.67628 102.198 7.87873 102.152 8.02334 102.094C8.1477 102.048 8.31256 101.964 8.39354 101.912C8.47163 101.857 8.59888 101.744 8.67408 101.657C8.74928 101.571 8.8505 101.409 8.90256 101.299C8.95462 101.183 9.00958 100.989 9.03271 100.85C9.06453 100.648 9.0732 99.708 9.0732 95.5804C9.0732 91.0479 9.07899 90.5504 9.11948 90.5099C9.15708 90.4723 9.41448 90.4665 11.0572 90.4665C12.7 90.4665 12.9545 90.4723 12.9921 90.5099C13.0297 90.5475 13.0355 91.181 13.021 101.27L12.9401 101.704C12.8967 101.944 12.8128 102.279 12.7579 102.456C12.7 102.632 12.5785 102.924 12.4889 103.107C12.3992 103.289 12.2806 103.503 12.2257 103.584C12.1707 103.662 12.0522 103.818 11.9654 103.931C11.8786 104.041 11.7022 104.238 11.575 104.362C11.4477 104.489 11.2597 104.66 11.1556 104.741C11.0515 104.825 10.8837 104.949 10.7796 105.021C10.6755 105.091 10.5251 105.186 10.447 105.233C10.366 105.279 10.2301 105.351 10.1433 105.395C10.0566 105.438 9.89459 105.513 9.78179 105.559C9.669 105.609 9.43762 105.692 9.2612 105.747C9.08477 105.802 8.76952 105.88 8.55839 105.924C8.35016 105.964 8.05515 106.011 7.90765 106.028C7.76304 106.042 7.33789 106.057 6.96769 106.057C6.60038 106.057 6.16944 106.042 6.01327 106.025C5.85998 106.011 5.54473 105.956 5.31335 105.909C5.08198 105.863 4.78987 105.791 4.66261 105.75C4.53536 105.707 4.32133 105.629 4.1854 105.574C4.04947 105.516 3.83544 105.421 3.70819 105.357C3.58093 105.293 3.45657 105.224 3.43343 105.204C3.41029 105.18 3.37559 105.16 3.36113 105.16C3.34377 105.16 3.25411 105.105 3.15867 105.039C3.06323 104.972 2.9273 104.871 2.85499 104.819C2.78269 104.764 2.62362 104.628 2.49636 104.512C2.372 104.4 2.184 104.203 2.07699 104.076C1.96998 103.948 1.83116 103.766 1.76753 103.671C1.70679 103.575 1.63738 103.471 1.61713 103.439C1.59978 103.407 1.5188 103.251 1.43782 103.092C1.35973 102.933 1.25561 102.693 1.20933 102.557C1.16017 102.421 1.08786 102.161 1.05026 101.979C1.00977 101.796 0.963498 101.522 0.946145 101.371C0.928792 101.2 0.917223 99.1005 0.911439 95.7973C0.905655 91.1926 0.911439 90.4984 0.946145 90.4868C0.969283 90.4781 1.84272 90.4694 2.88391 90.4694ZM107.416 90.4694C108.573 90.4665 109.539 90.4752 109.568 90.4868C109.594 90.5013 109.698 90.6864 109.8 90.9004C109.904 91.1145 110.037 91.395 110.097 91.5223C110.158 91.6496 110.3 91.9417 110.41 92.1731C110.523 92.4045 110.693 92.7603 110.792 92.9685C110.89 93.1768 111.02 93.4487 111.081 93.5759C111.139 93.7032 111.277 93.9896 111.384 94.2123C111.492 94.435 111.656 94.7763 111.749 94.9701C111.844 95.1668 111.998 95.4879 112.093 95.6874C112.189 95.887 112.272 96.049 112.281 96.049C112.29 96.049 112.353 95.9275 112.423 95.78C112.492 95.6354 112.651 95.3056 112.773 95.0511C112.897 94.7966 113.074 94.4263 113.169 94.2267C113.264 94.0272 113.444 93.6569 113.568 93.4024C113.692 93.1479 113.872 92.7776 113.967 92.578C114.063 92.3785 114.225 92.04 114.329 91.826C114.433 91.612 114.618 91.2273 114.739 90.9727C114.861 90.7182 114.977 90.5013 114.994 90.4897C115.014 90.4781 115.989 90.4665 117.16 90.4665C118.554 90.4665 119.3 90.4752 119.309 90.4955C119.318 90.5128 119.335 90.5186 119.352 90.5099C119.367 90.5013 119.381 90.5042 119.381 90.5157C119.381 90.5302 119.352 90.5851 119.318 90.6401C119.286 90.695 119.222 90.805 119.179 90.8859C119.136 90.964 119.069 91.0884 119.029 91.1607C118.988 91.233 118.916 91.3661 118.864 91.4558C118.815 91.5483 118.734 91.6958 118.687 91.7826C118.638 91.8694 118.563 92.0111 118.517 92.0921C118.47 92.176 118.06 92.928 117.603 93.7639C117.146 94.5999 116.735 95.3519 116.689 95.4358C116.642 95.5168 116.564 95.6585 116.518 95.7453C116.469 95.8321 116.391 95.9796 116.342 96.0721C116.29 96.1618 116.217 96.2948 116.177 96.3672C116.139 96.4395 116.064 96.5754 116.012 96.6709C115.96 96.7663 115.876 96.9225 115.824 97.018C115.772 97.1134 115.7 97.2436 115.665 97.3072C115.63 97.3708 115.564 97.4952 115.515 97.582C115.465 97.6688 115.165 98.2183 114.262 99.867V102.759C114.262 104.35 114.256 105.672 114.248 105.695C114.236 105.733 113.99 105.739 110.329 105.739V99.9538L110.259 99.8179C110.222 99.7398 109.774 98.9096 109.259 97.9725C108.747 97.0353 108.272 96.1618 108.203 96.0345C108.134 95.9073 107.44 94.6317 106.659 93.1999C105.878 91.7682 105.236 90.5736 105.233 90.5475C105.23 90.5215 105.247 90.4926 105.268 90.4868C105.291 90.4781 106.257 90.4694 107.414 90.4694H107.416ZM3.89907 0.308582V11.6181L0.99242 11.6036L0.983744 5.99227C0.980852 2.90601 0.983744 0.363539 0.99242 0.343292C1.0011 0.31726 1.32213 0.308582 3.89907 0.308582ZM5.63439 0.308582L7.87584 0.30569L7.99442 0.45899C8.06094 0.542872 8.16506 0.684602 8.22579 0.774268C8.28942 0.863935 8.42535 1.06062 8.52947 1.20814C8.63648 1.35855 8.76374 1.53788 8.81291 1.61019C8.86207 1.6825 8.98065 1.85026 9.07899 1.98621C9.17443 2.12215 9.28433 2.27835 9.32193 2.3333C9.35953 2.38826 9.46943 2.54445 9.56488 2.6804C9.66032 2.81634 9.82228 3.05063 9.9264 3.20104C10.0334 3.35145 10.2012 3.59152 10.3024 3.73615C10.4036 3.87788 10.5511 4.08613 10.6292 4.19894C10.7044 4.30885 10.8606 4.53157 10.9734 4.69066C11.0862 4.84974 11.2655 5.10428 11.3725 5.25469C11.4766 5.4051 11.6241 5.61914 11.8381 5.92863L11.8526 0.308582H13.2987C14.5597 0.308582 14.7477 0.314367 14.7593 0.351969C14.7679 0.375109 14.7737 2.90023 14.7737 5.96334C14.7737 9.02646 14.7679 11.5516 14.7593 11.5747C14.7477 11.6123 14.5944 11.6181 12.5033 11.6181L12.0117 10.9181C11.7398 10.5334 11.4911 10.1777 11.4564 10.1285C11.4246 10.0822 11.3233 9.93758 11.2337 9.81031C11.144 9.68304 10.9878 9.46032 10.8866 9.31859C10.7854 9.17397 10.6292 8.95414 10.5395 8.82688C10.4528 8.69961 10.3342 8.52895 10.2764 8.45086C10.2185 8.36987 10.1433 8.25995 10.1028 8.205C10.0652 8.15004 9.98714 8.03723 9.92929 7.95914C9.87434 7.87815 9.80493 7.7827 9.77601 7.7422C9.74998 7.70171 9.61694 7.5137 9.481 7.3228C9.34796 7.13189 9.16865 6.87736 9.08477 6.75877C9.0009 6.64018 8.85629 6.43192 8.76663 6.29887C8.67408 6.16581 8.59021 6.05301 8.57575 6.04722C8.56418 6.04144 8.5555 7.27073 8.5555 8.78349C8.5555 10.2934 8.54972 11.5516 8.54104 11.5747C8.52947 11.6123 8.34148 11.6181 5.63439 11.6181V0.308582ZM24.2456 0.323045L24.2514 1.71143C24.2572 2.79031 24.2514 3.10559 24.2225 3.12005C24.2052 3.13162 23.5804 3.14319 21.4836 3.14319V7.33726C21.4836 9.64255 21.4778 11.5516 21.4691 11.5747C21.4576 11.6123 21.2696 11.6181 18.5625 11.6181V3.14319H17.2032C16.0347 3.14319 15.838 3.13741 15.8004 3.09981C15.7628 3.0622 15.7571 2.8713 15.7571 1.72589C15.7571 0.994095 15.7657 0.375109 15.7744 0.351969C15.7889 0.314367 16.2777 0.308582 24.2456 0.323045ZM32.4595 0.323045L32.4653 1.66804C32.471 2.71222 32.4653 3.01882 32.4363 3.03328C32.419 3.04485 31.4559 3.05642 28.1935 3.05642V4.5605H30.0879C31.1291 4.5605 32.0025 4.56628 32.0256 4.57496C32.0632 4.58653 32.069 4.76297 32.069 7.25049H28.1935V8.87026H30.3626C32.2657 8.87026 32.5347 8.87605 32.5462 8.91365C32.5549 8.93679 32.5607 9.53842 32.5607 10.25C32.5607 10.9644 32.5491 11.5631 32.5376 11.5805C32.5231 11.6094 31.7422 11.6152 25.2868 11.6036L25.2782 5.99227C25.2753 2.90601 25.2782 0.363539 25.2868 0.343292C25.2984 0.314367 26.0301 0.308582 32.4595 0.323045ZM39.0247 0.325937L39.3573 0.401141C39.5396 0.444528 39.7999 0.519732 39.9358 0.568904C40.0717 0.618076 40.2915 0.716419 40.4275 0.788731C40.5634 0.85815 40.7774 0.994095 40.9047 1.08955C41.0319 1.185 41.2459 1.37301 41.379 1.50317C41.512 1.63333 41.6769 1.81266 41.7434 1.89944C41.8099 1.98621 41.8938 2.1048 41.9285 2.15976C41.9603 2.21471 42.0413 2.36512 42.1049 2.49239C42.1686 2.61966 42.2669 2.87419 42.3218 3.05642C42.4057 3.32542 42.4317 3.47004 42.4578 3.80846C42.4809 4.11506 42.4809 4.3291 42.4578 4.60388C42.4375 4.8671 42.3999 5.06379 42.3421 5.25469C42.2958 5.4051 42.2062 5.6336 42.1483 5.76087C42.0876 5.88814 41.9921 6.06458 41.9372 6.15135C41.8793 6.23812 41.7955 6.3625 41.7463 6.42613C41.6971 6.48688 41.5641 6.63439 41.4542 6.75298C41.3414 6.87157 41.1592 7.03644 41.0493 7.12032C40.9365 7.20421 40.7919 7.30833 40.7225 7.35461C40.653 7.40089 40.5981 7.44428 40.5981 7.45296C40.5981 7.46163 40.6299 7.52527 40.6704 7.59758C40.708 7.66989 40.8324 7.8955 40.948 8.10376C41.0637 8.30912 41.1881 8.53184 41.2228 8.59548C41.2575 8.65911 41.4542 9.0091 41.6566 9.37644C41.862 9.74089 42.0558 10.0938 42.0934 10.1574C42.1281 10.221 42.29 10.5132 42.4549 10.8082C42.6168 11.1032 42.7759 11.3925 42.8048 11.4503C42.8338 11.5111 42.8569 11.5718 42.8569 11.5892C42.8569 11.6094 42.3247 11.6152 39.7594 11.6036L39.7189 11.5313C39.6957 11.4908 39.473 11.0801 39.2272 10.6202C38.9785 10.1574 38.7616 9.75535 38.7442 9.72354C38.724 9.69172 38.669 9.59338 38.6227 9.5066C38.5765 9.41983 38.4955 9.26942 38.4434 9.17397C38.3942 9.07852 38.3133 8.92811 38.267 8.84134C38.2178 8.75456 38.1339 8.59837 38.079 8.49424C38.024 8.39011 37.9373 8.23392 37.8042 7.98806L36.8122 7.9736V9.75246C36.8122 10.7301 36.8064 11.5516 36.7978 11.5747C36.7862 11.6123 36.5982 11.6181 35.3372 11.6181C34.0762 11.6181 33.8882 11.6123 33.8766 11.5747C33.868 11.5516 33.8622 9.02646 33.8622 5.96334C33.8622 2.90023 33.8709 0.375109 33.8795 0.351969C33.8969 0.311475 34.1745 0.308582 39.0247 0.325937ZM36.8122 5.48608L38.7355 5.47162C38.9814 5.35592 39.097 5.28361 39.152 5.23733C39.207 5.19105 39.3024 5.07536 39.3631 4.9799C39.4325 4.87288 39.4904 4.73115 39.5164 4.60967C39.5396 4.50265 39.5598 4.34067 39.5598 4.24811C39.5598 4.15845 39.5396 3.99936 39.5135 3.89523C39.4904 3.7911 39.4354 3.64937 39.3921 3.57706C39.3516 3.50475 39.2764 3.40351 39.2272 3.34856C39.1809 3.29649 39.0623 3.20972 38.9669 3.15476C38.8368 3.08245 38.7326 3.05353 38.5475 3.03039C38.4116 3.01303 37.9662 2.99857 37.5555 2.99857H36.8122V5.48608ZM43.8692 0.308582H46.1251L46.2061 0.415603C46.2494 0.476345 46.3102 0.557334 46.3362 0.597828C46.3622 0.638323 46.4635 0.780053 46.5589 0.915999C46.6572 1.05194 46.8105 1.27177 46.906 1.40772C46.9985 1.54366 47.1634 1.78084 47.2733 1.93414C47.3803 2.09034 47.6521 2.47793 47.8749 2.7961C48.0975 3.11716 48.3116 3.42087 48.3521 3.47583C48.3926 3.53078 48.4706 3.6407 48.5256 3.72168C48.5805 3.80267 48.6586 3.91259 48.6991 3.96754C48.7396 4.0225 48.8177 4.13241 48.8727 4.2134C48.9276 4.29439 49.0057 4.4043 49.0462 4.45926C49.0867 4.51422 49.3267 4.85553 50.044 5.88235L50.0585 3.1027C50.0671 1.57259 50.0758 0.320152 50.0816 0.314367C50.0845 0.311475 50.7381 0.308582 51.5335 0.308582C52.7945 0.308582 52.9825 0.314367 52.994 0.351969C53.0027 0.375109 53.0085 2.90023 53.0085 5.96334C53.0085 9.02646 53.0027 11.5516 52.994 11.5747C52.9825 11.6123 52.8292 11.6181 50.7381 11.6152L50.6716 11.5226C50.634 11.4735 50.4923 11.2739 50.3592 11.083C50.2233 10.8921 50.0932 10.7041 50.0642 10.6636C50.0382 10.6231 49.6738 10.1025 49.2544 9.5066C48.8351 8.91076 48.4678 8.39011 48.4388 8.34962C48.4099 8.30913 48.3116 8.17318 48.2219 8.04591C48.1351 7.91864 47.9703 7.68435 47.8604 7.52527C47.7476 7.36618 47.6117 7.1695 47.5567 7.0914C47.4989 7.01041 47.3832 6.84843 47.2993 6.72984C47.2125 6.61125 47.065 6.40299 46.8047 6.02119L46.7903 8.81241C46.7816 10.3483 46.7729 11.6065 46.7671 11.6094C46.7642 11.6152 46.1106 11.6181 43.8692 11.6181V0.308582ZM61.0343 0.323045L61.0748 0.453205C61.0979 0.525517 61.1529 0.687495 61.1934 0.814763C61.2368 0.942031 61.471 1.6449 61.7111 2.37669C61.9511 3.10848 62.3503 4.32621 62.599 5.08114C62.8477 5.83607 63.0878 6.55919 63.1312 6.68646C63.1745 6.81372 63.4146 7.54262 63.6662 8.30623C63.9149 9.06984 64.1492 9.77849 64.1868 9.88262C64.2244 9.98675 64.3632 10.4062 64.4963 10.8169C64.6264 11.2247 64.7305 11.5747 64.7219 11.5892C64.7132 11.6065 64.1434 11.6152 61.6128 11.6036L61.552 11.4156C61.5173 11.3115 61.4508 11.0975 61.4045 10.9384C61.3554 10.7793 61.2715 10.5016 61.1211 9.99832H57.4046L57.3179 10.2934C57.2687 10.4582 57.1877 10.7272 57.1385 10.895C57.0894 11.0627 57.0229 11.2884 56.9216 11.6036L55.357 11.6094C53.8819 11.6181 53.7894 11.6152 53.7894 11.566C53.7894 11.54 53.9774 10.9442 54.2088 10.2442C54.4372 9.54421 54.6599 8.87315 54.7033 8.75456C54.7438 8.63597 54.793 8.47978 54.8161 8.40747C54.8364 8.33516 54.8797 8.19921 54.9144 8.10376C54.9463 8.00831 55.14 7.42982 55.3396 6.81662C55.5392 6.20341 55.7329 5.61914 55.7705 5.51501C55.8052 5.41088 56.0019 4.81793 56.2044 4.19894C56.4068 3.57706 56.6035 2.987 56.6382 2.88287C56.6729 2.77874 56.8754 2.16843 57.0865 1.52342C57.2976 0.878397 57.4769 0.343292 57.4827 0.32883C57.4885 0.31726 58.2925 0.311475 61.0343 0.323045ZM59.0821 4.31464C59.0387 4.45637 58.9548 4.74272 58.8941 4.95098C58.8363 5.15634 58.7582 5.42534 58.7235 5.54393C58.6859 5.66252 58.6165 5.89681 58.5673 6.06458C58.5181 6.23234 58.4429 6.48398 58.3995 6.62861C58.359 6.77034 58.2925 6.99306 58.2578 7.12032C58.2202 7.24759 58.1826 7.37486 58.1739 7.40089C58.1566 7.45007 58.2231 7.45296 59.2556 7.45296C59.8601 7.45296 60.3547 7.44717 60.3547 7.4385C60.3547 7.42982 60.3257 7.3228 60.2939 7.19842C60.2592 7.07694 60.1956 6.85711 60.1522 6.71538C60.1088 6.57076 60.0307 6.31044 59.9787 6.13689C59.9266 5.96045 59.8485 5.70013 59.8051 5.5584C59.7618 5.41377 59.6837 5.15345 59.6316 4.9799C59.5795 4.80346 59.5072 4.56339 59.4696 4.4448C59.4349 4.32621 59.38 4.12663 59.3482 4.00225C59.3193 3.88077 59.2788 3.77953 59.2643 3.77953C59.2469 3.77953 59.218 3.84028 59.1978 3.91548C59.1775 3.99358 59.1284 4.17002 59.0821 4.31464ZM68.2532 0.308582C71.9784 0.308582 72.4758 0.314367 72.4874 0.351969C72.4961 0.375109 72.5019 0.994095 72.5019 1.72589C72.5019 2.89733 72.4961 3.0622 72.4556 3.09981C72.418 3.13741 72.2213 3.14319 69.7254 3.14319V7.33726C69.7254 9.64255 69.7196 11.5516 69.7109 11.5747C69.6993 11.6123 69.5113 11.6181 68.2503 11.6181C66.9893 11.6181 66.8014 11.6123 66.7898 11.5747C66.7811 11.5516 66.7753 9.64255 66.7753 3.14319H65.4305C64.2736 3.14319 64.0798 3.13741 64.0422 3.09981C64.0046 3.0622 63.9988 2.8713 63.9988 1.72589C63.9988 0.994095 64.0075 0.375109 64.0162 0.351969C64.0306 0.314367 64.5281 0.308582 68.2532 0.308582ZM74.9631 0.308582C76.2212 0.308582 76.4092 0.314367 76.4208 0.351969C76.4295 0.375109 76.4352 2.90023 76.4352 5.96334C76.4352 9.02646 76.4295 11.5516 76.4208 11.5747C76.4092 11.6123 76.2212 11.6181 74.9602 11.6181C73.6992 11.6181 73.5112 11.6123 73.4997 11.5747C73.491 11.5516 73.4852 9.02646 73.4852 5.96334C73.4852 2.90023 73.4939 0.375109 73.5026 0.351969C73.517 0.314367 73.705 0.308582 74.9631 0.308582ZM90.8673 0.308582H93.1232L93.1868 0.386679C93.2244 0.430066 93.3314 0.574689 93.424 0.710634C93.5194 0.849472 93.6322 1.01145 93.6785 1.07508C93.7219 1.13872 93.7971 1.24285 93.8404 1.30648C93.8867 1.37012 93.9851 1.51185 94.0632 1.62465C94.1412 1.73457 94.361 2.04695 94.549 2.31884C94.737 2.58784 94.9164 2.84238 94.9453 2.88287C94.9742 2.92337 95.0725 3.05931 95.1593 3.18658C95.249 3.31385 95.4138 3.54814 95.5266 3.70722C95.6394 3.86631 95.7609 4.04275 95.7985 4.0977C95.8361 4.15266 95.9055 4.251 95.9518 4.31464C95.9951 4.37827 96.0964 4.52 96.1745 4.63281C96.2525 4.74272 96.4666 5.04932 96.6517 5.31254C96.8368 5.57575 97.0074 5.82161 97.0305 5.8621C97.0652 5.92574 97.0739 5.58732 97.1 0.323045L100.001 0.308582L100.007 11.6181L97.7652 11.621L97.6697 11.4966C97.6177 11.4272 97.4933 11.2594 97.395 11.1206C97.2966 10.9789 97.1376 10.7561 97.0421 10.6202C96.9467 10.4843 96.8165 10.2991 96.75 10.2066C96.6864 10.1169 96.5533 9.92312 96.455 9.78139C96.3538 9.63676 96.2005 9.41405 96.1079 9.28678C96.0183 9.15662 95.7782 8.8182 95.5787 8.53474C95.3762 8.24838 95.1709 7.95914 95.1217 7.88683C95.0725 7.81451 94.9482 7.63807 94.8469 7.49634C94.7457 7.35172 94.5895 7.13189 94.4999 7.00463C94.4102 6.87736 94.2454 6.64307 94.1326 6.48398C94.0198 6.3249 93.9012 6.14846 93.8029 5.99227L93.7739 11.6036L90.8673 11.6181V0.308582ZM106.265 0.308582C107.651 0.30569 108.009 0.314367 108.038 0.343292C108.056 0.363539 108.084 0.432958 108.099 0.496592C108.116 0.560226 108.163 0.710634 108.203 0.829225C108.246 0.947816 108.472 1.63044 108.709 2.34777C108.943 3.0622 109.343 4.27414 109.594 5.03775C109.846 5.80136 110.086 6.53026 110.129 6.65753C110.173 6.7848 110.413 7.5137 110.664 8.27731C110.916 9.04092 111.263 10.088 111.434 10.6057C111.604 11.1235 111.737 11.5631 111.732 11.5805C111.723 11.6094 111.39 11.6152 108.617 11.6036L108.553 11.4012C108.518 11.2884 108.449 11.0627 108.397 10.895C108.348 10.7272 108.264 10.4582 108.119 9.99543L104.417 9.99832L104.322 10.3078C104.27 10.4814 104.192 10.7446 104.145 10.895C104.102 11.0454 104.033 11.271 103.926 11.6181H102.37C101.155 11.6181 100.814 11.6094 100.802 11.5805C100.793 11.5631 100.975 10.9731 101.204 10.2731C101.435 9.57313 101.658 8.90208 101.701 8.78349C101.742 8.6649 101.788 8.51738 101.803 8.45664C101.817 8.39879 101.861 8.26863 101.898 8.16739C101.936 8.06905 102.127 7.49924 102.32 6.90339C102.517 6.30754 102.876 5.20552 103.124 4.45926C103.37 3.71011 103.607 2.99568 103.651 2.86841C103.694 2.74114 103.897 2.12794 104.099 1.50895C104.304 0.887074 104.481 0.363539 104.498 0.343292C104.518 0.31726 104.909 0.308582 106.265 0.308582ZM106.21 3.90969C106.181 4.00515 106.124 4.19894 106.08 4.34356C106.037 4.48529 105.959 4.75429 105.907 4.93652C105.855 5.11874 105.777 5.39353 105.73 5.54393C105.684 5.69434 105.609 5.94888 105.563 6.10796C105.516 6.26705 105.435 6.53894 105.386 6.71538C105.334 6.88893 105.262 7.129 105.224 7.24181L105.155 7.45296H107.382C107.315 7.23892 107.28 7.12611 107.263 7.06248C107.249 6.99884 107.197 6.82819 107.153 6.68646C107.107 6.54183 107.029 6.28151 106.977 6.10796C106.928 5.93152 106.85 5.6712 106.803 5.52947C106.76 5.38485 106.682 5.12453 106.63 4.95098C106.578 4.77454 106.497 4.50265 106.45 4.34356C106.401 4.18448 106.341 3.98201 106.312 3.89523L106.262 3.73615L106.21 3.90969ZM114.008 0.308582C115.263 0.308582 115.451 0.314367 115.465 0.351969C115.474 0.375109 115.48 2.28124 115.48 8.78349H117.374C119.02 8.78349 119.274 8.78927 119.312 8.82688C119.35 8.86448 119.355 9.05538 119.355 10.2008C119.355 10.9326 119.35 11.5516 119.341 11.5747C119.326 11.6123 118.924 11.6181 115.943 11.6181C112.961 11.6181 112.556 11.6123 112.544 11.5747C112.536 11.5516 112.53 9.02646 112.53 5.96334C112.53 2.90023 112.536 0.375109 112.547 0.351969C112.562 0.314367 112.75 0.308582 114.008 0.308582ZM27.268 18.1551H93.0364V24.7354C93.0364 30.5579 93.0306 31.3186 92.993 31.3302C92.9699 31.3389 87.0525 31.3447 66.7464 31.3447V83.9296H60.1667C54.3418 83.9296 53.584 83.9238 53.5725 83.8862C53.5638 83.8631 53.558 72.03 53.558 31.3447H40.4564C33.249 31.3447 27.3345 31.3389 27.3114 31.3302C27.2738 31.3186 27.268 30.5579 27.268 24.7354V18.1551ZM106.167 18.1551H112.747C118.569 18.1551 119.326 18.1608 119.341 18.1984C119.35 18.2216 119.355 33.0021 119.355 51.0423C119.355 69.0826 119.35 83.8631 119.341 83.8862C119.326 83.9238 117.108 83.9296 99.6017 83.9296C82.0924 83.9296 79.8741 83.9238 79.8625 83.8862C79.8538 83.8631 79.848 74.9977 79.848 64.1886C79.848 53.3794 79.8538 44.514 79.8625 44.4909C79.8741 44.4533 80.6318 44.4475 93.0364 44.4475V70.74H106.167V18.1551ZM110.708 21.6925C110.589 21.7186 110.381 21.788 110.245 21.8516C110.109 21.9124 109.907 22.0338 109.791 22.1206C109.678 22.2074 109.505 22.3665 109.406 22.4793C109.308 22.5892 109.178 22.7656 109.114 22.8698C109.053 22.9739 108.964 23.1619 108.917 23.2892C108.868 23.4164 108.808 23.6449 108.782 23.7954C108.755 23.9487 108.735 24.2234 108.735 24.4172C108.735 24.6081 108.755 24.8916 108.782 25.0449C108.808 25.2011 108.868 25.4296 108.917 25.5511C108.967 25.6755 109.045 25.849 109.094 25.9358C109.143 26.0225 109.259 26.1845 109.351 26.2973C109.441 26.4072 109.6 26.5663 109.701 26.6473C109.8 26.7283 109.967 26.8411 110.071 26.8961C110.176 26.9539 110.338 27.0291 110.433 27.0609C110.528 27.0928 110.69 27.139 110.794 27.1651C110.913 27.1911 111.127 27.2085 111.387 27.2085C111.627 27.2085 111.867 27.1911 111.98 27.168C112.084 27.1448 112.252 27.0985 112.356 27.0638C112.46 27.0291 112.628 26.9568 112.732 26.899C112.836 26.844 112.993 26.7428 113.079 26.6734C113.166 26.6068 113.296 26.4882 113.369 26.4101C113.441 26.332 113.554 26.1903 113.617 26.0949C113.681 25.9994 113.776 25.8288 113.828 25.7188C113.878 25.606 113.944 25.418 113.976 25.2994C114.005 25.1808 114.048 24.9552 114.068 24.799C114.097 24.5734 114.115 24.5185 114.149 24.5271C114.173 24.5329 114.401 24.6804 114.656 24.8511C114.91 25.0247 115.191 25.2156 115.277 25.2763C115.364 25.337 115.598 25.4961 115.798 25.6292C115.998 25.7651 116.252 25.9416 116.368 26.0225C116.483 26.1006 116.585 26.1672 116.593 26.1672C116.602 26.1672 116.608 25.7854 116.608 25.3197V24.4751C116.394 24.342 116.301 24.2813 116.261 24.2495C116.22 24.2205 115.627 23.8272 114.945 23.3759C114.259 22.9247 113.661 22.5285 113.614 22.4937C113.565 22.459 113.418 22.3607 113.282 22.271C113.146 22.1814 112.984 22.0801 112.92 22.0425C112.857 22.002 112.695 21.921 112.559 21.8574C112.4 21.7822 112.209 21.7215 112.024 21.6839C111.865 21.6549 111.656 21.626 111.561 21.6202C111.465 21.6144 111.283 21.6202 111.156 21.6289C111.029 21.6405 110.826 21.6694 110.708 21.6925ZM111.532 28.001C111.324 28.0415 111.037 28.1167 110.896 28.1659C110.751 28.215 110.537 28.3018 110.419 28.3568C110.3 28.4146 110.097 28.5303 109.97 28.6142C109.843 28.6981 109.652 28.8485 109.548 28.9497C109.444 29.051 109.319 29.184 109.27 29.2476C109.224 29.3113 109.143 29.4328 109.094 29.5137C109.042 29.5976 108.964 29.7625 108.917 29.8753C108.871 29.991 108.81 30.2108 108.784 30.3612C108.755 30.5174 108.735 30.7864 108.732 30.9831C108.732 31.1856 108.753 31.4459 108.782 31.605C108.81 31.7554 108.871 31.9781 108.92 32.0967C108.97 32.2153 109.05 32.3773 109.097 32.4583C109.146 32.5364 109.224 32.655 109.273 32.7186C109.322 32.7822 109.415 32.8864 109.479 32.9529C109.542 33.0194 109.672 33.1351 109.771 33.2132C109.866 33.2913 110.011 33.3925 110.089 33.4388C110.167 33.4851 110.309 33.5632 110.404 33.6095C110.499 33.6557 110.682 33.731 110.809 33.7772C110.936 33.8235 111.144 33.8871 111.272 33.9161C111.399 33.9479 111.619 33.9942 111.763 34.0173C111.954 34.052 112.217 34.0636 112.747 34.0636C113.244 34.0636 113.542 34.052 113.701 34.0231C113.828 34 114.048 33.9537 114.193 33.9219C114.335 33.89 114.563 33.8235 114.699 33.7743C114.835 33.7252 115.034 33.6384 115.147 33.5834C115.257 33.5256 115.434 33.4244 115.538 33.3578C115.642 33.2913 115.815 33.1525 115.922 33.0483C116.032 32.9471 116.183 32.7793 116.255 32.6752C116.327 32.5711 116.426 32.4149 116.472 32.3281C116.518 32.2413 116.596 32.0446 116.645 31.8942C116.735 31.6224 116.735 31.6166 116.735 30.9831C116.738 30.3641 116.735 30.341 116.657 30.1009C116.611 29.965 116.535 29.7712 116.483 29.667C116.431 29.5629 116.319 29.3807 116.229 29.2621C116.139 29.1435 115.998 28.9815 115.911 28.9034C115.824 28.8282 115.65 28.6952 115.523 28.6113C115.396 28.5274 115.208 28.4175 115.104 28.3654C115 28.3134 114.786 28.2266 114.627 28.1716C114.468 28.1196 114.175 28.0415 113.976 28.0039C113.776 27.9663 113.464 27.9229 113.282 27.9055C113.1 27.8882 112.839 27.8766 112.703 27.8766C112.567 27.8795 112.333 27.894 112.183 27.9055C112.032 27.92 111.737 27.9634 111.532 28.001ZM111.33 35.0441C111.121 35.0933 110.844 35.1772 110.708 35.2292C110.572 35.2842 110.387 35.3681 110.294 35.4202C110.204 35.4693 110.074 35.5445 110.005 35.5879C109.938 35.6313 109.791 35.7412 109.681 35.8309C109.568 35.9234 109.412 36.0796 109.331 36.1809C109.25 36.2821 109.146 36.4267 109.094 36.5077C109.045 36.5858 108.967 36.7507 108.917 36.8693C108.871 36.9879 108.81 37.2106 108.784 37.361C108.755 37.5172 108.735 37.7862 108.732 37.9829C108.732 38.1853 108.753 38.4428 108.782 38.6047C108.81 38.7552 108.874 38.9779 108.923 39.0965C108.972 39.2151 109.065 39.3973 109.126 39.5014C109.189 39.6055 109.299 39.7617 109.374 39.8456C109.447 39.9324 109.612 40.0857 109.739 40.1869C109.866 40.2882 110.043 40.4125 110.129 40.4617C110.216 40.5138 110.352 40.5861 110.433 40.6237C110.511 40.6642 110.702 40.7394 110.852 40.7914C111.003 40.8464 111.289 40.9216 111.489 40.9621C111.688 40.9997 111.986 41.046 112.154 41.0633C112.322 41.0778 112.588 41.0923 112.747 41.0923C112.906 41.0923 113.172 41.0778 113.34 41.0604C113.507 41.0431 113.805 40.9997 114.005 40.9621C114.204 40.9245 114.476 40.8551 114.612 40.8088C114.748 40.7625 114.968 40.67 115.104 40.6005C115.24 40.534 115.439 40.4183 115.552 40.346C115.662 40.2708 115.83 40.1378 115.922 40.051C116.018 39.9642 116.157 39.808 116.235 39.7039C116.31 39.5998 116.414 39.4378 116.466 39.3423C116.515 39.2469 116.596 39.0444 116.645 38.894C116.735 38.6221 116.735 38.6163 116.735 37.9829L116.738 37.3465C116.585 36.8982 116.504 36.6957 116.455 36.6089C116.405 36.5222 116.321 36.3833 116.264 36.3052C116.209 36.2243 116.073 36.0681 115.96 35.9581C115.847 35.8453 115.662 35.6949 115.552 35.6226C115.439 35.5474 115.277 35.452 115.191 35.4086C115.104 35.3623 114.922 35.2842 114.786 35.2292C114.65 35.1772 114.369 35.0933 114.164 35.0441C113.956 34.995 113.658 34.9429 113.499 34.9313C113.34 34.9169 112.981 34.9053 112.703 34.9082C112.426 34.9082 112.087 34.9198 111.951 34.9313C111.815 34.9458 111.535 34.995 111.33 35.0441ZM115.191 43.2182C115.191 44.3347 115.182 44.6529 115.153 44.6673C115.133 44.6789 114.783 44.3521 114.265 43.8343C113.797 43.3657 113.328 42.9116 113.224 42.8248C113.12 42.7352 112.946 42.6021 112.839 42.5298C112.732 42.4546 112.538 42.336 112.405 42.2666C112.275 42.1972 112.044 42.0959 111.894 42.0439C111.622 41.9484 111.61 41.9484 111.113 41.9484C110.633 41.9484 110.595 41.9542 110.39 42.0294C110.271 42.0728 110.147 42.1162 110.115 42.1249C110.083 42.1335 109.967 42.2001 109.86 42.2695C109.753 42.336 109.586 42.4749 109.484 42.5732C109.386 42.6744 109.238 42.8538 109.16 42.9724C109.085 43.091 108.975 43.2934 108.923 43.4207C108.868 43.548 108.805 43.7678 108.779 43.9124C108.753 44.0541 108.732 44.3145 108.735 44.4909C108.735 44.6905 108.755 44.9132 108.79 45.0839C108.822 45.2343 108.897 45.4686 108.955 45.6045C109.013 45.7404 109.123 45.94 109.198 46.0528C109.27 46.1627 109.418 46.3392 109.522 46.4433C109.623 46.5474 109.8 46.6921 109.912 46.7673C110.022 46.8396 110.164 46.9263 110.222 46.9553C110.283 46.9842 110.335 47.0016 110.34 46.9929C110.349 46.9842 110.436 46.8425 110.534 46.6747C110.635 46.5069 110.742 46.3247 110.771 46.2698C110.803 46.2148 110.881 46.0818 110.942 45.9718C111.003 45.8648 111.049 45.7694 111.043 45.7549C111.037 45.7433 110.974 45.7057 110.904 45.6681C110.835 45.6334 110.708 45.5409 110.624 45.4657C110.537 45.3905 110.424 45.2603 110.369 45.1764C110.317 45.0954 110.254 44.945 110.228 44.8438C110.202 44.7454 110.181 44.5719 110.181 44.462C110.181 44.3492 110.202 44.1872 110.228 44.1004C110.254 44.0136 110.3 43.9008 110.332 43.8546C110.361 43.8054 110.427 43.7273 110.482 43.6752C110.534 43.6232 110.65 43.5509 110.737 43.5104C110.823 43.4699 110.974 43.4294 111.069 43.4178C111.176 43.4062 111.301 43.412 111.402 43.4352C111.489 43.4554 111.633 43.5075 111.72 43.5451C111.807 43.5856 111.931 43.6521 111.995 43.6926C112.058 43.7331 112.189 43.8256 112.284 43.8951C112.379 43.9674 112.515 44.0773 112.588 44.1438C112.657 44.2074 112.917 44.4562 113.166 44.6963C113.412 44.9334 113.86 45.3702 114.164 45.6652C114.465 45.9574 114.887 46.371 115.104 46.5793L115.494 46.964H116.608V41.7864H115.191V43.2182ZM115.191 52.0691C115.191 53.4951 115.185 53.7063 115.147 53.7178C115.124 53.7265 114.737 53.7323 114.285 53.7323C113.664 53.7323 113.461 53.7236 113.432 53.6976C113.403 53.6687 113.397 53.3447 113.397 52.2196V50.782H111.98L111.966 53.7178C110.508 53.7323 110.384 53.7265 110.346 53.6889C110.309 53.6513 110.303 53.4315 110.303 52.0691V50.4928H108.886V55.2075H116.608V50.4349H115.191V52.0691ZM110.228 56.3905C110.135 56.4599 109.959 56.6161 109.84 56.7376C109.719 56.8591 109.56 57.0413 109.481 57.1454C109.4 57.2495 109.27 57.4636 109.184 57.6227C109.1 57.7818 108.987 58.0508 108.929 58.2214C108.874 58.395 108.808 58.6668 108.782 58.8288C108.755 58.9937 108.735 59.3032 108.735 59.5172C108.732 59.7313 108.755 60.0494 108.782 60.2259C108.808 60.4023 108.871 60.6742 108.926 60.8333C108.978 60.9924 109.065 61.2093 109.114 61.3163C109.163 61.4263 109.247 61.5824 109.299 61.6634C109.354 61.7473 109.476 61.9151 109.571 62.0337C109.667 62.1523 109.828 62.3316 109.93 62.4299C110.031 62.5312 110.219 62.6903 110.346 62.7857C110.473 62.8812 110.702 63.0229 110.852 63.101C111.003 63.1791 111.269 63.289 111.445 63.344C111.662 63.4134 111.888 63.4625 112.154 63.4915C112.368 63.5175 112.634 63.5377 112.747 63.5377C112.857 63.5377 113.117 63.5175 113.325 63.4944C113.554 63.4683 113.814 63.4163 113.99 63.3613C114.149 63.3121 114.384 63.2196 114.511 63.1588C114.638 63.0981 114.794 63.0171 114.858 62.9824C114.922 62.9448 115.052 62.858 115.147 62.7857C115.243 62.7163 115.436 62.5456 115.575 62.4097C115.717 62.2737 115.914 62.0539 116.012 61.918C116.11 61.782 116.232 61.5998 116.278 61.513C116.327 61.4262 116.411 61.2498 116.463 61.1225C116.518 60.9953 116.599 60.7494 116.645 60.573C116.726 60.2779 116.732 60.2114 116.744 59.6185L116.758 58.9821C116.616 58.3978 116.562 58.1896 116.544 58.1433C116.527 58.0941 116.437 57.9003 116.342 57.7094C116.249 57.5185 116.102 57.264 116.012 57.1454C115.925 57.0268 115.743 56.8244 115.613 56.6971C115.483 56.5698 115.298 56.4136 115.202 56.3471C115.11 56.2835 115.014 56.2227 114.994 56.2111C114.971 56.1996 114.936 56.2314 114.896 56.2979C114.864 56.3587 114.806 56.4599 114.771 56.5235C114.734 56.5872 114.618 56.7896 114.508 56.9719C114.401 57.1541 114.291 57.3421 114.268 57.3884C114.225 57.4665 114.225 57.4723 114.28 57.5012C114.311 57.5185 114.41 57.5937 114.496 57.6661C114.583 57.7384 114.713 57.8714 114.786 57.9582C114.858 58.045 114.962 58.1983 115.02 58.3024C115.078 58.4065 115.162 58.6148 115.208 58.7652C115.286 59.0226 115.292 59.0747 115.292 59.5317C115.292 59.9916 115.286 60.0408 115.208 60.2982C115.162 60.4486 115.081 60.6569 115.026 60.761C114.971 60.8651 114.881 61.0068 114.829 61.0792C114.777 61.1515 114.65 61.2874 114.549 61.3829C114.447 61.4783 114.268 61.6143 114.149 61.6866C114.031 61.756 113.797 61.8572 113.629 61.9122C113.343 62.0076 113.296 62.0134 112.848 62.0279C112.538 62.0366 112.31 62.0279 112.197 62.0047C112.102 61.9845 111.925 61.9382 111.807 61.8977C111.688 61.8601 111.506 61.782 111.402 61.7242C111.298 61.6663 111.136 61.5564 111.04 61.4754C110.945 61.3973 110.829 61.2903 110.783 61.2411C110.74 61.192 110.65 61.0734 110.583 60.9779C110.517 60.8825 110.421 60.7002 110.369 60.573C110.317 60.4457 110.254 60.223 110.231 60.0813C110.204 59.9395 110.184 59.6792 110.184 59.5028C110.184 59.3263 110.204 59.0805 110.231 58.9532C110.257 58.8259 110.314 58.6235 110.364 58.5049C110.413 58.3863 110.494 58.2301 110.543 58.1578C110.592 58.0855 110.679 57.9727 110.734 57.9032C110.792 57.8338 110.922 57.7152 111.026 57.6371C111.13 57.559 111.228 57.4954 111.249 57.4925C111.269 57.4925 111.194 57.3334 111.078 57.1367C110.965 56.9429 110.826 56.7058 110.771 56.6103C110.714 56.5149 110.644 56.3905 110.615 56.3355C110.586 56.2806 110.552 56.2256 110.54 56.214C110.526 56.2025 110.491 56.2111 110.459 56.2285C110.427 56.2487 110.323 56.3211 110.228 56.3905ZM108.886 66.141C113.233 66.1381 113.473 66.1439 113.513 66.1843C113.542 66.2133 113.545 66.2393 113.528 66.2567C113.51 66.2682 112.998 66.6327 112.385 67.0608C111.772 67.4917 111.208 67.888 111.133 67.9401C111.058 67.9921 110.954 68.0644 110.901 68.1021C110.849 68.1396 110.737 68.2206 110.65 68.2814C110.563 68.345 110.45 68.4231 110.404 68.4549C110.355 68.4896 109.999 68.7413 109.609 69.0132L108.9 69.5107L108.886 70.6821H116.608V69.178C112.102 69.1636 111.966 69.1607 111.957 69.1115C111.954 69.0768 112.032 69.0074 112.217 68.8772C112.365 68.776 112.544 68.6516 112.617 68.6024C112.689 68.5533 112.877 68.4202 113.036 68.3103C113.195 68.1975 113.415 68.0442 113.528 67.9661C113.638 67.888 114.054 67.5988 114.453 67.3182C114.849 67.0376 115.237 66.7657 115.315 66.7137C115.39 66.6616 115.494 66.5893 115.546 66.5517C115.596 66.5141 115.705 66.436 115.786 66.3781C115.87 66.3203 116.087 66.167 116.272 66.0397L116.608 65.8083V64.6658H108.886V66.141ZM108.886 73.6324H116.608V72.1573H108.886V73.6324ZM113.924 74.6882C113.808 74.7113 113.62 74.7778 113.504 74.8357C113.389 74.8935 113.238 74.989 113.169 75.0468C113.1 75.1047 112.961 75.2551 112.862 75.3824C112.764 75.5096 112.643 75.6919 112.593 75.7873C112.544 75.8828 112.466 76.0592 112.42 76.1778C112.371 76.2964 112.296 76.5046 112.249 76.6406C112.2 76.7765 112.113 77.0426 112.053 77.2335C111.992 77.4244 111.911 77.6587 111.873 77.7542C111.833 77.8496 111.755 78.0232 111.697 78.1418C111.633 78.2691 111.541 78.3963 111.471 78.4599C111.405 78.5178 111.292 78.5814 111.217 78.5988C111.144 78.619 111.029 78.6364 110.959 78.6364C110.893 78.6364 110.78 78.6161 110.708 78.593C110.635 78.567 110.528 78.4976 110.465 78.4397C110.404 78.3819 110.332 78.2864 110.303 78.2314C110.277 78.1765 110.236 78.0579 110.216 77.9711C110.196 77.8843 110.178 77.7079 110.181 77.5806C110.181 77.4534 110.202 77.2711 110.222 77.1757C110.245 77.0802 110.309 76.9183 110.366 76.8141C110.424 76.71 110.54 76.5596 110.627 76.4786C110.711 76.3976 110.838 76.2906 110.91 76.2443C110.982 76.198 111.063 76.1489 111.089 76.1402C111.118 76.1286 111.142 76.1026 111.142 76.0824C111.139 76.065 111.104 75.9898 111.058 75.9175C111.014 75.8452 110.925 75.6948 110.861 75.5848C110.794 75.472 110.679 75.2725 110.604 75.1394C110.526 75.0063 110.442 74.8906 110.419 74.8849C110.395 74.8762 110.311 74.9109 110.236 74.9601C110.161 75.0092 110.095 75.0497 110.086 75.0497C110.077 75.0497 109.996 75.1076 109.904 75.1741C109.814 75.2435 109.672 75.365 109.594 75.4431C109.513 75.5212 109.389 75.6629 109.317 75.7584C109.244 75.8538 109.137 76.0158 109.082 76.1199C109.024 76.2241 108.946 76.3976 108.903 76.5104C108.862 76.6203 108.808 76.8373 108.782 76.9877C108.755 77.1381 108.732 77.4129 108.732 77.5951C108.732 77.7773 108.753 78.0376 108.776 78.1736C108.802 78.3095 108.863 78.5236 108.912 78.6508C108.964 78.7781 109.039 78.9401 109.079 79.0124C109.12 79.0847 109.21 79.2149 109.276 79.3017C109.343 79.3884 109.481 79.5359 109.583 79.6285C109.684 79.7211 109.852 79.8397 109.956 79.8946C110.06 79.9467 110.254 80.0219 110.39 80.0595C110.589 80.1115 110.708 80.126 111.011 80.1231C111.309 80.1231 111.437 80.1115 111.633 80.0595C111.769 80.0219 111.963 79.9409 112.067 79.8801C112.171 79.8194 112.327 79.6979 112.414 79.6083C112.501 79.5186 112.622 79.3711 112.68 79.2785C112.741 79.1889 112.842 79.0153 112.903 78.8967C112.964 78.7781 113.062 78.5554 113.117 78.405C113.172 78.2546 113.264 77.9682 113.322 77.7686C113.383 77.5691 113.481 77.2683 113.545 77.0947C113.606 76.9241 113.698 76.71 113.747 76.6175C113.797 76.5278 113.883 76.4034 113.941 76.3427C113.999 76.2819 114.086 76.2096 114.135 76.1836C114.196 76.1518 114.294 76.1373 114.468 76.1373C114.641 76.1373 114.739 76.1518 114.8 76.1836C114.846 76.2096 114.942 76.2877 115.008 76.3571C115.084 76.4352 115.159 76.5567 115.211 76.684C115.286 76.8749 115.289 76.9096 115.292 77.3637C115.292 77.8091 115.286 77.8554 115.211 78.0724C115.167 78.1996 115.092 78.3674 115.043 78.4484C114.994 78.5265 114.893 78.6566 114.818 78.7318C114.745 78.8099 114.615 78.917 114.531 78.9719C114.447 79.0269 114.329 79.0905 114.265 79.1136C114.201 79.1368 114.149 79.1744 114.149 79.1917C114.149 79.212 114.175 79.2612 114.207 79.3017C114.239 79.3421 114.262 79.3826 114.265 79.3942C114.265 79.4087 114.303 79.4781 114.349 79.5533C114.395 79.6314 114.511 79.8252 114.609 79.9872C114.705 80.152 114.786 80.2909 114.786 80.2995C114.786 80.3082 114.806 80.3458 114.829 80.3863L114.872 80.4586C115.095 80.369 115.214 80.3111 115.277 80.2706C115.341 80.2301 115.402 80.1983 115.413 80.1983C115.425 80.1983 115.535 80.1173 115.656 80.019C115.775 79.9177 115.943 79.7587 116.026 79.6632C116.11 79.5678 116.214 79.4376 116.255 79.374C116.295 79.3103 116.379 79.1541 116.443 79.0269C116.512 78.888 116.596 78.6393 116.657 78.405L116.755 78.0145C116.735 76.7302 116.732 76.7042 116.642 76.4092C116.59 76.2414 116.512 76.0274 116.469 75.9319C116.423 75.8365 116.333 75.6803 116.269 75.5848C116.206 75.4894 116.081 75.339 115.998 75.2493C115.911 75.1625 115.795 75.0555 115.74 75.015C115.685 74.9745 115.535 74.8907 115.408 74.8299C115.28 74.7692 115.084 74.7026 114.974 74.6824C114.861 74.6621 114.667 74.639 114.54 74.6332C114.413 74.6274 114.268 74.6274 114.222 74.6332C114.173 74.6419 114.04 74.665 113.924 74.6882ZM0.977959 44.4475H14.1664V83.9296L0.99242 83.9151L0.977959 44.4475ZM27.268 44.4475H40.4564L40.4419 83.9151H27.2824L27.268 44.4475ZM18.2443 90.4665L18.3311 90.5591C18.3803 90.6112 18.4902 90.7587 18.5769 90.8859C18.6637 91.0132 18.8286 91.2475 18.9385 91.4066C19.0513 91.5657 19.2161 91.8 19.3029 91.9272C19.3897 92.0545 19.4851 92.1904 19.5169 92.2309C19.5458 92.2714 19.757 92.5694 19.9854 92.8962C20.2139 93.2231 20.4222 93.521 20.4482 93.5615C20.4771 93.602 20.5812 93.7524 20.6854 93.8941C20.7866 94.0358 20.9428 94.2586 21.0324 94.3858C21.1192 94.5131 21.284 94.7474 21.3968 94.9065C21.5067 95.0656 21.6224 95.2275 21.6485 95.268C21.6774 95.3085 21.8422 95.5428 22.0158 95.7887C22.1893 96.0345 22.3599 96.2833 22.3975 96.3382C22.4351 96.3932 22.545 96.5494 22.6405 96.6853C22.7359 96.8213 22.8545 96.989 22.9066 97.0614C22.9557 97.1337 23.0338 97.2436 23.0772 97.3072C23.1235 97.3708 23.2073 97.4865 23.2623 97.5675C23.3201 97.6456 23.4214 97.7932 23.6094 98.0708L23.618 94.2904C23.6238 91.343 23.6325 90.5042 23.6614 90.4897C23.6788 90.4781 24.5435 90.4665 25.5818 90.4665C26.6201 90.4665 27.4907 90.4723 27.5138 90.481C27.5514 90.4926 27.5572 91.369 27.5572 105.739H26.0446C24.5349 105.742 24.5349 105.742 24.477 105.678C24.4452 105.643 24.3527 105.522 24.2746 105.406C24.1936 105.29 24.0403 105.068 23.9304 104.911C23.8205 104.755 23.6932 104.573 23.647 104.509C23.6007 104.446 23.485 104.284 23.3896 104.148C23.2941 104.012 23.1842 103.856 23.1466 103.801C23.109 103.746 23.0309 103.633 22.9731 103.555C22.9152 103.474 22.7764 103.274 22.6607 103.109C22.545 102.945 22.4322 102.78 22.4091 102.745C22.386 102.71 22.3108 102.603 22.2442 102.511C22.1748 102.415 22.0852 102.288 22.0389 102.224C21.9926 102.161 21.7844 101.86 21.5733 101.559C21.3621 101.258 21.1655 100.978 21.1365 100.937C21.1047 100.897 21.0093 100.761 20.9196 100.634C20.8329 100.506 20.6854 100.298 20.5928 100.168C20.5031 100.038 20.3238 99.7861 20.1966 99.6038C20.0693 99.4216 19.9363 99.2365 19.9016 99.1873C19.8669 99.141 19.7685 98.9964 19.6789 98.8691C19.5892 98.7419 19.4706 98.5712 19.4128 98.4931C19.3549 98.4121 19.2826 98.3022 19.1843 98.146L19.1698 101.935C19.1612 104.021 19.1525 105.727 19.1467 105.73C19.1438 105.736 18.2617 105.739 17.1887 105.739C15.4794 105.739 15.2336 105.733 15.222 105.695C15.2133 105.672 15.2075 102.256 15.2047 98.1055C15.2018 91.1405 15.2075 90.5533 15.2509 90.5128C15.2914 90.4723 15.4707 90.4665 18.2443 90.4665ZM31.8724 90.4694C32.902 90.4665 33.7667 90.4723 33.7899 90.481C33.8275 90.4926 33.8333 91.369 33.8333 105.739H29.9288L29.923 98.12C29.9172 91.4847 29.923 90.4984 29.9577 90.4868C29.9809 90.4781 30.8427 90.4694 31.8724 90.4694ZM37.1708 90.4665C38.319 90.4665 39.2706 90.4781 39.2879 90.4897C39.3082 90.5013 39.3949 90.7703 39.4846 91.0884C39.5743 91.4066 39.6842 91.7971 39.7304 91.9562C39.7767 92.1152 39.8519 92.3813 39.9011 92.5491C39.9474 92.7169 40.0283 93.0032 40.0775 93.1855C40.1267 93.3677 40.2048 93.6482 40.251 93.8073C40.2973 93.9664 40.3725 94.2325 40.4217 94.4003C40.4679 94.5681 40.5489 94.8544 40.601 95.0366C40.6502 95.2189 40.7311 95.5052 40.7774 95.673C40.8237 95.8407 40.9018 96.1068 40.9452 96.2659C40.9914 96.425 41.0695 96.7056 41.1216 96.8878C41.1736 97.07 41.2517 97.3506 41.298 97.5097C41.3414 97.6688 41.4166 97.9349 41.4658 98.1026C41.512 98.2704 41.6364 98.7129 41.7405 99.0861C41.8475 99.4592 41.9719 99.9017 42.0182 100.07C42.0673 100.237 42.1339 100.472 42.1686 100.59C42.2033 100.709 42.2409 100.827 42.2524 100.85C42.264 100.879 42.2785 100.862 42.29 100.793C42.3016 100.738 42.3479 100.567 42.3913 100.417C42.4346 100.266 42.5127 99.9914 42.5648 99.8092C42.6168 99.627 42.6978 99.3406 42.747 99.1728C42.7933 99.0051 42.8714 98.7332 42.9205 98.5654C42.9668 98.3977 43.0449 98.1316 43.0883 97.9725C43.1345 97.8134 43.2097 97.5473 43.256 97.3795C43.3023 97.2118 43.3833 96.9254 43.4353 96.7432C43.4874 96.561 43.5655 96.2804 43.6118 96.1213C43.6551 95.9622 43.739 95.6759 43.794 95.485C43.8489 95.2941 43.9328 94.9932 43.982 94.8197C44.034 94.6432 44.1121 94.3714 44.1555 94.2123C44.2018 94.0532 44.2827 93.7726 44.3319 93.5904C44.384 93.4082 44.4621 93.1334 44.5054 92.983C44.5488 92.8326 44.6269 92.5578 44.679 92.3756C44.731 92.1933 44.812 91.907 44.8583 91.7392C44.9046 91.5715 44.9798 91.3111 45.026 91.1607C45.0694 91.0103 45.1244 90.8136 45.1446 90.7269C45.1649 90.6401 45.2054 90.5446 45.2343 90.5157C45.2834 90.4694 45.4252 90.4665 47.36 90.4665C49.1995 90.4636 49.4395 90.4694 49.4713 90.5099C49.5032 90.5446 49.4742 90.6546 49.3209 91.1231C49.2168 91.4384 49.0549 91.9417 48.9565 92.2454C48.8611 92.5462 48.7454 92.9049 48.6991 93.0408C48.6557 93.1768 48.5372 93.5412 48.4388 93.8507C48.3376 94.1602 48.1814 94.6548 48.086 94.9499C47.9905 95.2449 47.8777 95.5949 47.8315 95.7308C47.7852 95.8668 47.6608 96.2486 47.5567 96.5841C47.4497 96.9167 47.2848 97.4316 47.1894 97.7266C47.094 98.0216 46.9812 98.3716 46.9349 98.5076C46.8915 98.6435 46.7729 99.008 46.6746 99.3175C46.5763 99.627 46.4577 99.9914 46.4143 100.127C46.368 100.263 46.2118 100.743 46.0672 101.198C45.9226 101.652 45.7664 102.132 45.7231 102.268C45.6768 102.404 45.5524 102.786 45.4483 103.121C45.3413 103.454 45.2169 103.838 45.1707 103.974C45.1273 104.11 45.0087 104.475 44.9104 104.784C44.812 105.094 44.6992 105.432 44.598 105.724H39.9271L39.8056 105.348C39.7362 105.14 39.5945 104.697 39.4875 104.365C39.3805 104.029 39.2561 103.647 39.2098 103.512C39.1665 103.376 39.0508 103.026 38.9582 102.731C38.8628 102.436 38.7037 101.941 38.6025 101.631C38.5042 101.322 38.348 100.839 38.2583 100.561C38.1687 100.284 38.0067 99.7803 37.8997 99.4476C37.7927 99.1121 37.6741 98.7477 37.6365 98.6377C37.5989 98.5249 37.4803 98.1605 37.3762 97.8279C37.2692 97.4923 37.1448 97.1105 37.1014 96.9746C37.0552 96.8386 36.9366 96.4742 36.8382 96.1647C36.7399 95.8552 36.5837 95.3722 36.4941 95.0945C36.4015 94.8168 36.2482 94.3338 36.1499 94.0243C36.0487 93.7148 35.933 93.3503 35.8867 93.2144C35.8404 93.0784 35.7161 92.6937 35.6091 92.3611C35.5021 92.0256 35.3603 91.583 35.2938 91.3777C35.2244 91.1694 35.1376 90.8975 35.0971 90.7703C35.0422 90.5967 35.0306 90.5302 35.0567 90.5013C35.0798 90.4752 35.5396 90.4665 37.1708 90.4665ZM55.5449 90.4694C58.1739 90.4665 60.346 90.4723 60.3691 90.481C60.4067 90.4926 60.4125 90.724 60.4125 94.14H54.5992V96.2225H59.863V98.0303C59.863 99.6125 59.8572 99.841 59.8196 99.8526C59.7965 99.8613 58.6107 99.867 54.5992 99.867V102.036H57.5203C60.077 102.036 60.4472 102.042 60.4848 102.08C60.5224 102.117 60.5282 102.357 60.5282 103.888C60.5282 104.857 60.5224 105.672 60.5137 105.695C60.4993 105.733 59.9295 105.739 50.6947 105.739L50.689 98.12C50.6832 91.4847 50.6889 90.4984 50.7237 90.4868C50.7468 90.4781 52.9159 90.4694 55.5449 90.4694ZM65.7775 90.4781C68.2185 90.4839 69.2048 90.4955 69.3205 90.5215C69.4072 90.5389 69.5634 90.5649 69.6675 90.5822C69.7716 90.5967 70.0059 90.6546 70.1881 90.7095C70.3703 90.7674 70.5843 90.8397 70.6653 90.8744C70.7434 90.9062 70.8938 90.9756 70.9979 91.0248C71.1021 91.074 71.2843 91.1723 71.4028 91.2417C71.5214 91.314 71.7094 91.4413 71.8222 91.5223C71.9321 91.6062 72.1288 91.771 72.256 91.8896C72.3833 92.0053 72.5597 92.1818 72.6465 92.2743C72.7361 92.3698 72.8605 92.5115 72.9241 92.5925C72.9878 92.6706 73.0948 92.821 73.1642 92.9251C73.2307 93.0293 73.3579 93.252 73.4447 93.4226C73.5286 93.5962 73.6009 93.7524 73.6009 93.7697C73.6009 93.79 73.6298 93.8854 73.6703 93.9809C73.7079 94.0763 73.7802 94.3482 73.8323 94.5883C73.9075 94.947 73.9248 95.1118 73.9393 95.5428C73.948 95.861 73.9422 96.1589 73.9219 96.3093C73.9046 96.4453 73.8641 96.6796 73.8294 96.83C73.7947 96.9804 73.731 97.2147 73.6848 97.3506C73.6385 97.4865 73.5344 97.7266 73.4563 97.8857C73.3782 98.0448 73.2481 98.2791 73.1642 98.4063C73.0803 98.5336 72.9444 98.7216 72.8634 98.8258C72.7795 98.9299 72.6407 99.0861 72.5568 99.1757C72.47 99.2654 72.3081 99.4158 72.1982 99.5113C72.0854 99.6067 71.8714 99.7716 71.721 99.8728C71.5706 99.9741 71.4289 100.064 71.4057 100.072C71.3739 100.081 71.3884 100.127 71.4665 100.272C71.5214 100.376 71.5995 100.518 71.64 100.59C71.6805 100.662 71.8453 100.96 72.0102 101.255C72.175 101.55 72.337 101.843 72.3717 101.906C72.4064 101.97 72.5626 102.25 72.7188 102.528C72.8721 102.806 73.0311 103.092 73.0716 103.164C73.1121 103.237 73.1815 103.358 73.2249 103.439C73.2683 103.517 73.3984 103.752 73.5141 103.96C73.6298 104.165 73.7629 104.408 73.812 104.495C73.8583 104.582 73.9277 104.706 73.9624 104.77C73.9971 104.833 74.1273 105.068 74.2487 105.29C74.4049 105.571 74.4628 105.701 74.4396 105.718C74.4194 105.73 73.4736 105.736 70.2633 105.724L70.1216 105.464C70.0435 105.319 69.9191 105.085 69.841 104.943C69.7659 104.799 69.6617 104.605 69.6097 104.509C69.5576 104.414 69.4737 104.258 69.4217 104.162C69.3696 104.067 69.2713 103.885 69.2048 103.757C69.1354 103.63 68.8751 103.147 68.6263 102.687C68.3776 102.224 68.1086 101.73 68.0334 101.588C67.9553 101.443 67.8425 101.235 67.7818 101.125C67.7182 101.012 67.6632 100.9 67.6545 100.871C67.643 100.824 67.5851 100.822 66.2547 100.822V105.739H62.3214L62.3156 98.12C62.3098 91.4876 62.3156 90.4984 62.3503 90.4839C62.3734 90.4781 63.915 90.4723 65.7775 90.4781ZM66.2547 97.4663L68.8751 97.4518C69.2771 97.2551 69.4188 97.1568 69.5229 97.0556C69.6183 96.9601 69.7283 96.8068 69.8006 96.668C69.8931 96.4915 69.9336 96.3729 69.9712 96.1502C70.003 95.9506 70.0146 95.7973 70.0001 95.6585C69.9886 95.5457 69.9683 95.3895 69.9509 95.3114C69.9336 95.2304 69.8815 95.0829 69.8324 94.9788C69.7832 94.8746 69.682 94.7214 69.6097 94.6346C69.5374 94.5478 69.4072 94.4292 69.3205 94.3714C69.2337 94.3135 69.0573 94.2267 68.93 94.1805L68.6986 94.0966L66.2576 94.0792L66.2547 97.4663ZM90.1963 90.4665C91.8362 90.4665 92.0878 90.4723 92.1254 90.5099C92.163 90.5475 92.1688 91.4297 92.1688 98.1026C92.1688 102.253 92.163 105.669 92.1543 105.695C92.1427 105.733 91.8969 105.739 88.2354 105.739L88.2296 98.1171C88.2238 91.4847 88.2296 90.4984 88.2672 90.4839C88.2903 90.4752 89.158 90.4694 90.1963 90.4665ZM99.272 90.4665C102.381 90.4665 104.944 90.4723 104.967 90.481C105.004 90.4926 105.01 90.7298 105.01 94.2557H101.25V99.9538C101.25 103.086 101.244 105.669 101.236 105.695C101.224 105.733 100.978 105.739 97.3169 105.739V94.2557H95.4369C93.7913 94.2557 93.557 94.2499 93.5426 94.2123C93.5339 94.1862 93.5281 93.3561 93.5252 92.3611C93.5252 90.724 93.5281 90.5533 93.5715 90.5099C93.6149 90.4694 94.1731 90.4665 99.272 90.4665ZM111.367 23.1041C111.402 23.1012 111.532 23.1156 111.656 23.133C111.81 23.1532 111.934 23.1937 112.053 23.2602C112.148 23.3123 112.284 23.4164 112.356 23.4945C112.426 23.5726 112.524 23.7201 112.573 23.8243C112.651 23.992 112.66 24.047 112.672 24.3449C112.68 24.6081 112.672 24.7094 112.631 24.8366C112.602 24.9234 112.553 25.0391 112.521 25.097C112.486 25.1519 112.423 25.2416 112.377 25.2994C112.327 25.3544 112.235 25.4412 112.171 25.4903C112.108 25.5395 111.974 25.6118 111.879 25.6465C111.737 25.7015 111.651 25.7131 111.402 25.7131C111.136 25.7131 111.075 25.7044 110.896 25.6321C110.74 25.5684 110.653 25.5048 110.505 25.3573C110.355 25.2069 110.3 25.123 110.231 24.9523C110.152 24.7557 110.144 24.7007 110.144 24.4172C110.144 24.1598 110.158 24.0615 110.21 23.9111C110.248 23.7982 110.332 23.6536 110.413 23.5524C110.488 23.4598 110.621 23.3383 110.708 23.2834C110.815 23.2169 110.939 23.1735 111.084 23.1446C111.202 23.1243 111.33 23.1041 111.367 23.1041ZM112.877 29.3923C113.212 29.4009 113.49 29.4241 113.701 29.4617C113.878 29.4906 114.129 29.5571 114.265 29.6092C114.401 29.6584 114.583 29.7451 114.67 29.8059C114.757 29.8637 114.887 29.9679 114.956 30.0402C115.026 30.1125 115.113 30.2311 115.147 30.3034C115.185 30.3728 115.237 30.5116 115.263 30.6071C115.301 30.7373 115.312 30.8501 115.301 31.0699C115.289 31.3042 115.272 31.3967 115.202 31.5587C115.156 31.6686 115.06 31.8219 114.988 31.9029C114.916 31.981 114.786 32.0938 114.699 32.1546C114.612 32.2124 114.45 32.2963 114.337 32.3426C114.228 32.386 113.979 32.4554 113.788 32.4959C113.473 32.5653 113.38 32.5711 112.761 32.5711C112.168 32.574 112.041 32.5653 111.749 32.5074C111.567 32.4698 111.312 32.4004 111.185 32.3512C111.058 32.3021 110.901 32.2269 110.838 32.1864C110.774 32.1459 110.659 32.0533 110.583 31.981C110.505 31.9087 110.407 31.7901 110.361 31.7207C110.317 31.6484 110.257 31.5038 110.231 31.4025C110.204 31.2984 110.184 31.1162 110.184 30.9976C110.184 30.8761 110.204 30.6939 110.231 30.5926C110.254 30.4885 110.309 30.3439 110.352 30.2745C110.395 30.2022 110.471 30.098 110.52 30.046C110.569 29.991 110.685 29.8956 110.78 29.829C110.875 29.7654 111.037 29.6786 111.142 29.6381C111.246 29.5947 111.387 29.5456 111.46 29.5282C111.532 29.5109 111.717 29.4761 111.873 29.4559C112.032 29.4328 112.206 29.4067 112.264 29.398C112.324 29.3894 112.599 29.3865 112.877 29.3923ZM112.848 36.3891C113.331 36.3949 113.467 36.4094 113.788 36.4759C113.996 36.5193 114.256 36.5974 114.366 36.6466C114.479 36.6957 114.641 36.7825 114.728 36.8432C114.815 36.904 114.933 37.0081 114.991 37.0775C115.049 37.1441 115.121 37.254 115.156 37.3176C115.188 37.3812 115.237 37.5114 115.263 37.6068C115.301 37.737 115.312 37.8498 115.301 38.0696C115.289 38.3039 115.272 38.3936 115.202 38.5556C115.153 38.6742 115.06 38.8217 114.971 38.9171C114.89 39.0068 114.748 39.1283 114.653 39.1832C114.56 39.2411 114.369 39.3279 114.23 39.3799C114.092 39.4291 113.837 39.4927 113.666 39.5217C113.444 39.5564 113.183 39.5708 112.747 39.5708C112.313 39.5708 112.053 39.5564 111.83 39.5217C111.659 39.4927 111.405 39.4291 111.266 39.3799C111.127 39.3279 110.945 39.2469 110.864 39.1977C110.783 39.1485 110.661 39.0618 110.595 39.001C110.531 38.9432 110.433 38.8246 110.378 38.7407C110.323 38.6568 110.257 38.5035 110.231 38.4023C110.204 38.2981 110.184 38.1159 110.184 37.9973C110.184 37.8758 110.202 37.7023 110.225 37.6068C110.248 37.5114 110.283 37.3986 110.303 37.361C110.326 37.3205 110.369 37.2482 110.401 37.2019C110.436 37.1527 110.488 37.0833 110.52 37.0457C110.552 37.0081 110.647 36.9271 110.731 36.8635C110.815 36.8027 110.982 36.7073 111.107 36.6552C111.228 36.6003 111.46 36.528 111.619 36.4933C111.778 36.4614 111.992 36.4209 112.096 36.4065C112.2 36.392 112.538 36.3833 112.848 36.3891Z" fill="white"/>
<path fill-rule="evenodd" clip-rule="evenodd" d="M0.978333 18.1501H14.1667V24.7305C14.1667 30.553 14.1609 31.3137 14.1233 31.3253C14.1002 31.334 11.1502 31.3398 7.57253 31.3398C3.992 31.3398 1.04485 31.334 1.02172 31.3253C0.984117 31.3137 0.978333 30.553 0.978333 24.7305V18.1501Z" fill="white"/>
</svg>
