<svg width="113" height="113" viewBox="0 0 113 113" fill="none" xmlns="http://www.w3.org/2000/svg">
<path fill-rule="evenodd" clip-rule="evenodd" d="M25.4585 3.22594H17.5402V10.2645H21.0595V38.7118H27.2182V10.2645H85.8725V38.7118H92.0312V10.2645H95.5504V3.51923H87.6321V0H25.4585V3.22594Z" fill="white"/>
<path fill-rule="evenodd" clip-rule="evenodd" d="M0.233704 43.995H112.85V39.5959H0.233704V43.995Z" fill="white"/>
<path fill-rule="evenodd" clip-rule="evenodd" d="M3.75592 38.7153H19.2993V17.3064H3.75592V38.7153Z" fill="white"/>
<path fill-rule="evenodd" clip-rule="evenodd" d="M93.7897 38.7153H109.333V17.3064H93.7897V38.7153Z" fill="white"/>
<path fill-rule="evenodd" clip-rule="evenodd" d="M37.48 38.7124H40.9993V14.6641H37.48V38.7124Z" fill="white"/>
<path fill-rule="evenodd" clip-rule="evenodd" d="M58.3045 38.7124H61.8238V14.6641H58.3045V38.7124Z" fill="white"/>
<path fill-rule="evenodd" clip-rule="evenodd" d="M72.0887 38.7124H75.608V14.6641H72.0887V38.7124Z" fill="white"/>
<path fill-rule="evenodd" clip-rule="evenodd" d="M51.2621 38.7124H54.7814V14.6641H51.2621V38.7124Z" fill="white"/>
<path fill-rule="evenodd" clip-rule="evenodd" d="M44.5223 38.7124H48.0416V14.6641H44.5223V38.7124Z" fill="white"/>
<path fill-rule="evenodd" clip-rule="evenodd" d="M79.127 38.7124H82.6462V14.6641H79.127V38.7124Z" fill="white"/>
<path fill-rule="evenodd" clip-rule="evenodd" d="M30.7381 38.7124H33.9641V14.6641H30.7381V38.7124Z" fill="white"/>
<path fill-rule="evenodd" clip-rule="evenodd" d="M65.3448 38.7124H68.5708V14.6641H65.3448V38.7124Z" fill="white"/>
<path fill-rule="evenodd" clip-rule="evenodd" d="M1.99689 16.4225H19.5932V12.0234H1.99689V16.4225Z" fill="white"/>
<path fill-rule="evenodd" clip-rule="evenodd" d="M93.7897 16.4225H111.093V12.0234H93.7897V16.4225Z" fill="white"/>
<path fill-rule="evenodd" clip-rule="evenodd" d="M58.3045 13.782H61.8238V11.1426H58.3045V13.782Z" fill="white"/>
<path fill-rule="evenodd" clip-rule="evenodd" d="M37.48 13.782H40.9993V11.1426H37.48V13.782Z" fill="white"/>
<path fill-rule="evenodd" clip-rule="evenodd" d="M44.5223 13.782H48.0416V11.1426H44.5223V13.782Z" fill="white"/>
<path fill-rule="evenodd" clip-rule="evenodd" d="M72.0887 13.782H75.608V11.1426H72.0887V13.782Z" fill="white"/>
<path fill-rule="evenodd" clip-rule="evenodd" d="M79.127 13.782H82.6462V11.1426H79.127V13.782Z" fill="white"/>
<path fill-rule="evenodd" clip-rule="evenodd" d="M51.2621 13.782H54.7814V11.1426H51.2621V13.782Z" fill="white"/>
<path fill-rule="evenodd" clip-rule="evenodd" d="M65.3448 13.782H68.5708V11.1426H65.3448V13.782Z" fill="white"/>
<path fill-rule="evenodd" clip-rule="evenodd" d="M30.7381 13.782H33.9641V11.1426H30.7381V13.782Z" fill="white"/>
<path d="M10.2853 64.2439L19.6557 54.8062C19.8306 54.6178 19.9449 54.4766 20.0122 54.3689C20.0795 54.268 20.1131 54.1537 20.1131 54.0326C20.1131 53.9183 20.0526 53.8106 19.9315 53.7232C19.8171 53.629 19.6691 53.5819 19.501 53.5819H16.8035V52.4114H26.4767V53.5819H24.8622C24.0752 53.5819 23.4025 53.7097 22.8509 53.9586C22.2993 54.2075 21.5997 54.7591 20.7455 55.6134L15.2227 61.2101L26.0731 77.3141H29.2212V78.6056H15.2227V77.3141H18.4179L10.2853 65.2125V64.2439ZM0 77.3141H3.18845V53.5819H0V52.4114H13.1173V53.5819H9.8884V77.3141H13.1173V78.6056H0V77.3141ZM40.4483 77.3141H43.9529C45.7826 77.3141 46.9732 76.9575 47.5316 76.2378C48.0831 75.5247 48.359 73.8766 48.359 71.3003C48.359 68.8988 48.0293 67.2979 47.3701 66.5108C46.7109 65.7238 45.3925 65.3269 43.4013 65.3269H40.4483V77.3141ZM40.4483 64.1968H42.9506C44.861 64.1968 46.1256 63.8672 46.7243 63.2147C47.3298 62.5554 47.6325 61.1092 47.6325 58.8759C47.6325 56.4475 47.3701 54.9609 46.8387 54.4093C46.3073 53.8577 44.9283 53.5819 42.7085 53.5819H40.4483V64.1968ZM31.0845 77.3141H33.9098V53.5819H31.0845V52.3711H45.722C48.4599 52.3711 50.6124 52.9361 52.2 54.0595C53.7808 55.1829 54.5745 56.7031 54.5745 58.6203C54.5745 60.2078 53.9422 61.4993 52.6843 62.4949C51.4196 63.4838 49.5496 64.1564 47.0607 64.513V64.8493C49.8994 65.0847 52.0386 65.7507 53.4713 66.8539C54.9041 67.9503 55.6239 69.4572 55.6239 71.3743C55.6239 73.5941 54.7091 75.3566 52.8861 76.6548C51.0564 77.9531 48.5742 78.6056 45.4463 78.6056H31.0845V77.3141ZM64.9405 78.6056V77.3141H68.1693V53.5819H66.75C65.0347 53.5819 63.6759 54.1133 62.687 55.1761C61.6914 56.239 60.817 58.1292 60.0569 60.8468H59.0075L59.3237 52.3711H83.7756L84.1119 60.8468H83.0626C82.3428 58.21 81.475 56.3399 80.466 55.2367C79.4502 54.1335 78.1116 53.5819 76.4433 53.5819H74.95V77.3141H78.1789V78.6056H64.9405ZM89.1234 71.5089V53.5819H86.056V52.3711H99.1732V53.5819H95.7426V71.3743C95.7426 73.5941 96.1731 75.2153 97.0342 76.231C97.8952 77.2468 99.254 77.758 101.104 77.758C102.093 77.758 102.987 77.6167 103.788 77.341C104.588 77.0652 105.281 76.6548 105.873 76.1032C106.532 75.4978 106.997 74.7713 107.272 73.917C107.548 73.0627 107.689 71.5559 107.689 69.4034V69.0064V55.6537C107.689 54.7591 107.575 54.1873 107.353 53.9451C107.131 53.703 106.586 53.5819 105.718 53.5819H104.42V52.3711H112.735V53.5819H111.45C110.521 53.5819 109.909 53.7164 109.62 53.9923C109.331 54.268 109.183 54.8331 109.183 55.6874V69.4034C109.183 71.3743 109.089 72.7937 108.9 73.6547C108.705 74.5224 108.382 75.2691 107.925 75.9014C107.131 77.0181 106.055 77.8454 104.689 78.3904C103.324 78.9352 101.602 79.211 99.5298 79.211C96.126 79.211 93.5429 78.5518 91.7738 77.2401C90.0046 75.9283 89.1234 74.0179 89.1234 71.5089Z" fill="white"/>
<path d="M2.20764 90.8457L3.99831 89.0421C4.03173 89.0061 4.05359 88.9791 4.06648 88.9586C4.07928 88.9393 4.08576 88.9174 4.08576 88.8943C4.08576 88.8724 4.07421 88.8519 4.05101 88.8352C4.02915 88.8172 4.00089 88.8082 3.9688 88.8082H3.45329V88.5845H5.30182V88.8082H4.99332C4.84293 88.8082 4.71433 88.8326 4.60891 88.8802C4.5035 88.9277 4.36982 89.0331 4.20655 89.1964L3.15119 90.2659L5.22467 93.3435H5.8263V93.5903H3.15119V93.3435H3.7618L2.20764 91.0308V90.8457ZM0.242065 93.3435H0.851424V88.8082H0.242065V88.5845H2.74883V88.8082H2.13174V93.3435H2.74883V93.5903H0.242065V93.3435ZM6.80069 91.9242H8.16082L7.49875 90.167L6.80069 91.9242ZM5.46767 93.5903V93.3435H5.77617C5.85972 93.3435 5.92913 93.3152 5.98309 93.2599C6.03837 93.2046 6.09498 93.1044 6.15284 92.9591L7.87542 88.4765H8.1762L10.0595 93.3435H10.5043V93.5903H8.07469V93.3435H8.6853L8.24436 92.171H6.71848L6.38678 93.0272C6.37905 93.0413 6.37389 93.0658 6.37007 93.0966C6.36624 93.1275 6.36367 93.1648 6.36367 93.2072C6.36367 93.2509 6.3842 93.2844 6.42277 93.3075C6.46135 93.3319 6.51663 93.3435 6.58604 93.3435H7.03471V93.5903H5.46767ZM10.6213 93.5903V93.3036L13.164 88.8082H12.3618C12.025 88.8082 11.7538 88.902 11.5455 89.0884C11.3385 89.2761 11.1959 89.5576 11.1149 89.9343H10.8681L10.9619 88.5767H14.5627V88.7992L12.0006 93.3435H12.7874C13.2218 93.3435 13.5548 93.2342 13.7849 93.0169C14.0163 92.7997 14.2039 92.4179 14.3467 91.8703H14.5627L14.5176 93.5903H10.6213ZM16.1027 91.9242H17.4628L16.8007 90.167L16.1027 91.9242ZM14.7697 93.5903V93.3435H15.0782C15.1617 93.3435 15.2311 93.3152 15.2851 93.2599C15.3404 93.2046 15.397 93.1044 15.4548 92.9591L17.1774 88.4765H17.4782L19.3615 93.3435H19.8063V93.5903H17.3767V93.3435H17.9873L17.5464 92.171H16.0205L15.6888 93.0272C15.681 93.0413 15.6759 93.0658 15.6721 93.0966C15.6682 93.1275 15.6657 93.1648 15.6657 93.2072C15.6657 93.2509 15.6862 93.2844 15.7248 93.3075C15.7633 93.3319 15.8186 93.3435 15.888 93.3435H16.3367V93.5903H14.7697ZM22.0894 90.8457L23.88 89.0421C23.9134 89.0061 23.9353 88.9791 23.9482 88.9586C23.961 88.9393 23.9675 88.9174 23.9675 88.8943C23.9675 88.8724 23.9559 88.8519 23.9327 88.8352C23.9109 88.8172 23.8826 88.8082 23.8505 88.8082H23.335V88.5845H25.1835V88.8082H24.875C24.7246 88.8082 24.596 88.8326 24.4906 88.8802C24.3852 88.9277 24.2515 89.0331 24.0883 89.1964L23.0329 90.2659L25.1064 93.3435H25.708V93.5903H23.0329V93.3435H23.6435L22.0894 91.0308V90.8457ZM20.1238 93.3435H20.7331V88.8082H20.1238V88.5845H22.6305V88.8082H22.0135V93.3435H22.6305V93.5903H20.1238V93.3435ZM25.9947 93.5903V93.3435H26.604V88.8082H25.9947V88.5845H28.4783V88.8082H27.8767V90.8675H29.5581V88.8082H28.9565V88.5845H31.4324V88.8082H30.8231V93.3435H31.4324V93.5903H28.9565V93.3435H29.5581V91.1529H27.8767V93.3435H28.4783V93.5903H25.9947ZM36.1052 93.3435H36.775C37.1246 93.3435 37.3522 93.2753 37.4588 93.1378C37.5643 93.0015 37.617 92.6865 37.617 92.1942C37.617 91.7353 37.554 91.4293 37.428 91.279C37.302 91.1285 37.0501 91.0527 36.6696 91.0527H36.1052V93.3435ZM36.1052 90.8367H36.5834C36.9485 90.8367 37.1902 90.7737 37.3046 90.6491C37.4203 90.523 37.4781 90.2466 37.4781 89.8199C37.4781 89.3558 37.428 89.0717 37.3265 88.9663C37.2249 88.8609 36.9614 88.8082 36.5371 88.8082H36.1052V90.8367ZM34.3158 93.3435H34.8557V88.8082H34.3158V88.5767H37.1131C37.6362 88.5767 38.0477 88.6847 38.351 88.8995C38.6531 89.1141 38.8048 89.4047 38.8048 89.771C38.8048 90.0744 38.684 90.3212 38.4436 90.5115C38.2019 90.7004 37.8446 90.8289 37.3689 90.8971V90.9614C37.9114 91.0064 38.3202 91.1336 38.594 91.3445C38.8678 91.554 39.0053 91.842 39.0053 92.2084C39.0053 92.6326 38.8305 92.9694 38.4821 93.2175C38.1325 93.4656 37.6581 93.5903 37.0604 93.5903H34.3158V93.3435ZM39.7445 93.3435H40.3384V88.8082H39.7445V88.5767H42.5456C43.1228 88.5767 43.5651 88.6706 43.8723 88.8596C44.1795 89.0473 44.3338 89.3198 44.3338 89.6733C44.3338 90.0332 44.1898 90.3174 43.9006 90.5294C43.6126 90.7403 43.2013 90.8586 42.6691 90.883V90.9473C43.2141 91.0192 43.5997 91.1902 43.8247 91.4576C44.051 91.7249 44.1641 92.1518 44.1641 92.7367C44.1641 92.9771 44.1885 93.1365 44.2361 93.2136C44.2836 93.2895 44.3672 93.328 44.4881 93.328C44.5356 93.328 44.587 93.3229 44.6436 93.3113C44.7001 93.2997 44.7606 93.283 44.8261 93.2599L44.9046 93.4669C44.7387 93.5414 44.5806 93.5993 44.4289 93.6392C44.2772 93.679 44.1448 93.6983 44.0317 93.6983C43.8234 93.6983 43.6345 93.6674 43.4648 93.6044C43.2964 93.5414 43.1614 93.454 43.0611 93.3409C42.8644 93.1223 42.7564 92.7161 42.7371 92.1209C42.7346 92.0399 42.732 91.9808 42.7294 91.9397C42.714 91.5938 42.6331 91.3535 42.4852 91.2172C42.3361 91.0823 42.0867 91.0141 41.7357 91.0141H41.6033V93.3435H42.259V93.5903H39.7445V93.3435ZM41.6033 90.7673H42.2358C42.5212 90.7673 42.7153 90.7082 42.8169 90.5886C42.9184 90.4691 42.9686 90.2158 42.9686 89.8289C42.9686 89.3416 42.9261 89.0499 42.8425 88.9534C42.759 88.857 42.5572 88.8082 42.2358 88.8082H41.6033V90.7673ZM45.2117 93.5903V93.3435H45.8288V88.8082H45.2117V88.5767H47.7416V88.8082H47.1246V93.3435H47.7416V93.5903H45.2117ZM49.2367 93.5903V93.3435H49.8537V88.8082H49.5825C49.2547 88.8082 48.9951 88.9097 48.806 89.1129C48.6158 89.316 48.4487 89.6772 48.3034 90.1965H48.1029L48.1633 88.5767H52.8361L52.9005 90.1965H52.6999C52.5624 89.6926 52.3965 89.3352 52.2036 89.1244C52.0095 88.9136 51.7537 88.8082 51.4349 88.8082H51.1495V93.3435H51.7666V93.5903H49.2367ZM53.2488 93.5903V93.3435H53.8659V88.8082H53.2488V88.5767H55.7787V88.8082H55.1617V93.3435H55.7787V93.5903H53.2488ZM56.379 93.6494V92.1788H56.6722C56.8007 92.6056 56.9896 92.9282 57.2416 93.1468C57.4948 93.3653 57.8034 93.4746 58.1698 93.4746C58.4988 93.4746 58.7701 93.3872 58.9861 93.211C59.202 93.035 59.31 92.8112 59.31 92.54C59.31 92.3948 59.2843 92.2752 59.2329 92.1801C59.1814 92.0862 59.094 91.9988 58.9706 91.9191C58.8305 91.8265 58.5529 91.7314 58.1389 91.6362C57.9859 91.6016 57.8689 91.5733 57.788 91.554C57.3033 91.4306 56.9511 91.2494 56.7313 91.0115C56.5115 90.7724 56.4021 90.4524 56.4021 90.0512C56.4021 89.5807 56.5487 89.2016 56.8405 88.911C57.1336 88.6218 57.5155 88.4765 57.9885 88.4765C58.1813 88.4765 58.3613 88.5035 58.5284 88.5575C58.6955 88.6102 58.8524 88.6912 59.0015 88.7979L59.2766 88.5767H59.5183L59.5491 89.9034H59.2946C59.1969 89.5139 59.0336 89.2169 58.8048 89.0139C58.5773 88.8094 58.2919 88.7079 57.9512 88.7079C57.6684 88.7079 57.4357 88.7773 57.2532 88.9148C57.0719 89.0537 56.9807 89.2285 56.9807 89.4393C56.9807 89.7556 57.3162 89.9882 57.9859 90.1374C58.0759 90.1567 58.144 90.1721 58.1916 90.1824C58.8176 90.3277 59.2573 90.5346 59.5093 90.802C59.7625 91.0694 59.8885 91.4486 59.8885 91.9397C59.8885 92.4475 59.7278 92.8678 59.4051 93.2033C59.0825 93.5388 58.6762 93.706 58.1865 93.706C57.9371 93.706 57.7185 93.6777 57.5308 93.6211C57.3419 93.5658 57.167 93.4759 57.0038 93.3538L56.6567 93.6494H56.379ZM60.458 93.5903V93.3435H61.0674V88.8082H60.458V88.5845H62.9417V88.8082H62.34V90.8675H64.0215V88.8082H63.4198V88.5845H65.8958V88.8082H65.2864V93.3435H65.8958V93.5903H63.4198V93.3435H64.0215V91.1529H62.34V93.3435H62.9417V93.5903H60.458ZM69.751 93.5903V93.3435H70.368V88.8082H70.0968C69.769 88.8082 69.5093 88.9097 69.3203 89.1129C69.1301 89.316 68.963 89.6772 68.8177 90.1965H68.6172L68.6776 88.5767H73.3504L73.4147 90.1965H73.2141C73.0766 89.6926 72.9108 89.3352 72.7179 89.1244C72.5238 88.9136 72.268 88.8082 71.9492 88.8082H71.6638V93.3435H72.2809V93.5903H69.751ZM73.7939 93.5903V93.3435H74.4033V88.8082H73.88V88.5767H78.0592L78.0747 89.8957H77.8201C77.6491 89.4689 77.4769 89.1809 77.3008 89.0318C77.1247 88.8828 76.8689 88.8082 76.5333 88.8082H75.6682V90.8675C75.6887 90.8701 75.7119 90.8727 75.7376 90.874C75.7646 90.8753 75.7993 90.8753 75.8456 90.8753C76.1181 90.8753 76.3251 90.8033 76.4652 90.6593C76.6066 90.5153 76.6979 90.2814 76.7403 89.9574H76.9948V92.0939H76.7403C76.7133 91.7468 76.6272 91.4988 76.4845 91.3484C76.3418 91.1979 76.1181 91.1221 75.8148 91.1221H75.6682V93.3435H76.5077C76.9216 93.3435 77.2455 93.2342 77.4782 93.0157C77.7122 92.7959 77.896 92.4294 78.0284 91.9166H78.2675L78.2148 93.5903H73.7939ZM83.2669 92.0862V93.5903H83.0187L82.6794 93.3126C82.5303 93.445 82.3554 93.5453 82.1536 93.6121C81.9517 93.6802 81.7268 93.7136 81.4787 93.7136C81.1342 93.7136 80.8192 93.6468 80.5338 93.5145C80.2472 93.3807 79.9811 93.1776 79.7355 92.9038C79.4926 92.6377 79.31 92.3536 79.1905 92.0515C79.0696 91.7494 79.0092 91.4254 79.0092 91.0823C79.0092 90.7428 79.0696 90.424 79.1917 90.1232C79.3139 89.8237 79.4978 89.5397 79.7432 89.271C79.9888 89.0023 80.2575 88.8017 80.548 88.668C80.8398 88.5357 81.1573 88.4688 81.5006 88.4688C81.7114 88.4688 81.9107 88.4983 82.0996 88.5588C82.2873 88.6192 82.4686 88.7092 82.6408 88.8287L82.9133 88.5691H83.1665L83.1975 89.9574H82.9275C82.7616 89.5113 82.5662 89.1913 82.34 88.9946C82.1138 88.7979 81.8284 88.7002 81.4851 88.7002C81.0982 88.7002 80.8359 88.8275 80.6971 89.0807C80.5595 89.3339 80.4901 89.9715 80.4901 90.991C80.4901 91.5296 80.4966 91.9307 80.5094 92.1968C80.521 92.4642 80.5428 92.6557 80.5737 92.774C80.6354 93.0246 80.7395 93.2059 80.8822 93.3164C81.0249 93.427 81.2267 93.4823 81.4851 93.4823C81.8399 93.4823 82.1562 93.3524 82.4364 93.0915C82.7166 92.8319 82.8992 92.4963 82.9815 92.0862H83.2669ZM83.9546 93.5903V93.3435H84.5639V88.8082H83.9546V88.5845H86.4382V88.8082H85.8366V90.8675H87.518V88.8082H86.9164V88.5845H89.3923V88.8082H88.783V93.3435H89.3923V93.5903H86.9164V93.3435H87.518V91.1529H85.8366V93.3435H86.4382V93.5903H83.9546ZM89.8474 93.5903V93.3435H90.2356C90.3359 93.3435 90.4053 93.3216 90.4452 93.2779C90.4837 93.2342 90.503 93.1481 90.503 93.0195V89.0717C90.503 88.9637 90.4812 88.893 90.4387 88.8596C90.3963 88.8249 90.3076 88.8082 90.1713 88.8082H89.8628V88.5767H91.8927L94.0047 91.464V89.1809C94.0047 89.028 93.9816 88.9277 93.9353 88.8802C93.889 88.8326 93.7887 88.8082 93.6345 88.8082H93.3106V88.5767H94.9149V88.8082H94.6218C94.4958 88.8082 94.4097 88.8339 94.3621 88.8853C94.3146 88.9367 94.2901 89.0357 94.2901 89.1809V93.706H94.0831L90.8038 89.1964V93.0684C90.8038 93.1557 90.8282 93.2239 90.877 93.2715C90.9259 93.319 90.9966 93.3435 91.0892 93.3435H91.5365V93.5903H89.8474ZM95.3609 93.5903V93.3435H95.978V88.8082H95.3609V88.5767H97.8908V88.8082H97.2738V93.3435H97.8908V93.5903H95.3609ZM102.733 92.0862V93.5903H102.485L102.146 93.3126C101.997 93.445 101.822 93.5453 101.62 93.6121C101.418 93.6802 101.193 93.7136 100.945 93.7136C100.601 93.7136 100.286 93.6468 100 93.5145C99.7137 93.3807 99.4476 93.1776 99.2021 92.9038C98.9592 92.6377 98.7766 92.3536 98.6571 92.0515C98.5362 91.7494 98.4757 91.4254 98.4757 91.0823C98.4757 90.7428 98.5362 90.424 98.6583 90.1232C98.7804 89.8237 98.9643 89.5397 99.2098 89.271C99.4554 89.0023 99.7241 88.8017 100.015 88.668C100.306 88.5357 100.624 88.4688 100.967 88.4688C101.178 88.4688 101.377 88.4983 101.566 88.5588C101.754 88.6192 101.935 88.7092 102.107 88.8287L102.38 88.5691H102.633L102.664 89.9574H102.394C102.228 89.5113 102.033 89.1913 101.807 88.9946C101.58 88.7979 101.295 88.7002 100.952 88.7002C100.565 88.7002 100.302 88.8275 100.164 89.0807C100.026 89.3339 99.9567 89.9715 99.9567 90.991C99.9567 91.5296 99.9631 91.9307 99.9759 92.1968C99.9876 92.4642 100.009 92.6557 100.04 92.774C100.102 93.0246 100.206 93.2059 100.349 93.3164C100.491 93.427 100.693 93.4823 100.952 93.4823C101.306 93.4823 101.623 93.3524 101.903 93.0915C102.183 92.8319 102.366 92.4963 102.448 92.0862H102.733ZM104.531 91.9242H105.891L105.229 90.167L104.531 91.9242ZM103.197 93.5903V93.3435H103.506C103.59 93.3435 103.659 93.3152 103.713 93.2599C103.768 93.2046 103.825 93.1044 103.883 92.9591L105.605 88.4765H105.906L107.789 93.3435H108.234V93.5903H105.805V93.3435H106.415L105.974 92.171H104.448L104.117 93.0272C104.109 93.0413 104.104 93.0658 104.1 93.0966C104.096 93.1275 104.093 93.1648 104.093 93.2072C104.093 93.2509 104.114 93.2844 104.153 93.3075C104.191 93.3319 104.246 93.3435 104.316 93.3435H104.765V93.5903H103.197ZM108.59 93.5903V93.3435H109.107V88.8082H108.59V88.5767H111.089V88.8082H110.395V93.3435H111.126C111.539 93.3435 111.863 93.2342 112.097 93.0157C112.331 92.7959 112.514 92.4294 112.647 91.9166H112.886L112.83 93.5903H108.59Z" fill="white"/>
<path d="M1.60728 108.584V100.312H0.191956V99.7538H6.24439V100.312H4.66147V108.522C4.66147 109.546 4.86008 110.294 5.25736 110.763C5.65465 111.232 6.28164 111.468 7.13515 111.468C7.59147 111.468 8.00422 111.402 8.37357 111.275C8.74293 111.148 9.06266 110.959 9.33574 110.704C9.63993 110.425 9.85407 110.089 9.98135 109.695C10.1086 109.301 10.1738 108.606 10.1738 107.613V107.429V101.268C10.1738 100.856 10.121 100.592 10.0186 100.48C9.91617 100.368 9.66478 100.312 9.26442 100.312H8.66537V99.7538H12.5017V100.312H11.9089C11.4805 100.312 11.1981 100.375 11.0646 100.502C10.9311 100.629 10.8628 100.89 10.8628 101.284V107.613C10.8628 108.522 10.8194 109.177 10.7324 109.574C10.6425 109.975 10.4934 110.319 10.2825 110.611C9.91617 111.126 9.41954 111.508 8.78948 111.759C8.15942 112.011 7.36485 112.138 6.40891 112.138C4.83838 112.138 3.64651 111.834 2.83024 111.229C2.01388 110.623 1.60728 109.742 1.60728 108.584ZM13.3583 111.859V111.263H14.2957C14.5377 111.263 14.7053 111.21 14.8015 111.104C14.8947 110.999 14.9413 110.791 14.9413 110.481V100.949C14.9413 100.688 14.8885 100.517 14.7861 100.437C14.6836 100.353 14.4695 100.312 14.1404 100.312H13.3955V99.7538H18.2964L23.396 106.725V101.213C23.396 100.843 23.3401 100.601 23.2284 100.486C23.1166 100.371 22.8746 100.312 22.502 100.312H21.7199V99.7538H25.5935V100.312H24.8858C24.5816 100.312 24.3737 100.375 24.2588 100.499C24.144 100.623 24.085 100.862 24.085 101.213V112.138H23.5853L15.6675 101.25V110.598C15.6675 110.81 15.7264 110.974 15.8444 111.089C15.9624 111.204 16.133 111.263 16.3566 111.263H17.4366V111.859H13.3583ZM26.6705 111.859V111.263H28.1603V100.312H26.6705V99.7538H32.7788V100.312H31.2889V111.263H32.7788V111.859H26.6705ZM39.3371 112.138L34.4734 100.312H33.4461V99.7538H39.1478V100.312H37.7479L40.8393 107.805L43.0554 101.523C43.1299 101.334 43.1827 101.175 43.2168 101.048C43.2509 100.921 43.2665 100.818 43.2665 100.741C43.2665 100.576 43.2075 100.465 43.0896 100.402C42.9716 100.344 42.7171 100.312 42.3291 100.312H41.5842V99.7538H45.4391V100.312H44.9208C44.6105 100.312 44.3683 100.396 44.1945 100.564C44.0176 100.728 43.8313 101.095 43.6389 101.656L39.8926 112.138H39.3371ZM46.1499 111.859V111.263H47.6212V100.312H46.3579V99.7538H56.4483L56.4856 102.938H55.871C55.4582 101.908 55.0423 101.213 54.6171 100.853C54.1919 100.493 53.5742 100.312 52.7641 100.312H50.6753V105.285C50.7249 105.291 50.7808 105.297 50.8429 105.3C50.9081 105.303 50.9918 105.303 51.1036 105.303C51.7616 105.303 52.2613 105.13 52.5996 104.782C52.941 104.434 53.1614 103.869 53.2638 103.087H53.8784V108.246H53.2638C53.1987 107.408 52.9907 106.809 52.6462 106.446C52.3017 106.082 51.7616 105.899 51.0291 105.899H50.6753V111.263H52.702C53.7015 111.263 54.4836 110.999 55.0454 110.471C55.6103 109.94 56.0542 109.056 56.3738 107.817H56.9512L56.8239 111.859H46.1499ZM58.4254 111.263H59.8595V100.312H58.4254V99.7538H65.1887C66.5823 99.7538 67.6499 99.9803 68.3917 100.437C69.1335 100.89 69.506 101.548 69.506 102.401C69.506 103.27 69.1584 103.956 68.4601 104.468C67.7648 104.977 66.7716 105.263 65.4866 105.322V105.477C66.8026 105.651 67.7337 106.064 68.2769 106.709C68.8232 107.355 69.0963 108.385 69.0963 109.798C69.0963 110.378 69.1553 110.763 69.2701 110.949C69.385 111.132 69.5867 111.225 69.8785 111.225C69.9933 111.225 70.1175 111.213 70.2541 111.185C70.3906 111.157 70.5365 111.117 70.6948 111.061L70.8841 111.561C70.4838 111.741 70.1019 111.88 69.7357 111.977C69.3695 112.073 69.0497 112.119 68.7766 112.119C68.2739 112.119 67.8175 112.045 67.4079 111.893C67.0013 111.741 66.6754 111.53 66.4332 111.256C65.9584 110.729 65.6977 109.748 65.6511 108.311C65.6449 108.115 65.6387 107.973 65.6325 107.873C65.5953 107.038 65.3997 106.458 65.0428 106.129C64.6827 105.803 64.0806 105.639 63.2332 105.639H62.9136V111.263H64.4965V111.859H58.4254V111.263ZM62.9136 105.043H64.4406C65.1296 105.043 65.5983 104.9 65.8436 104.611C66.0887 104.323 66.2098 103.711 66.2098 102.777C66.2098 101.601 66.1073 100.896 65.9056 100.663C65.7039 100.43 65.2166 100.312 64.4406 100.312H62.9136V105.043ZM72.0543 112.001V108.451H72.7619C73.0723 109.481 73.5286 110.26 74.1369 110.788C74.7484 111.315 75.4933 111.579 76.3778 111.579C77.1724 111.579 77.8273 111.368 78.3487 110.943C78.8702 110.518 79.1309 109.978 79.1309 109.323C79.1309 108.972 79.0688 108.683 78.9447 108.454C78.8205 108.227 78.6095 108.016 78.3115 107.824C77.9732 107.6 77.3027 107.371 76.3033 107.141C75.934 107.057 75.6516 106.989 75.4561 106.942C74.2859 106.644 73.4354 106.207 72.9047 105.632C72.3739 105.055 72.1102 104.282 72.1102 103.314C72.1102 102.178 72.464 101.262 73.1685 100.561C73.8762 99.8624 74.798 99.5117 75.9402 99.5117C76.4058 99.5117 76.8403 99.5769 77.2438 99.7072C77.6473 99.8345 78.026 100.03 78.386 100.288L79.0502 99.7538H79.6337L79.7082 102.957H79.0937C78.8577 102.016 78.4636 101.299 77.9111 100.809C77.3618 100.316 76.6727 100.07 75.8502 100.07C75.1673 100.07 74.6056 100.238 74.1649 100.57C73.7272 100.905 73.5069 101.327 73.5069 101.836C73.5069 102.6 74.3169 103.162 75.934 103.522C76.1513 103.568 76.3158 103.606 76.4306 103.63C77.9421 103.981 79.0036 104.481 79.612 105.126C80.2234 105.772 80.5276 106.688 80.5276 107.873C80.5276 109.099 80.1396 110.114 79.3606 110.924C78.5816 111.734 77.6008 112.138 76.4182 112.138C75.8161 112.138 75.2884 112.07 74.8352 111.933C74.379 111.8 73.9568 111.582 73.5627 111.287L72.7247 112.001H72.0543ZM81.8281 111.859V111.263H83.3179V100.312H81.8281V99.7538H87.9364V100.312H86.4465V111.263H87.9364V111.859H81.8281ZM91.546 111.859V111.263H93.0359V100.312H92.381C91.5895 100.312 90.9625 100.558 90.5063 101.048C90.0469 101.538 89.6435 102.411 89.2927 103.665H88.8085L88.9544 99.7538H100.237L100.392 103.665H99.9077C99.5756 102.448 99.1752 101.585 98.7096 101.076C98.2409 100.567 97.6233 100.312 96.8535 100.312H96.1645V111.263H97.6543V111.859H91.546ZM103.989 111.859V111.263H105.479V106.107L101.941 100.312H100.749V99.7538H106.845V100.312H105.352L108.316 105.232L110.399 101.321C110.495 101.135 110.563 100.992 110.603 100.899C110.641 100.806 110.662 100.728 110.662 100.666C110.662 100.545 110.61 100.455 110.507 100.399C110.405 100.34 110.25 100.312 110.042 100.312H108.999V99.7538H112.91V100.312H112.41C112.087 100.312 111.826 100.393 111.621 100.558C111.42 100.722 111.171 101.076 110.88 101.622L108.608 105.868V111.263H110.097V111.859H103.989Z" fill="white"/>
</svg>
