<svg width="181" height="45" viewBox="0 0 181 45" fill="none" xmlns="http://www.w3.org/2000/svg">
<path d="M34.6429 32.3439L30.8567 37.6359L19.3268 20.5587L19.19 20.3561L19.052 20.5578L10.1922 33.5141L10.0031 33.7908H10.3292H15.4881H15.5738L15.6243 33.7186L19.0709 28.7861L22.0115 33.3769L17.6464 39.5102H7.63763H0L19.1895 11.2738L30.7157 28.1145L30.8498 28.3104L30.9877 28.1175L34.7715 22.8293L41.9284 33.8305L41.9785 33.9075H42.0677H47.6752H47.9967L47.8134 33.6327L35.1404 14.6067L35.0081 14.4079L34.8679 14.6009L30.8554 20.1315L27.8074 15.7558L35.0009 5.20605L58.1193 39.7437H39.912L34.9157 32.3478L34.7818 32.1499L34.6429 32.3439Z" fill="white"/>
<path d="M68.5362 0.696694C68.5362 0.311921 68.2849 0 67.975 0C67.6651 0 67.4138 0.311921 67.4138 0.696694V43.8917C67.4138 44.2765 67.6651 44.5884 67.975 44.5884C68.2849 44.5884 68.5362 44.2765 68.5362 43.8917V0.696694Z" fill="white"/>
<path fill-rule="evenodd" clip-rule="evenodd" d="M82.4124 16.7652H82.4884H88.7688H88.8449L88.8729 16.8385L90.415 20.8503H94.6552L90.1243 9.80968L85.8538 0.237305L76.8308 20.8503H80.8422L82.3843 16.8385L82.4124 16.7652ZM85.7398 8.7998L83.8911 13.5028H87.4858L85.7398 8.7998Z" fill="white"/>
<path fill-rule="evenodd" clip-rule="evenodd" d="M141.851 16.7652H141.927H148.208H148.284L148.312 16.8385L149.854 20.8503H154.094L149.563 9.80968L145.293 0.237305L136.27 20.8503H140.281L141.823 16.8385L141.851 16.7652ZM145.179 8.7998L143.33 13.5028H146.925L145.179 8.7998Z" fill="white"/>
<path fill-rule="evenodd" clip-rule="evenodd" d="M99.0137 39.8705H99.0897H105.37H105.446L105.474 39.9438L107.016 43.9556H111.256L106.726 32.9149L102.455 23.3428L93.4322 43.9556H97.4436L98.9856 39.9438L99.0137 39.8705ZM102.341 31.9053L100.492 36.6083H104.087L102.341 31.9053Z" fill="white"/>
<path d="M101.334 16.7616H110.194V20.8467H101.334H97.4087V1.00488H101.222V16.6449V16.7616H101.334Z" fill="white"/>
<path d="M123.557 14.2605L123.646 14.3927L123.739 14.2625L133.63 0.308594V20.8461H129.929V11.392V11.0278L129.725 11.3242L123.645 20.1831L117.793 12.2546L117.592 11.9822V12.3257V20.8461H114.116V0.321923L123.557 14.2605Z" fill="white"/>
<path d="M117.706 39.871H126.566V43.9561H117.706H113.781V24.1143H117.594V39.7543V39.871H117.706Z" fill="white"/>
<path d="M134.304 39.871H143.164V43.9561H134.304H130.379V24.1143H134.192V39.7543V39.871H134.304Z" fill="white"/>
<path d="M86.8613 35.0107L90.8712 24.1143H94.8855L86.4201 44.5945L77.9548 24.1143H82.0851L86.6539 35.0156L86.7633 35.277L86.8613 35.0107Z" fill="white"/>
<path d="M146.975 43.8426V24.1143H150.9H160.209V27.8492H150.9H150.788V27.9659V31.8176V31.9343H150.9H158.975V35.6692H150.9H150.788V35.7859V39.871V39.9877H150.9H160.545V43.8408L150.901 43.9561L146.975 43.8426Z" fill="white"/>
<path d="M171.417 32.9196L175.587 24.1143H180.1L173.261 37.4818L173.248 37.5075V37.5367V43.9561H169.271V37.5367V37.507L169.257 37.4811L162.307 24.1143H166.707L171.217 32.9229L171.32 33.1238L171.417 32.9196Z" fill="white"/>
</svg>
