<svg width="40" height="40" viewBox="0 0 40 40" fill="none" xmlns="http://www.w3.org/2000/svg">
<path d="M15.0933 27.6533C14.9384 27.5996 14.7744 27.5772 14.6108 27.5875C14.4472 27.5978 14.2872 27.6406 14.1403 27.7133C13.9934 27.7861 13.8624 27.8874 13.7551 28.0113C13.6477 28.1352 13.5661 28.2792 13.515 28.435C12.485 31.5133 9.15665 32.4667 7.23499 32.7633C7.53165 30.8417 8.48498 27.5133 11.5617 26.4817C11.7299 26.4405 11.8877 26.3649 12.0251 26.2595C12.1625 26.1542 12.2766 26.0214 12.36 25.8696C12.4434 25.7179 12.4944 25.5505 12.5097 25.378C12.525 25.2055 12.5043 25.0317 12.449 24.8677C12.3936 24.7036 12.3047 24.5528 12.188 24.4249C12.0713 24.297 11.9292 24.1947 11.7709 24.1246C11.6126 24.0544 11.4414 24.018 11.2683 24.0175C11.0951 24.017 10.9237 24.0524 10.765 24.1217C8.20332 24.9667 6.32832 26.9967 5.32832 29.9817C4.88533 31.3242 4.64327 32.7249 4.60999 34.1383C4.60999 34.4698 4.74168 34.7878 4.9761 35.0222C5.21052 35.2566 5.52846 35.3883 5.85999 35.3883C7.2728 35.3548 8.67292 35.1127 10.015 34.67C13 33.67 15.0317 31.795 15.875 29.2316C15.929 29.0768 15.9515 28.9127 15.9413 28.749C15.9311 28.5853 15.8884 28.4253 15.8156 28.2783C15.7428 28.1314 15.6414 28.0004 15.5174 27.8931C15.3934 27.7857 15.2492 27.7042 15.0933 27.6533Z" fill="white"/>
<path d="M35.5616 6.52998C35.4886 6.00059 35.2445 5.50958 34.8666 5.13169C34.4887 4.7538 33.9977 4.50974 33.4683 4.43665C31.7016 4.16998 27.125 4.04665 22.6566 8.51498L21.25 9.90498H11.6716C11.0094 9.91014 10.3754 10.1739 9.90498 10.64L4.86165 15.7033C4.54172 16.0214 4.31449 16.4207 4.20437 16.8582C4.09426 17.2957 4.10542 17.755 4.23665 18.1867C4.367 18.6212 4.61317 19.0122 4.94876 19.3175C5.28435 19.6229 5.69672 19.8311 6.14165 19.92L12.3133 21.155L18.8466 27.6883L20.08 33.8583C20.1686 34.3036 20.3767 34.7163 20.6821 35.0522C20.9874 35.3881 21.3785 35.6345 21.8133 35.765C22.0466 35.84 22.2883 35.8766 22.5333 35.875C22.862 35.8782 23.188 35.8149 23.4916 35.6889C23.7952 35.5629 24.0702 35.3767 24.3 35.1416L29.3617 30.0917C29.8283 29.6231 30.0917 28.9896 30.095 28.3283V18.75L31.4867 17.3433C35.9533 12.875 35.8283 8.29665 35.5616 6.52998ZM11.6716 12.405H18.75L12.5166 18.64L6.62498 17.4683L11.6716 12.405ZM27.5933 28.3283L22.5317 33.375L21.36 27.4833L27.5933 21.25V28.3283Z" fill="white"/>
</svg>
