<svg width="40" height="40" viewBox="0 0 40 40" fill="none" xmlns="http://www.w3.org/2000/svg">
<path d="M28.125 32.75C28.9908 32.3711 29.8265 31.9271 30.625 31.4217V37.5C30.625 37.8315 30.4933 38.1495 30.2589 38.3839C30.0245 38.6183 29.7065 38.75 29.375 38.75C29.0435 38.75 28.7255 38.6183 28.4911 38.3839C28.2567 38.1495 28.125 37.8315 28.125 37.5V32.75ZM18.8917 14.405C18.7403 14.7003 18.7093 15.0429 18.8054 15.3606C18.9014 15.6783 19.117 15.9463 19.4067 16.1083L26.7167 20L29.3733 18.5783L20.5917 13.89C20.2963 13.7392 19.954 13.7088 19.6366 13.8052C19.3193 13.9015 19.0517 14.1171 18.89 14.4067L18.8917 14.405ZM39.3433 13.89L20.5933 3.89C20.4091 3.79801 20.2059 3.75012 20 3.75012C19.794 3.75012 19.5909 3.79801 19.4067 3.89L0.656662 13.89C0.458275 13.9994 0.292865 14.16 0.177669 14.3551C0.0624733 14.5502 0.00170898 14.7726 0.00170898 14.9992C0.00170898 15.2257 0.0624733 15.4481 0.177669 15.6432C0.292865 15.8383 0.458275 15.9989 0.656662 16.1083L4.375 18.0783V25.8583C4.37248 26.3946 4.54838 26.9164 4.87499 27.3417C6.10833 29 10.8583 34.375 20 34.375C22.7929 34.398 25.5601 33.8389 28.125 32.7333V20.75L26.7167 20L20.0017 23.5783L6.21666 16.2333L3.90666 15L20 6.42167L36.0933 15L33.7817 16.2333L29.3733 18.5783L29.9683 18.89C30.18 19.0117 30.3533 19.19 30.4683 19.4067C30.5723 19.587 30.6264 19.7918 30.625 20V31.4217C32.3516 30.3354 33.8747 28.9551 35.125 27.3433C35.4517 26.9183 35.6283 26.395 35.625 25.86V18.0767L39.3433 16.11C39.5421 16.0007 39.7079 15.8401 39.8234 15.6448C39.9389 15.4495 39.9998 15.2269 39.9998 15C39.9998 14.7731 39.9389 14.5505 39.8234 14.3552C39.7079 14.1599 39.5421 13.9993 39.3433 13.89Z" fill="white"/>
</svg>
