<svg width="136" height="26" viewBox="0 0 136 26" fill="none" xmlns="http://www.w3.org/2000/svg">
<g>
<path d="M61.7095 16.4593C60.5701 16.4593 59.5542 16.2122 58.6619 15.718C57.7833 15.21 57.09 14.5168 56.5821 13.6382C56.0742 12.7596 55.8202 11.7643 55.8202 10.6523V3.17736C55.8202 2.40402 56.4471 1.7771 57.2205 1.7771C57.9938 1.7771 58.6207 2.40402 58.6207 3.17736V10.7347C58.6207 11.3799 58.7511 11.9359 59.012 12.4026C59.2865 12.8694 59.6572 13.2332 60.1239 13.494C60.6044 13.7411 61.133 13.8647 61.7095 13.8647C62.2998 13.8647 62.8215 13.7411 63.2745 13.494C63.7276 13.2332 64.0845 12.8694 64.3453 12.4026C64.6199 11.9359 64.7572 11.3868 64.7572 10.7553V3.18766C64.7572 2.40863 65.3887 1.7771 66.1677 1.7771C66.9468 1.7771 67.5783 2.40863 67.5783 3.18766V10.6729C67.5783 11.7849 67.3243 12.7802 66.8164 13.6587C66.3084 14.5236 65.6152 15.21 64.7366 15.718C63.8717 16.2122 62.8627 16.4593 61.7095 16.4593Z" fill="white"/>
<path d="M77.6847 16.2534C76.9398 16.2534 76.3359 15.6495 76.3359 14.9046V10.5493C76.3359 9.95903 76.1506 9.47855 75.7799 9.10789C75.4092 8.73723 74.9288 8.5519 74.3385 8.5519C73.9541 8.5519 73.6109 8.63427 73.3088 8.79901C73.0068 8.96375 72.7666 9.19712 72.5881 9.49914C72.5511 9.5671 72.5182 9.6375 72.4894 9.71032C72.3455 10.0751 71.9268 10.3382 71.5774 10.1601C71.4015 10.0704 71.2884 9.88942 71.3004 9.69237C71.34 9.04379 71.5015 8.47144 71.785 7.97533C72.1282 7.38502 72.595 6.92513 73.1853 6.59565C73.7893 6.26618 74.4689 6.10144 75.2239 6.10144C75.9515 6.10144 76.6036 6.28677 77.1802 6.65743C77.7567 7.01436 78.2098 7.48798 78.5392 8.07829C78.8687 8.65487 79.0335 9.27949 79.0335 9.95217V14.9046C79.0335 15.6495 78.4296 16.2534 77.6847 16.2534ZM70.9922 16.2534C70.2473 16.2534 69.6435 15.6495 69.6435 14.9046V7.65615C69.6435 6.91124 70.2473 6.30736 70.9922 6.30736C71.7371 6.30736 72.341 6.91124 72.341 7.65615V14.9046C72.341 15.6495 71.7371 16.2534 70.9922 16.2534Z" fill="white"/>
<path d="M82.1536 16.2534C81.403 16.2534 80.7946 15.6449 80.7946 14.8943V7.66644C80.7946 6.91585 81.403 6.30736 82.1536 6.30736C82.9042 6.30736 83.5127 6.91585 83.5127 7.66644V14.8943C83.5127 15.6449 82.9042 16.2534 82.1536 16.2534Z" fill="white"/>
<path d="M88.9397 16.2534C88.2517 16.2534 87.6939 15.6956 87.6939 15.0075C87.6939 14.3195 88.2517 13.7617 88.9397 13.7617H91.3799C92.3134 13.7617 93.1302 13.5695 93.8303 13.1851C94.5305 12.787 95.0727 12.231 95.4571 11.5172C95.8552 10.8033 96.0543 9.95903 96.0543 8.98434C96.0543 8.0371 95.8552 7.21342 95.4571 6.51329C95.059 5.79943 94.5099 5.2503 93.8097 4.86592C93.1096 4.4678 92.2997 4.26875 91.3799 4.26875H88.8779C88.1899 4.26875 87.6321 3.71097 87.6321 3.02292C87.6321 2.33487 88.1899 1.7771 88.8779 1.7771H91.4211C92.4919 1.7771 93.4803 1.95556 94.3863 2.31249C95.3061 2.66942 96.1023 3.17736 96.775 3.83631C97.4614 4.48153 97.9899 5.24344 98.3606 6.12204C98.745 7.00063 98.9372 7.9616 98.9372 9.00493C98.9372 10.0483 98.745 11.0161 98.3606 11.9084C97.9899 12.787 97.4683 13.5558 96.7956 14.2147C96.1229 14.86 95.3267 15.361 94.4069 15.718C93.5009 16.0749 92.5193 16.2534 91.4622 16.2534H88.9397ZM87.1791 16.2534C86.4057 16.2534 85.7788 15.6264 85.7788 14.8531V3.17736C85.7788 2.40402 86.4057 1.7771 87.1791 1.7771C87.9524 1.7771 88.5793 2.40402 88.5793 3.17736V14.8531C88.5793 15.6264 87.9524 16.2534 87.1791 16.2534Z" fill="white"/>
<path d="M105.137 16.4593C104.135 16.4593 103.229 16.2328 102.419 15.7797C101.622 15.313 100.984 14.6884 100.504 13.9059C100.037 13.1096 99.8035 12.2242 99.8035 11.2495C99.8035 10.2748 100.037 9.40305 100.504 8.63427C100.97 7.85177 101.609 7.23401 102.419 6.78098C103.229 6.31423 104.128 6.08085 105.116 6.08085C106.132 6.08085 107.038 6.31423 107.834 6.78098C108.644 7.23401 109.283 7.85177 109.749 8.63427C110.216 9.40305 110.45 10.2748 110.45 11.2495C110.45 12.2242 110.216 13.1096 109.749 13.9059C109.283 14.6884 108.644 15.313 107.834 15.7797C107.038 16.2328 106.139 16.4593 105.137 16.4593ZM105.116 13.947C105.624 13.947 106.07 13.8372 106.455 13.6176C106.853 13.3842 107.155 13.0684 107.361 12.6703C107.58 12.2585 107.69 11.7917 107.69 11.2701C107.69 10.7484 107.58 10.2885 107.361 9.89039C107.141 9.49228 106.839 9.1834 106.455 8.96375C106.07 8.73037 105.624 8.61368 105.116 8.61368C104.622 8.61368 104.183 8.73037 103.798 8.96375C103.414 9.1834 103.112 9.49228 102.892 9.89039C102.673 10.2885 102.563 10.7484 102.563 11.2701C102.563 11.7917 102.673 12.2585 102.892 12.6703C103.112 13.0684 103.414 13.3842 103.798 13.6176C104.183 13.8372 104.622 13.947 105.116 13.947Z" fill="white"/>
<path d="M113.123 16.2534C112.378 16.2534 111.774 15.6495 111.774 14.9046V7.65615C111.774 6.91124 112.378 6.30736 113.123 6.30736C113.868 6.30736 114.472 6.91124 114.472 7.65615V14.9046C114.472 15.6495 113.868 16.2534 113.123 16.2534ZM114.598 9.81243C114.476 10.202 114.017 10.4521 113.678 10.2257C113.52 10.1208 113.432 9.93708 113.458 9.74968C113.608 8.67209 113.952 7.81294 114.493 7.17223C115.083 6.45837 115.934 6.10144 117.046 6.10144C117.526 6.10144 117.959 6.18381 118.343 6.34855C118.399 6.37038 118.454 6.39437 118.508 6.42051C119.09 6.70155 119.076 7.47495 118.651 7.96206L118.148 8.53781C117.912 8.80889 117.486 8.80177 117.149 8.67546C116.943 8.59309 116.703 8.5519 116.428 8.5519C115.852 8.5519 115.378 8.73723 115.007 9.10789C114.824 9.29175 114.687 9.52659 114.598 9.81243Z" fill="white"/>
<path d="M121.238 16.2534C120.493 16.2534 119.889 15.6495 119.889 14.9046V7.65615C119.889 6.91124 120.493 6.30736 121.238 6.30736C121.983 6.30736 122.587 6.91124 122.587 7.65615V14.9046C122.587 15.6495 121.983 16.2534 121.238 16.2534ZM127.724 16.2534C126.979 16.2534 126.376 15.6495 126.376 14.9046V10.3846C126.376 9.80802 126.19 9.36186 125.82 9.04612C125.463 8.71664 125.016 8.5519 124.481 8.5519C124.124 8.5519 123.802 8.62741 123.513 8.77842C123.225 8.9157 122.998 9.12162 122.834 9.39618C122.801 9.45002 122.772 9.50597 122.746 9.56403C122.588 9.91871 122.179 10.1849 121.83 10.0139C121.65 9.9257 121.534 9.74253 121.547 9.54256C121.588 8.91051 121.749 8.35378 122.031 7.87237C122.374 7.30951 122.834 6.87708 123.41 6.57506C123.987 6.25932 124.639 6.10144 125.367 6.10144C126.053 6.10144 126.678 6.25932 127.24 6.57506C127.803 6.87708 128.249 7.30951 128.579 7.87237C128.908 8.42149 129.073 9.0873 129.073 9.8698V14.9046C129.073 15.6495 128.469 16.2534 127.724 16.2534ZM134.211 16.2534C133.466 16.2534 132.862 15.6495 132.862 14.9046V10.3846C132.862 9.80802 132.677 9.36186 132.306 9.04612C131.949 8.71664 131.503 8.5519 130.968 8.5519C130.624 8.5519 130.302 8.62741 130 8.77842C129.711 8.9157 129.485 9.12162 129.32 9.39618C129.307 9.41863 129.294 9.44145 129.281 9.46464C129.053 9.89327 128.619 10.2756 128.147 10.1622C127.79 10.0766 127.54 9.74424 127.609 9.38404C127.712 8.84973 127.898 8.37329 128.167 7.95473C128.538 7.36443 129.025 6.9114 129.629 6.59565C130.233 6.26618 130.906 6.10144 131.647 6.10144C132.388 6.10144 133.054 6.25932 133.645 6.57506C134.235 6.87708 134.702 7.31638 135.045 7.89296C135.388 8.46954 135.56 9.15594 135.56 9.95217V14.9046C135.56 15.6495 134.956 16.2534 134.211 16.2534Z" fill="white"/>
<path d="M82.1519 0.54541C82.1519 1.97153 80.9958 3.12763 79.5697 3.12763C80.9958 3.12763 82.1519 4.28372 82.1519 5.70984C82.1519 4.28372 83.308 3.12763 84.7341 3.12763C83.308 3.12763 82.1519 1.97153 82.1519 0.54541Z" fill="white"/>
<path d="M55.6871 24.0708V19.2437H56.341V24.0708H55.6871ZM56.1323 24.0708V23.4726H58.9006V24.0708H56.1323ZM56.1323 21.8868V21.3164H58.6711V21.8868H56.1323ZM56.1323 19.8418V19.2437H58.8658V19.8418H56.1323Z" fill="white"/>
<path d="M61.0224 24.1403C60.721 24.1403 60.4474 24.0662 60.2017 23.9178C59.9559 23.7647 59.7611 23.5584 59.6174 23.2987C59.4783 23.0391 59.4087 22.7469 59.4087 22.4223C59.4087 22.0977 59.4783 21.8056 59.6174 21.5459C59.7611 21.2863 59.9536 21.0799 60.1947 20.9269C60.4405 20.7739 60.7164 20.6974 61.0224 20.6974C61.2728 20.6974 61.4954 20.7507 61.6901 20.8573C61.8895 20.9593 62.0495 21.1031 62.1701 21.2886C62.2906 21.4694 62.3579 21.6804 62.3718 21.9215V22.9162C62.3579 23.1527 62.2906 23.3636 62.1701 23.5491C62.0541 23.7346 61.8965 23.8807 61.6971 23.9873C61.5023 24.0893 61.2774 24.1403 61.0224 24.1403ZM61.1267 23.5491C61.4374 23.5491 61.6878 23.4448 61.8779 23.2361C62.0681 23.0228 62.1631 22.7516 62.1631 22.4223C62.1631 22.1951 62.1191 21.998 62.031 21.8311C61.9475 21.6595 61.8269 21.5274 61.6693 21.4346C61.5116 21.3373 61.3285 21.2886 61.1198 21.2886C60.9111 21.2886 60.7256 21.3373 60.5633 21.4346C60.4057 21.532 60.2805 21.6665 60.1877 21.8381C60.0996 22.005 60.0556 22.1974 60.0556 22.4154C60.0556 22.638 60.0996 22.835 60.1877 23.0066C60.2805 23.1735 60.408 23.3057 60.5703 23.4031C60.7326 23.5004 60.9181 23.5491 61.1267 23.5491ZM62.1214 24.0708V23.1805L62.2396 22.3736L62.1214 21.5738V20.7669H62.7543V24.0708H62.1214Z" fill="white"/>
<path d="M64.716 24.1403C64.5305 24.1403 64.3543 24.1172 64.1874 24.0708C64.0251 24.0198 63.8744 23.9502 63.7353 23.8621C63.5962 23.7694 63.4756 23.6604 63.3736 23.5352L63.777 23.1318C63.8976 23.2802 64.0367 23.3915 64.1943 23.4657C64.352 23.5352 64.5282 23.57 64.723 23.57C64.9177 23.57 65.0684 23.5375 65.1751 23.4726C65.2817 23.4031 65.3351 23.308 65.3351 23.1874C65.3351 23.0669 65.291 22.9741 65.2029 22.9092C65.1194 22.8397 65.0105 22.784 64.876 22.7423C64.7415 22.6959 64.5978 22.6519 64.4447 22.6101C64.2964 22.5638 64.1549 22.5058 64.0205 22.4362C63.886 22.3667 63.7747 22.2716 63.6866 22.1511C63.6031 22.0305 63.5614 21.8705 63.5614 21.6711C63.5614 21.4717 63.6101 21.3002 63.7075 21.1564C63.8048 21.008 63.9393 20.8944 64.1109 20.8156C64.2871 20.7368 64.4981 20.6974 64.7438 20.6974C65.0035 20.6974 65.233 20.7437 65.4324 20.8365C65.6365 20.9246 65.8034 21.059 65.9332 21.2399L65.5298 21.6433C65.4371 21.5227 65.3211 21.43 65.182 21.3651C65.0476 21.3002 64.8945 21.2677 64.723 21.2677C64.5421 21.2677 64.403 21.3002 64.3056 21.3651C64.2129 21.4254 64.1665 21.5112 64.1665 21.6224C64.1665 21.7337 64.2083 21.8195 64.2917 21.8798C64.3752 21.9401 64.4842 21.9911 64.6186 22.0328C64.7577 22.0746 64.9015 22.1186 65.0499 22.165C65.1983 22.2067 65.3397 22.2647 65.4742 22.3389C65.6086 22.4131 65.7176 22.5128 65.8011 22.638C65.8892 22.7632 65.9332 22.9278 65.9332 23.1318C65.9332 23.4425 65.8219 23.6882 65.5994 23.8691C65.3814 24.0499 65.087 24.1403 64.716 24.1403Z" fill="white"/>
<path d="M67.7191 24.0986L66.2863 20.7669H66.9818L68.046 23.3752H67.8234L68.9433 20.7669H69.6388L68.0947 24.0986H67.7191ZM66.7732 25.4549L67.7469 23.4587L68.0947 24.0986L67.4687 25.4549H66.7732Z" fill="white"/>
<path d="M71.765 24.0708V19.2437H72.2241L74.269 22.6032H73.956L76.0009 19.2437H76.46V24.0708H75.8062V20.3913L75.9592 20.433L74.3455 23.0831H73.8864L72.2728 20.433L72.4188 20.3913V24.0708H71.765Z" fill="white"/>
<path d="M78.9978 24.1403C78.6732 24.1403 78.3811 24.0638 78.1214 23.9108C77.8618 23.7578 77.6554 23.5514 77.5024 23.2918C77.3494 23.0275 77.2729 22.733 77.2729 22.4084C77.2729 22.0885 77.3494 21.801 77.5024 21.5459C77.6554 21.2863 77.8618 21.0799 78.1214 20.9269C78.3811 20.7739 78.6732 20.6974 78.9978 20.6974C79.3178 20.6974 79.6076 20.7739 79.8673 20.9269C80.1316 21.0753 80.3403 21.2793 80.4933 21.539C80.6463 21.7987 80.7228 22.0885 80.7228 22.4084C80.7228 22.733 80.6463 23.0275 80.4933 23.2918C80.3403 23.5514 80.1316 23.7578 79.8673 23.9108C79.6076 24.0638 79.3178 24.1403 78.9978 24.1403ZM78.9978 23.5352C79.2065 23.5352 79.392 23.4865 79.5543 23.3891C79.7166 23.2918 79.8441 23.1596 79.9368 22.9927C80.0296 22.8211 80.0759 22.6264 80.0759 22.4084C80.0759 22.1951 80.0273 22.005 79.9299 21.8381C79.8371 21.6711 79.7096 21.5413 79.5473 21.4486C79.3897 21.3512 79.2065 21.3025 78.9978 21.3025C78.7892 21.3025 78.6037 21.3512 78.4414 21.4486C78.2791 21.5413 78.1516 21.6711 78.0588 21.8381C77.9661 22.005 77.9197 22.1951 77.9197 22.4084C77.9197 22.6264 77.9661 22.8211 78.0588 22.9927C78.1516 23.1596 78.2791 23.2918 78.4414 23.3891C78.6037 23.4865 78.7892 23.5352 78.9978 23.5352Z" fill="white"/>
<path d="M82.4328 24.0708L80.9165 20.7669H81.6121L82.8293 23.5561H82.4259L83.6501 20.7669H84.3178L82.8015 24.0708H82.4328Z" fill="white"/>
<path d="M86.2527 24.1403C85.9235 24.1403 85.6267 24.0662 85.3624 23.9178C85.0981 23.7647 84.8894 23.5584 84.7364 23.2987C84.5834 23.0391 84.5069 22.7446 84.5069 22.4154C84.5069 22.0908 84.5811 21.7987 84.7295 21.539C84.8825 21.2793 85.0865 21.0753 85.3416 20.9269C85.6012 20.7739 85.891 20.6974 86.211 20.6974C86.517 20.6974 86.786 20.7669 87.0178 20.906C87.2543 21.0451 87.4375 21.2376 87.5673 21.4833C87.7018 21.7291 87.769 22.0073 87.769 22.318C87.769 22.3644 87.7667 22.4154 87.7621 22.471C87.7574 22.522 87.7482 22.5823 87.7343 22.6519H84.9451V22.1302H87.4004L87.1709 22.3319C87.1709 22.1093 87.1314 21.9215 87.0526 21.7685C86.9738 21.6109 86.8625 21.4903 86.7187 21.4068C86.575 21.3187 86.4011 21.2747 86.1971 21.2747C85.9838 21.2747 85.796 21.321 85.6337 21.4138C85.4714 21.5065 85.3462 21.6364 85.2581 21.8033C85.17 21.9702 85.1259 22.1673 85.1259 22.3945C85.1259 22.6264 85.1723 22.8304 85.265 23.0066C85.3578 23.1782 85.4899 23.3126 85.6615 23.41C85.8331 23.5028 86.0301 23.5491 86.2527 23.5491C86.4382 23.5491 86.6075 23.5167 86.7605 23.4517C86.9181 23.3868 87.0526 23.2895 87.1639 23.1596L87.5673 23.57C87.4097 23.7555 87.2149 23.8969 86.9831 23.9943C86.7558 24.0917 86.5124 24.1403 86.2527 24.1403Z" fill="white"/>
<path d="M88.5603 22.5962V22.005H90.8486V22.5962H88.5603Z" fill="white"/>
<path d="M91.8776 24.0708V19.2437H92.5315V24.0708H91.8776Z" fill="white"/>
<path d="M95.8966 24.0708V22.1441C95.8966 21.8937 95.8178 21.6874 95.6601 21.5251C95.5025 21.3628 95.2984 21.2816 95.048 21.2816C94.8811 21.2816 94.7327 21.3187 94.6029 21.3929C94.4731 21.4671 94.371 21.5691 94.2969 21.699C94.2227 21.8288 94.1856 21.9772 94.1856 22.1441L93.9282 21.998C93.9282 21.7476 93.9839 21.5251 94.0951 21.3303C94.2064 21.1356 94.3618 20.9825 94.5612 20.8712C94.7606 20.7553 94.9855 20.6974 95.2358 20.6974C95.4862 20.6974 95.7065 20.76 95.8966 20.8852C96.0914 21.0104 96.2444 21.175 96.3557 21.379C96.467 21.5784 96.5226 21.7917 96.5226 22.0189V24.0708H95.8966ZM93.5596 24.0708V20.7669H94.1856V24.0708H93.5596Z" fill="white"/>
<path d="M15.8993 18.9201C16.1139 21.7406 18.3651 23.9918 21.1856 24.2063V22.4555C21.1856 20.503 19.6028 18.9201 17.6503 18.9201H15.8993Z" fill="white"/>
<path d="M27.3557 18.9201C27.1411 21.7406 24.89 23.9917 22.0695 24.2063V22.4555C22.0695 20.503 23.6524 18.9201 25.6049 18.9201H27.3557Z" fill="white"/>
<path d="M21.1857 12.7498V14.5007C21.1857 16.4532 19.6028 18.036 17.6503 18.036H15.8994C16.114 15.2156 18.3652 12.9644 21.1857 12.7498Z" fill="white"/>
<path d="M22.0695 12.7498C24.89 12.9644 27.1412 15.2156 27.3558 18.036H25.6048C23.6523 18.036 22.0695 16.4532 22.0695 14.5007V12.7498Z" fill="white"/>
<path fill-rule="evenodd" clip-rule="evenodd" d="M19.8866 2.83879C20.8481 1.87728 22.407 1.87728 23.3685 2.83879L42.4148 21.885L40.0934 24.2063L21.6275 5.74043L3.16164 24.2063L0.840332 21.885L19.8866 2.83879Z" fill="white"/>
<path fill-rule="evenodd" clip-rule="evenodd" d="M39.0676 1.77783V12.6522C39.0676 13.5587 38.3327 14.2936 37.4262 14.2936C36.5196 14.2936 35.7847 13.5587 35.7847 12.6522V1.77783H39.0676Z" fill="white"/>
<path fill-rule="evenodd" clip-rule="evenodd" d="M27.0325 2.25859C27.6736 1.61758 28.7128 1.61758 29.3539 2.25859L48.9804 21.8851L46.6591 24.2065L27.0325 4.5799C26.3915 3.93889 26.3915 2.8996 27.0325 2.25859Z" fill="white"/>
</g>
</svg>
