<svg width="103" height="22" viewBox="0 0 103 22" fill="none" xmlns="http://www.w3.org/2000/svg">
<path d="M9.54671 21.3614C4.32041 21.3614 0.914974 18.4007 0.914974 13.8833V0.942675H6.01618V13.3968C6.01618 15.732 7.26716 17.1359 9.56061 17.1359C11.8402 17.1359 13.0911 15.732 13.0911 13.3968V0.942675H18.1924V13.8833C18.1924 18.3868 14.8147 21.3614 9.54671 21.3614ZM21.2364 21V0.942675H25.5592L33.5794 12.5212H33.6767V0.942675H38.764V21H34.4828L26.421 9.29642H26.3237V21H21.2364ZM41.808 21V0.942675H46.9092V21H41.808ZM49.9533 21V0.942675H54.2761L62.2962 12.5212H62.3935V0.942675H67.4808V21H63.1997L55.1379 9.29642H55.0406V21H49.9533ZM70.5249 21V0.942675H84.2717V5.0431H75.6261V9.00452H83.7574V12.8409H75.6261V16.8996H84.2717V21H70.5249ZM91.8054 21V5.0431H86.2733V0.942675H102.425V5.0431H96.8927V21H91.8054Z" fill="white"/>
</svg>
