<svg width="108" height="38" viewBox="0 0 108 38" fill="none" xmlns="http://www.w3.org/2000/svg">
<g>
<path d="M96.2102 23.7598C94.7929 23.7598 93.4714 23.5013 92.2457 22.9842C91.02 22.4479 89.9474 21.7105 89.0281 20.7721C88.1088 19.8145 87.3906 18.7132 86.8735 17.4683C86.3564 16.2234 86.0978 14.8924 86.0978 13.4751C86.0978 12.0387 86.3564 10.7076 86.8735 9.48185C87.3906 8.23696 88.0992 7.14528 88.9994 6.20682C89.9187 5.26836 90.9817 4.54058 92.1882 4.02347C93.414 3.50636 94.7355 3.2478 96.1528 3.2478C97.57 3.2478 98.882 3.50636 100.089 4.02347C101.314 4.54058 102.387 5.26836 103.306 6.20682C104.225 7.14528 104.934 8.23696 105.432 9.48185C105.949 10.7267 106.208 12.0674 106.208 13.5038C106.208 14.9211 105.949 16.2522 105.432 17.4971C104.934 18.742 104.225 19.8336 103.306 20.7721C102.406 21.7105 101.343 22.4479 100.117 22.9842C98.9107 23.5013 97.6083 23.7598 96.2102 23.7598ZM96.1528 21.1743C97.57 21.1743 98.8245 20.8487 99.9162 20.1975C101.008 19.5272 101.86 18.6175 102.473 17.4683C103.105 16.3 103.421 14.969 103.421 13.4751C103.421 12.3643 103.239 11.3492 102.875 10.4299C102.53 9.49143 102.032 8.67746 101.381 7.98798C100.73 7.2985 99.964 6.77181 99.083 6.40792C98.202 6.02488 97.2253 5.83335 96.1528 5.83335C94.7355 5.83335 93.481 6.15894 92.3893 6.81012C91.2977 7.46129 90.4358 8.36145 89.8038 9.51058C89.1909 10.6597 88.8845 11.9812 88.8845 13.4751C88.8845 14.5859 89.0664 15.6201 89.4303 16.5778C89.7942 17.5162 90.2922 18.3302 90.9242 19.0197C91.5754 19.69 92.3415 20.2167 93.2225 20.5997C94.1226 20.9828 95.0994 21.1743 96.1528 21.1743ZM106.618 23.9961C106.139 24.4832 105.354 24.4865 104.871 24.0033L97.2869 16.4191C96.8033 15.9355 96.8033 15.1515 97.2869 14.668C97.7709 14.1839 98.5559 14.1845 99.0393 14.6693L106.612 22.2653C107.088 22.743 107.091 23.5152 106.618 23.9961Z" fill="white"/>
<path d="M81.8594 23.4726C81.1454 23.4726 80.5667 22.8938 80.5667 22.1798V11.1194C80.5667 10.4055 81.1454 9.82666 81.8594 9.82666C82.5734 9.82666 83.1522 10.4055 83.1522 11.1194V22.1798C83.1522 22.8938 82.5734 23.4726 81.8594 23.4726Z" fill="white"/>
<path d="M81.8593 7.09697C81.3805 7.09697 80.9879 6.94375 80.6815 6.63732C80.375 6.31173 80.2218 5.90953 80.2218 5.43073C80.2218 4.97108 80.375 4.58803 80.6815 4.2816C80.9879 3.95601 81.3805 3.79321 81.8593 3.79321C82.3381 3.79321 82.7307 3.95601 83.0372 4.2816C83.3436 4.58803 83.4968 4.97108 83.4968 5.43073C83.4968 5.90953 83.3436 6.31173 83.0372 6.63732C82.7307 6.94375 82.3381 7.09697 81.8593 7.09697Z" fill="white"/>
<path d="M75.7845 23.4733C75.0706 23.4733 74.4918 22.8945 74.4918 22.1805V15.5155C74.4918 14.4813 74.1662 13.629 73.515 12.9587C72.8638 12.2884 72.0211 11.9532 70.9869 11.9532C70.2974 11.9532 69.6846 12.1064 69.1483 12.4129C68.612 12.7193 68.1907 13.1407 67.8843 13.6769C67.7192 13.9657 67.5986 14.2767 67.5225 14.6099C67.4317 15.0071 66.9851 15.2661 66.6308 15.065C66.4644 14.9706 66.3599 14.7939 66.3687 14.6028C66.4103 13.6938 66.6378 12.8776 67.0511 12.1543C67.5108 11.3499 68.1524 10.7179 68.9759 10.2582C69.7995 9.77944 70.7284 9.54004 71.7626 9.54004C72.7968 9.54004 73.7065 9.79859 74.4918 10.3157C75.2962 10.8328 75.9282 11.5127 76.3878 12.3554C76.8475 13.179 77.0773 14.06 77.0773 14.9984V22.1805C77.0773 22.8945 76.4985 23.4733 75.7845 23.4733ZM66.1318 23.4733C65.4178 23.4733 64.8391 22.8945 64.8391 22.1805V11.1201C64.8391 10.4061 65.4178 9.82732 66.1318 9.82732C66.8458 9.82732 67.4246 10.4061 67.4246 11.1201V22.1805C67.4246 22.8945 66.8458 23.4733 66.1318 23.4733Z" fill="white"/>
<path d="M54.0196 23.7604C52.5448 23.7604 51.2233 23.4348 50.0551 22.7836C48.9059 22.1133 47.9962 21.2036 47.3259 20.0544C46.6555 18.8862 46.3204 17.5646 46.3204 16.0899V4.88588C46.3204 4.14016 46.9249 3.53564 47.6706 3.53564C48.4163 3.53564 49.0208 4.14016 49.0208 4.88588V16.0325C49.0208 17.0858 49.2411 17.9956 49.6816 18.7617C50.1221 19.5278 50.7158 20.1215 51.4627 20.5428C52.2288 20.9642 53.0811 21.1748 54.0196 21.1748C54.9963 21.1748 55.8486 20.9642 56.5764 20.5428C57.3233 20.1215 57.9075 19.5278 58.3288 18.7617C58.7693 17.9956 58.9896 17.0954 58.9896 16.0612V4.90024C58.9896 4.1466 59.6005 3.53564 60.3542 3.53564C61.1078 3.53564 61.7188 4.14659 61.7188 4.90024V16.1187C61.7188 17.5934 61.3836 18.9053 60.7133 20.0544C60.0429 21.2036 59.1332 22.1133 57.9841 22.7836C56.8349 23.4348 55.5134 23.7604 54.0196 23.7604Z" fill="white"/>
<path d="M47.0121 35.1403C46.6727 35.1403 46.4417 34.7961 46.5702 34.482L49.1052 28.2873C49.1857 28.0905 49.3772 27.962 49.5898 27.962C49.8026 27.962 49.9942 28.0908 50.0746 28.2878L52.5953 34.4695C52.7259 34.7897 52.4903 35.1403 52.1444 35.1403C51.9449 35.1403 51.7655 35.0185 51.6919 34.833L49.4705 29.2367C49.4385 29.1561 49.4979 29.0687 49.5846 29.0687C49.6714 29.0687 49.7307 29.1564 49.6985 29.237L47.4553 34.8403C47.3827 35.0215 47.2072 35.1403 47.0121 35.1403ZM48.1213 33.5164C47.8871 33.5164 47.6972 33.3265 47.6972 33.0923C47.6972 32.8581 47.8871 32.6682 48.1213 32.6682H51.0484C51.2826 32.6682 51.4725 32.8581 51.4725 33.0923C51.4725 33.3265 51.2826 33.5164 51.0484 33.5164H48.1213Z" fill="white"/>
<path d="M54.3302 35.1403C54.0732 35.1403 53.8648 34.9319 53.8648 34.6748V28.2206C53.8648 27.9635 54.0732 27.7551 54.3302 27.7551C54.5873 27.7551 54.7957 27.9635 54.7957 28.2206V34.6748C54.7957 34.9319 54.5873 35.1403 54.3302 35.1403Z" fill="white"/>
<path d="M56.6231 35.1403C56.3661 35.1403 56.1577 34.9319 56.1577 34.6748V28.2206C56.1577 27.9635 56.3661 27.7551 56.6231 27.7551C56.8802 27.7551 57.0886 27.9635 57.0886 28.2206V34.6748C57.0886 34.9319 56.8802 35.1403 56.6231 35.1403Z" fill="white"/>
<path d="M61.0779 35.1403C60.8208 35.1403 60.6124 34.9319 60.6124 34.6748V30.6926C60.6124 30.4356 60.8208 30.2272 61.0779 30.2272C61.3349 30.2272 61.5433 30.4356 61.5433 30.6926V34.6748C61.5433 34.9319 61.3349 35.1403 61.0779 35.1403ZM61.0779 29.2446C60.9055 29.2446 60.7641 29.1894 60.6538 29.0791C60.5435 28.9618 60.4883 28.817 60.4883 28.6447C60.4883 28.4792 60.5435 28.3412 60.6538 28.2309C60.7641 28.1137 60.9055 28.0551 61.0779 28.0551C61.2503 28.0551 61.3916 28.1137 61.502 28.2309C61.6123 28.3412 61.6675 28.4792 61.6675 28.6447C61.6675 28.817 61.6123 28.9618 61.502 29.0791C61.3916 29.1894 61.2503 29.2446 61.0779 29.2446Z" fill="white"/>
<path d="M66.856 35.1403C66.5989 35.1403 66.3906 34.9319 66.3906 34.6748V32.2752C66.3906 31.9028 66.2733 31.5959 66.0389 31.3546C65.8044 31.1133 65.501 30.9926 65.1287 30.9926C64.8804 30.9926 64.6598 31.0477 64.4667 31.1581C64.2736 31.2684 64.1219 31.4201 64.0116 31.6132C63.9522 31.7172 63.9088 31.8291 63.8813 31.9491C63.8487 32.0921 63.6879 32.1853 63.5603 32.1129C63.5004 32.079 63.4628 32.0153 63.4659 31.9465C63.4809 31.6192 63.5628 31.3254 63.7116 31.065C63.8771 30.7754 64.1081 30.5478 64.4046 30.3823C64.7011 30.2099 65.0356 30.1237 65.4079 30.1237C65.7803 30.1237 66.1078 30.2168 66.3906 30.403C66.6802 30.5892 66.9077 30.834 67.0732 31.1374C67.2387 31.4339 67.3215 31.7511 67.3215 32.089V34.6748C67.3215 34.9319 67.1131 35.1403 66.856 35.1403ZM63.3806 35.1403C63.1236 35.1403 62.9152 34.9319 62.9152 34.6748V30.6926C62.9152 30.4356 63.1236 30.2272 63.3806 30.2272C63.6377 30.2272 63.8461 30.4356 63.8461 30.6926V34.6748C63.8461 34.9319 63.6377 35.1403 63.3806 35.1403Z" fill="white"/>
<path d="M72.9778 35.2437C72.4951 35.2437 72.0607 35.1299 71.6745 34.9024C71.2884 34.6748 70.9815 34.368 70.754 33.9818C70.5264 33.5888 70.4127 33.1509 70.4127 32.6682C70.4127 32.1924 70.5264 31.7649 70.754 31.3856C70.9815 30.9995 71.2884 30.6926 71.6745 30.4651C72.0607 30.2375 72.4951 30.1237 72.9778 30.1237C73.4536 30.1237 73.8846 30.2375 74.2707 30.4651C74.6638 30.6857 74.9741 30.9891 75.2016 31.3753C75.4292 31.7614 75.5429 32.1924 75.5429 32.6682C75.5429 33.1509 75.4292 33.5888 75.2016 33.9818C74.9741 34.368 74.6638 34.6748 74.2707 34.9024C73.8846 35.1299 73.4536 35.2437 72.9778 35.2437ZM72.9778 34.3438C73.2881 34.3438 73.5639 34.2714 73.8053 34.1266C74.0466 33.9818 74.2362 33.7853 74.3741 33.537C74.5121 33.2819 74.581 32.9923 74.581 32.6682C74.581 32.351 74.5086 32.0683 74.3638 31.8201C74.2259 31.5718 74.0363 31.3787 73.7949 31.2408C73.5605 31.096 73.2881 31.0236 72.9778 31.0236C72.6675 31.0236 72.3917 31.096 72.1503 31.2408C71.909 31.3787 71.7194 31.5718 71.5814 31.8201C71.4435 32.0683 71.3746 32.351 71.3746 32.6682C71.3746 32.9923 71.4435 33.2819 71.5814 33.537C71.7194 33.7853 71.909 33.9818 72.1503 34.1266C72.3917 34.2714 72.6675 34.3438 72.9778 34.3438Z" fill="white"/>
<path d="M80.5326 35.1403C80.2756 35.1403 80.0672 34.9319 80.0672 34.6748V32.2752C80.0672 31.9028 79.9499 31.5959 79.7155 31.3546C79.481 31.1133 79.1776 30.9926 78.8053 30.9926C78.557 30.9926 78.3364 31.0477 78.1433 31.1581C77.9502 31.2684 77.7985 31.4201 77.6882 31.6132C77.6288 31.7172 77.5854 31.8291 77.558 31.9491C77.5253 32.0921 77.3645 32.1853 77.2369 32.1129C77.177 32.079 77.1394 32.0153 77.1425 31.9465C77.1575 31.6192 77.2394 31.3254 77.3882 31.065C77.5537 30.7754 77.7847 30.5478 78.0813 30.3823C78.3778 30.2099 78.7122 30.1237 79.0846 30.1237C79.4569 30.1237 79.7845 30.2168 80.0672 30.403C80.3568 30.5892 80.5843 30.834 80.7498 31.1374C80.9153 31.4339 80.9981 31.7511 80.9981 32.089V34.6748C80.9981 34.9319 80.7897 35.1403 80.5326 35.1403ZM77.0573 35.1403C76.8002 35.1403 76.5918 34.9319 76.5918 34.6748V30.6926C76.5918 30.4356 76.8002 30.2272 77.0573 30.2272C77.3143 30.2272 77.5227 30.4356 77.5227 30.6926V34.6748C77.5227 34.9319 77.3143 35.1403 77.0573 35.1403Z" fill="white"/>
<path d="M84.5339 35.2437C84.0444 35.2437 83.603 35.1334 83.21 34.9127C82.817 34.6851 82.5067 34.3783 82.2791 33.9921C82.0515 33.606 81.9378 33.1681 81.9378 32.6785C81.9378 32.1959 82.0481 31.7614 82.2688 31.3753C82.4963 30.9891 82.7997 30.6857 83.179 30.4651C83.5651 30.2375 83.9961 30.1237 84.4719 30.1237C84.927 30.1237 85.3269 30.2272 85.6717 30.434C86.0234 30.6409 86.2958 30.9271 86.4888 31.2925C86.6888 31.658 86.7888 32.0717 86.7888 32.5337C86.7888 32.6027 86.7853 32.6785 86.7784 32.7613C86.7641 32.9189 86.6231 33.0302 86.4649 33.0302H82.9773C82.7631 33.0302 82.5894 32.8566 82.5894 32.6423C82.5894 32.4281 82.7631 32.2545 82.9773 32.2545H85.9927C86.0789 32.2545 86.1191 32.3612 86.0544 32.4181C85.994 32.4712 85.8977 32.4282 85.8911 32.3481C85.8713 32.1057 85.8154 31.8952 85.7234 31.7166C85.6062 31.4822 85.4407 31.3029 85.2269 31.1788C85.0132 31.0477 84.7546 30.9822 84.4512 30.9822C84.134 30.9822 83.8547 31.0512 83.6134 31.1891C83.372 31.327 83.1859 31.5201 83.0549 31.7683C82.9238 32.0166 82.8583 32.3096 82.8583 32.6475C82.8583 32.9923 82.9273 33.2957 83.0652 33.5577C83.2031 33.8129 83.3996 34.0128 83.6548 34.1576C83.9099 34.2956 84.203 34.3645 84.5339 34.3645C84.8098 34.3645 85.0615 34.3162 85.289 34.2197C85.3774 34.1833 85.4609 34.14 85.5395 34.0899C85.7505 33.9553 86.0396 33.9386 86.2151 34.117C86.3701 34.2747 86.3817 34.5286 86.2117 34.67C86.0368 34.8154 85.8396 34.9342 85.62 35.0265C85.2821 35.1713 84.9201 35.2437 84.5339 35.2437Z" fill="white"/>
<path d="M92.0446 35.2437C91.5964 35.2437 91.1896 35.1334 90.8241 34.9127C90.4587 34.6851 90.1691 34.3783 89.9553 33.9921C89.7484 33.606 89.645 33.1716 89.645 32.6889C89.645 32.2062 89.7484 31.7718 89.9553 31.3856C90.1691 30.9995 90.4552 30.6926 90.8138 30.4651C91.1793 30.2375 91.5895 30.1237 92.0446 30.1237C92.417 30.1237 92.748 30.203 93.0376 30.3616C93.3341 30.5133 93.572 30.7271 93.7513 31.0029C93.9306 31.2719 94.0306 31.5856 94.0513 31.9442V33.4233C94.0306 33.7749 93.9306 34.0887 93.7513 34.3645C93.5789 34.6403 93.3445 34.8575 93.0479 35.0161C92.7583 35.1678 92.4239 35.2437 92.0446 35.2437ZM92.1998 34.3645C92.6618 34.3645 93.0342 34.2094 93.3169 33.8991C93.5996 33.5819 93.741 33.1785 93.741 32.6889C93.741 32.351 93.6754 32.0579 93.5444 31.8097C93.4203 31.5546 93.241 31.358 93.0066 31.2201C92.7721 31.0753 92.4998 31.0029 92.1895 31.0029C91.8792 31.0029 91.6033 31.0753 91.362 31.2201C91.1275 31.3649 90.9414 31.5649 90.8034 31.8201C90.6724 32.0683 90.6069 32.3545 90.6069 32.6785C90.6069 33.0095 90.6724 33.3026 90.8034 33.5577C90.9414 33.806 91.131 34.0025 91.3723 34.1473C91.6137 34.2921 91.8895 34.3645 92.1998 34.3645ZM94.1495 35.1403C93.8896 35.1403 93.6789 34.9296 93.6789 34.6696V33.9063C93.6789 33.8464 93.6833 33.7866 93.6919 33.7273L93.7384 33.4099C93.8156 32.8838 93.8152 32.3492 93.7375 31.8232L93.6909 31.5083C93.6829 31.4542 93.6789 31.3995 93.6789 31.3448V30.6978C93.6789 30.4379 93.8896 30.2272 94.1495 30.2272C94.4094 30.2272 94.6201 30.4379 94.6201 30.6978V34.6696C94.6201 34.9296 94.4094 35.1403 94.1495 35.1403Z" fill="white"/>
<path d="M98.5613 35.2437C98.1889 35.2437 97.851 35.1678 97.5476 35.0161C97.2511 34.8575 97.0132 34.6403 96.8339 34.3645C96.6546 34.0887 96.5547 33.7749 96.534 33.4233V31.9442C96.5547 31.5856 96.6546 31.2719 96.8339 31.0029C97.0201 30.7271 97.2614 30.5133 97.558 30.3616C97.8614 30.203 98.1958 30.1237 98.5613 30.1237C99.0095 30.1237 99.4129 30.2375 99.7714 30.4651C100.137 30.6926 100.423 30.9995 100.63 31.3856C100.837 31.7718 100.94 32.2062 100.94 32.6889C100.94 33.1716 100.837 33.606 100.63 33.9921C100.423 34.3783 100.137 34.6851 99.7714 34.9127C99.4129 35.1334 99.0095 35.2437 98.5613 35.2437ZM98.4061 34.3645C98.7164 34.3645 98.9888 34.2921 99.2232 34.1473C99.4577 34.0025 99.6439 33.806 99.7818 33.5577C99.9197 33.3026 99.9886 33.0095 99.9886 32.6785C99.9886 32.3545 99.9197 32.0648 99.7818 31.8097C99.6439 31.5546 99.4577 31.358 99.2232 31.2201C98.9888 31.0753 98.7199 31.0029 98.4165 31.0029C98.1062 31.0029 97.8338 31.0753 97.5993 31.2201C97.3649 31.358 97.1822 31.5546 97.0511 31.8097C96.9201 32.0648 96.8546 32.3579 96.8546 32.6889C96.8546 33.013 96.9167 33.3026 97.0408 33.5577C97.1718 33.806 97.3545 34.0025 97.589 34.1473C97.8303 34.2921 98.1027 34.3645 98.4061 34.3645ZM96.4409 37.1986C96.1838 37.1986 95.9754 36.9902 95.9754 36.7331V30.6926C95.9754 30.4356 96.1838 30.2272 96.4409 30.2272C96.6979 30.2272 96.9063 30.4356 96.9063 30.6926V31.4316C96.9063 31.4905 96.902 31.5494 96.8934 31.6077L96.8478 31.9163C96.77 32.4423 96.7697 32.9769 96.8468 33.503L96.8739 33.6883C96.8955 33.8355 96.9063 33.9841 96.9063 34.1328V36.7331C96.9063 36.9902 96.6979 37.1986 96.4409 37.1986Z" fill="white"/>
<path d="M104.581 35.2437C104.209 35.2437 103.871 35.1678 103.568 35.0161C103.271 34.8575 103.033 34.6403 102.854 34.3645C102.675 34.0887 102.575 33.7749 102.554 33.4233V31.9442C102.575 31.5856 102.675 31.2719 102.854 31.0029C103.04 30.7271 103.282 30.5133 103.578 30.3616C103.881 30.203 104.216 30.1237 104.581 30.1237C105.03 30.1237 105.433 30.2375 105.792 30.4651C106.157 30.6926 106.443 30.9995 106.65 31.3856C106.857 31.7718 106.96 32.2062 106.96 32.6889C106.96 33.1716 106.857 33.606 106.65 33.9921C106.443 34.3783 106.157 34.6851 105.792 34.9127C105.433 35.1334 105.03 35.2437 104.581 35.2437ZM104.426 34.3645C104.737 34.3645 105.009 34.2921 105.243 34.1473C105.478 34.0025 105.664 33.806 105.802 33.5577C105.94 33.3026 106.009 33.0095 106.009 32.6785C106.009 32.3545 105.94 32.0648 105.802 31.8097C105.664 31.5546 105.478 31.358 105.243 31.2201C105.009 31.0753 104.74 31.0029 104.437 31.0029C104.126 31.0029 103.854 31.0753 103.619 31.2201C103.385 31.358 103.202 31.5546 103.071 31.8097C102.94 32.0648 102.875 32.3579 102.875 32.6889C102.875 33.013 102.937 33.3026 103.061 33.5577C103.192 33.806 103.375 34.0025 103.609 34.1473C103.85 34.2921 104.123 34.3645 104.426 34.3645ZM102.461 37.1986C102.204 37.1986 101.996 36.9902 101.996 36.7331V30.6926C101.996 30.4356 102.204 30.2272 102.461 30.2272C102.718 30.2272 102.926 30.4356 102.926 30.6926V31.4316C102.926 31.4905 102.922 31.5494 102.914 31.6077L102.868 31.9163C102.79 32.4423 102.79 32.9769 102.867 33.503L102.894 33.6883C102.916 33.8355 102.926 33.9841 102.926 34.1328V36.7331C102.926 36.9902 102.718 37.1986 102.461 37.1986Z" fill="white"/>
<path fill-rule="evenodd" clip-rule="evenodd" d="M14.7851 1.13477L1.90657 14.0133C-0.464299 16.3841 -0.464297 20.2281 1.90657 22.5989C4.27743 24.9698 8.12136 24.9698 10.4922 22.5989L23.3707 9.72042C24.347 8.74419 24.347 7.16139 23.3707 6.18515C22.3945 5.20892 20.8117 5.20892 19.8354 6.18515L6.95695 19.0636C6.53857 19.482 5.86023 19.482 5.44184 19.0636C5.02345 18.6453 5.02345 17.9669 5.44184 17.5485L18.3203 4.67004C19.2966 3.6938 19.2966 2.111 18.3203 1.13477C17.3441 0.158528 15.7613 0.158528 14.7851 1.13477ZM24.1281 11.9925C26.499 9.62167 30.3429 9.62167 32.7138 11.9925C35.0847 14.3634 35.0847 18.2073 32.7138 20.5782L20.5929 32.6991C20.3444 32.9476 20.0798 33.1699 19.8025 33.3663C19.2275 33.7733 18.7999 34.3933 18.7999 35.0977C18.7999 36.4783 17.6807 37.5975 16.3 37.5975C14.9194 37.5975 13.8002 36.4783 13.8002 35.0977C13.8002 34.3933 13.3726 33.7733 12.7976 33.3663C12.5202 33.1699 12.2556 32.9476 12.0072 32.6991C9.63635 30.3283 9.63635 26.4843 12.0072 24.1135L24.1281 11.9925ZM29.1785 15.5278C28.7601 15.1094 28.0818 15.1094 27.6634 15.5278L15.5425 27.6487C15.1241 28.0671 15.1241 28.7455 15.5425 29.1639C15.9609 29.5822 16.6392 29.5822 17.0576 29.1639L29.1785 17.0429C29.5969 16.6245 29.5969 15.9462 29.1785 15.5278Z" fill="white"/>
</g>
</svg>
