<svg width="130" height="34" viewBox="0 0 130 34" fill="none" xmlns="http://www.w3.org/2000/svg">
<g>
<mask id="mask0_157_323" style="mask-type:luminance" maskUnits="userSpaceOnUse" x="0" y="0" width="130" height="34">
<path d="M129.643 0.272949H0.356934V33.7272H129.643V0.272949Z" fill="white"/>
</mask>
<g mask="url(#mask0_157_323)">
<path fill-rule="evenodd" clip-rule="evenodd" d="M19.6995 32.4797C18.6984 32.6726 17.6647 32.7736 16.6074 32.7736C7.63249 32.7736 0.356934 25.498 0.356934 16.5231C0.356934 15.1423 0.529145 13.8018 0.853261 12.5217H19.6995V32.4797Z" fill="white"/>
<path fill-rule="evenodd" clip-rule="evenodd" d="M23.2982 31.3363C28.9352 28.7859 32.8572 23.1125 32.8572 16.5231C32.8572 15.1423 32.6849 13.8018 32.3609 12.5217H23.2982V31.3363Z" fill="white"/>
<path fill-rule="evenodd" clip-rule="evenodd" d="M30.9754 8.92536H2.23853C4.96565 3.77885 10.3769 0.272949 16.6069 0.272949C22.8371 0.272949 28.2483 3.77885 30.9754 8.92536Z" fill="white"/>
<path d="M52.5304 22.5114C51.1136 22.5114 49.8442 22.1986 48.7218 21.573C47.6179 20.9291 46.744 20.0552 46.1 18.9513C45.4561 17.8289 45.1342 16.5594 45.1342 15.1427V3.08252H47.7284V15.0875C47.7284 16.0994 47.94 16.9734 48.3631 17.7093C48.7862 18.4453 49.3566 19.0157 50.0741 19.4204C50.8101 19.8252 51.6288 20.0276 52.5304 20.0276C53.4687 20.0276 54.2874 19.8252 54.9866 19.4204C55.7041 19.0157 56.2653 18.4453 56.67 17.7093C57.0932 16.9734 57.3048 16.1087 57.3048 15.1151V3.08252H59.9265V15.1703C59.9265 16.587 59.6046 17.8474 58.9607 18.9513C58.3167 20.0552 57.4427 20.9291 56.3388 21.573C55.2349 22.1986 53.9655 22.5114 52.5304 22.5114Z" fill="white"/>
<path d="M72.4729 22.2363V14.5917C72.4729 13.5982 72.1602 12.7795 71.5346 12.1355C70.9091 11.4916 70.0995 11.1696 69.106 11.1696C68.4436 11.1696 67.8549 11.3168 67.3397 11.6112C66.8245 11.9055 66.4198 12.3103 66.1255 12.8254C65.8311 13.3406 65.6839 13.9293 65.6839 14.5917L64.6628 14.0121C64.6628 13.0186 64.8835 12.1355 65.3251 11.3628C65.7667 10.59 66.383 9.98283 67.1742 9.5413C67.9653 9.08134 68.8576 8.85132 69.8511 8.85132C70.8447 8.85132 71.7186 9.09977 72.4729 9.59651C73.2456 10.0933 73.8528 10.7464 74.2944 11.556C74.7359 12.3471 74.9567 13.1934 74.9567 14.0949V22.2363H72.4729ZM63.2001 22.2363V9.1273H65.6839V22.2363H63.2001Z" fill="white"/>
<path d="M77.7952 22.2355V9.12655H80.279V22.2355H77.7952ZM79.0371 6.5048C78.5771 6.5048 78.1999 6.35761 77.9056 6.06324C77.6112 5.75046 77.464 5.36409 77.464 4.90413C77.464 4.46257 77.6112 4.0946 77.9056 3.80021C78.1999 3.48744 78.5771 3.33105 79.0371 3.33105C79.4971 3.33105 79.8742 3.48744 80.1686 3.80021C80.4629 4.0946 80.6101 4.46257 80.6101 4.90413C80.6101 5.36409 80.4629 5.75046 80.1686 6.06324C79.8742 6.35761 79.4971 6.5048 79.0371 6.5048Z" fill="white"/>
<path d="M88.9068 22.2354V3.63447H91.5011V22.2354H88.9068ZM82.3937 5.45593V3.08252H97.9865V5.45593H82.3937Z" fill="white"/>
<path d="M102.517 22.5123C101.211 22.5123 100.034 22.2179 98.9852 21.6291C97.9358 21.022 97.1085 20.2033 96.5007 19.1729C95.8937 18.1426 95.5906 16.9743 95.5906 15.668C95.5906 14.3801 95.8847 13.221 96.4736 12.1907C97.0806 11.1604 97.89 10.3508 98.9016 9.76206C99.9321 9.1549 101.082 8.85132 102.352 8.85132C103.566 8.85132 104.633 9.12729 105.553 9.67933C106.491 10.2313 107.218 10.9948 107.733 11.9699C108.267 12.945 108.533 14.0489 108.533 15.2817C108.533 15.4657 108.524 15.668 108.506 15.8888C108.487 16.0912 108.451 16.3304 108.396 16.6063H97.3288V14.5365H107.071L106.16 15.3368C106.16 14.4537 106.004 13.7085 105.691 13.1014C105.378 12.4759 104.936 11.9975 104.366 11.6663C103.796 11.3168 103.106 11.1419 102.296 11.1419C101.45 11.1419 100.705 11.3259 100.061 11.6939C99.4169 12.0619 98.9205 12.577 98.5707 13.2394C98.2209 13.9018 98.0464 14.6837 98.0464 15.5853C98.0464 16.5052 98.2307 17.3147 98.5985 18.0138C98.9663 18.6946 99.4906 19.2282 100.171 19.6145C100.852 19.9824 101.634 20.1664 102.517 20.1664C103.253 20.1664 103.925 20.0377 104.532 19.7801C105.158 19.5225 105.691 19.1362 106.132 18.621L107.733 20.2492C107.108 20.9852 106.335 21.5463 105.415 21.9327C104.514 22.3191 103.548 22.5123 102.517 22.5123Z" fill="white"/>
<path d="M114.857 22.5123C114.121 22.5123 113.422 22.4203 112.759 22.2363C112.115 22.0339 111.517 21.7579 110.966 21.4084C110.414 21.0404 109.936 20.608 109.531 20.1113L111.132 18.5106C111.61 19.0993 112.162 19.5409 112.787 19.8353C113.413 20.1113 114.112 20.2492 114.885 20.2492C115.657 20.2492 116.255 20.1205 116.678 19.8628C117.102 19.5869 117.313 19.2097 117.313 18.7313C117.313 18.253 117.138 17.8851 116.789 17.6274C116.458 17.3515 116.025 17.1307 115.492 16.9651C114.958 16.7811 114.388 16.6063 113.781 16.4408C113.192 16.2568 112.631 16.0268 112.097 15.7508C111.564 15.4748 111.123 15.0977 110.773 14.6193C110.441 14.1409 110.276 13.5062 110.276 12.7151C110.276 11.9239 110.469 11.2432 110.855 10.6728C111.241 10.0841 111.775 9.63329 112.456 9.32054C113.155 9.00778 113.992 8.85132 114.968 8.85132C115.997 8.85132 116.908 9.0353 117.7 9.40327C118.509 9.75289 119.172 10.2864 119.687 11.004L118.086 12.6046C117.718 12.1263 117.258 11.7583 116.706 11.5007C116.173 11.2432 115.566 11.1143 114.885 11.1143C114.167 11.1143 113.615 11.2432 113.229 11.5007C112.861 11.7399 112.676 12.0803 112.676 12.5218C112.676 12.9634 112.843 13.3038 113.174 13.543C113.505 13.7822 113.937 13.9845 114.47 14.1502C115.023 14.3157 115.593 14.4905 116.182 14.6745C116.771 14.8401 117.332 15.0701 117.865 15.3644C118.398 15.6588 118.831 16.0544 119.163 16.5511C119.512 17.0479 119.687 17.7011 119.687 18.5106C119.687 19.7433 119.245 20.7184 118.362 21.436C117.497 22.1535 116.329 22.5123 114.857 22.5123Z" fill="white"/>
<path d="M123.93 22.2359V3.63501H126.414V22.2359H123.93ZM120.701 11.39V9.12694H129.643V11.39H120.701Z" fill="white"/>
<path d="M47.3565 31.778V25.495H48.2328V31.778H47.3565ZM45.1565 26.1103V25.3086H50.4234V26.1103H45.1565Z" fill="white"/>
<path d="M52.1401 31.8729C51.6989 31.8729 51.3012 31.7734 50.9469 31.5746C50.5927 31.3695 50.313 31.093 50.1079 30.7449C49.9029 30.3969 49.8003 30.0023 49.8003 29.5611C49.8003 29.126 49.8997 28.7345 50.0986 28.3865C50.3037 28.0385 50.5771 27.765 50.9189 27.5661C51.2669 27.3611 51.6554 27.2585 52.0842 27.2585C52.4944 27.2585 52.8548 27.3518 53.1655 27.5382C53.4824 27.7246 53.7279 27.9825 53.9019 28.3119C54.0821 28.6413 54.1723 29.0142 54.1723 29.4306C54.1723 29.4927 54.1691 29.5611 54.1629 29.6356C54.1568 29.704 54.1443 29.7848 54.1256 29.878H50.3876V29.1788H53.6782L53.3706 29.4492C53.3706 29.1509 53.3178 28.8992 53.2121 28.6941C53.1064 28.4828 52.9574 28.3212 52.7647 28.2093C52.572 28.0913 52.339 28.0322 52.0655 28.0322C51.7796 28.0322 51.528 28.0944 51.3104 28.2187C51.0929 28.343 50.9252 28.517 50.807 28.7407C50.689 28.9645 50.6299 29.2286 50.6299 29.5331C50.6299 29.8438 50.6921 30.1173 50.8164 30.3534C50.9406 30.5834 51.1178 30.7636 51.3478 30.8941C51.5777 31.0183 51.8418 31.0805 52.1401 31.0805C52.3887 31.0805 52.6155 31.037 52.8206 30.95C53.0319 30.863 53.2121 30.7325 53.3613 30.5585L53.9019 31.1085C53.6907 31.3571 53.4296 31.5466 53.1189 31.6771C52.8144 31.8076 52.4881 31.8729 52.1401 31.8729Z" fill="white"/>
<path d="M56.4948 31.8729C56.2462 31.8729 56.0101 31.8418 55.7863 31.7797C55.5688 31.7113 55.3668 31.6181 55.1805 31.5C54.994 31.3757 54.8324 31.2297 54.6957 31.0618L55.2363 30.5212C55.3979 30.7201 55.5844 30.8693 55.7956 30.9686C56.007 31.0618 56.2431 31.1085 56.5041 31.1085C56.7651 31.1085 56.9671 31.065 57.1101 30.978C57.253 30.8847 57.3245 30.7574 57.3245 30.5958C57.3245 30.4342 57.2654 30.3099 57.1474 30.2229C57.0355 30.1297 56.8894 30.0551 56.7092 29.9992C56.529 29.937 56.3363 29.878 56.1313 29.822C55.9324 29.7599 55.7428 29.6822 55.5626 29.589C55.3824 29.4958 55.2332 29.3684 55.1152 29.2068C55.0033 29.0452 54.9474 28.8308 54.9474 28.5636C54.9474 28.2964 55.0126 28.0664 55.1431 27.8738C55.2737 27.6749 55.4539 27.5226 55.6838 27.4171C55.9199 27.3114 56.2027 27.2585 56.5321 27.2585C56.8801 27.2585 57.1877 27.3207 57.4549 27.445C57.7284 27.563 57.9521 27.7433 58.1262 27.9856L57.5854 28.5264C57.4612 28.3647 57.3058 28.2405 57.1193 28.1535C56.9391 28.0664 56.7341 28.0229 56.5041 28.0229C56.2618 28.0229 56.0753 28.0664 55.9448 28.1535C55.8205 28.2343 55.7584 28.3492 55.7584 28.4983C55.7584 28.6475 55.8143 28.7624 55.9261 28.8433C56.038 28.9241 56.1841 28.9924 56.3643 29.0483C56.5508 29.1043 56.7434 29.1633 56.9422 29.2254C57.1411 29.2814 57.3307 29.359 57.5109 29.4585C57.6911 29.5579 57.8372 29.6915 57.949 29.8594C58.0671 30.0272 58.1262 30.2478 58.1262 30.5212C58.1262 30.9376 57.977 31.267 57.6787 31.5093C57.3866 31.7517 56.992 31.8729 56.4948 31.8729Z" fill="white"/>
<path d="M59.7459 31.7791V25.4961H60.5849V31.7791H59.7459ZM58.6552 28.1155V27.3512H61.6755V28.1155H58.6552Z" fill="white"/>
<path d="M62.5067 31.7797V27.3518H63.3456V31.7797H62.5067ZM62.9261 26.4662C62.7708 26.4662 62.6434 26.4165 62.5439 26.3171C62.4445 26.2115 62.3948 26.081 62.3948 25.9256C62.3948 25.7764 62.4445 25.6522 62.5439 25.5527C62.6434 25.447 62.7708 25.3943 62.9261 25.3943C63.0815 25.3943 63.2089 25.447 63.3083 25.5527C63.4078 25.6522 63.4575 25.7764 63.4575 25.9256C63.4575 26.081 63.4078 26.2115 63.3083 26.3171C63.2089 26.4165 63.0815 26.4662 62.9261 26.4662Z" fill="white"/>
<path d="M67.7141 31.7797V29.1975C67.7141 28.8619 67.6084 28.5853 67.3971 28.3679C67.1858 28.1504 66.9123 28.0416 66.5767 28.0416C66.353 28.0416 66.1542 28.0913 65.9801 28.1908C65.8061 28.2902 65.6694 28.4269 65.57 28.6009C65.4705 28.7749 65.4208 28.9738 65.4208 29.1975L65.0759 29.0017C65.0759 28.6661 65.1505 28.3679 65.2997 28.1069C65.4488 27.8458 65.657 27.6408 65.9243 27.4916C66.1915 27.3362 66.4928 27.2585 66.8285 27.2585C67.1641 27.2585 67.4592 27.3424 67.7141 27.5103C67.975 27.678 68.1802 27.8986 68.3292 28.1721C68.4784 28.4393 68.553 28.7252 68.553 29.0297V31.7797H67.7141ZM64.5819 31.7797V27.3518H65.4208V31.7797H64.5819Z" fill="white"/>
<path d="M71.5254 33.728C71.0718 33.728 70.6678 33.644 70.3136 33.4762C69.9656 33.3085 69.6859 33.0723 69.4746 32.7677L70.0153 32.2178C70.1955 32.4477 70.4099 32.6218 70.6585 32.7398C70.907 32.8641 71.2023 32.9263 71.5441 32.9263C71.9978 32.9263 72.3551 32.8051 72.6161 32.5627C72.8833 32.3265 73.017 32.0065 73.017 31.6026V30.5026L73.166 29.5051L73.017 28.517V27.3518H73.8559V31.6026C73.8559 32.0252 73.7565 32.3949 73.5576 32.7119C73.3649 33.0288 73.0915 33.2773 72.7373 33.4576C72.3892 33.6379 71.9853 33.728 71.5254 33.728ZM71.5254 31.7051C71.1215 31.7051 70.758 31.6088 70.4348 31.4161C70.1179 31.2235 69.8661 30.9594 69.6797 30.6238C69.4932 30.2819 69.4 29.8998 69.4 29.4772C69.4 29.0546 69.4932 28.6786 69.6797 28.3492C69.8661 28.0137 70.1179 27.7495 70.4348 27.5569C70.758 27.358 71.1215 27.2585 71.5254 27.2585C71.8734 27.2585 72.1811 27.3269 72.4483 27.4637C72.7155 27.6004 72.9268 27.793 73.0822 28.0416C73.2438 28.284 73.3308 28.5699 73.3432 28.8992V30.0738C73.3246 30.3969 73.2344 30.6828 73.0728 30.9313C72.9175 31.1737 72.7062 31.3633 72.439 31.5C72.1717 31.6367 71.8673 31.7051 71.5254 31.7051ZM71.6932 30.9128C71.9666 30.9128 72.2059 30.8537 72.411 30.7356C72.6223 30.6175 72.7839 30.4529 72.8957 30.2415C73.0076 30.024 73.0636 29.7723 73.0636 29.4865C73.0636 29.2006 73.0045 28.952 72.8864 28.7407C72.7746 28.5233 72.6161 28.3554 72.411 28.2374C72.2059 28.113 71.9635 28.0509 71.6839 28.0509C71.4043 28.0509 71.1588 28.113 70.9475 28.2374C70.7362 28.3554 70.5684 28.5233 70.444 28.7407C70.326 28.952 70.2669 29.1975 70.2669 29.4772C70.2669 29.7568 70.326 30.0054 70.444 30.2229C70.5684 30.4404 70.7362 30.6113 70.9475 30.7356C71.165 30.8537 71.4135 30.9128 71.6932 30.9128Z" fill="white"/>
<path d="M77.1755 31.778V25.3086H77.7907L80.5314 29.8111H80.1119L82.8526 25.3086H83.4678V31.778H82.5913V26.8467L82.7969 26.9027L80.634 30.4543H80.0187L77.856 26.9027L78.0518 26.8467V31.778H77.1755Z" fill="white"/>
<path d="M86.7289 31.8729C86.325 31.8729 85.9589 31.7734 85.6296 31.5746C85.3003 31.3695 85.0389 31.093 84.8464 30.7449C84.6597 30.3969 84.5663 30.0054 84.5663 29.5704C84.5663 29.1353 84.6597 28.7439 84.8464 28.3958C85.0389 28.0478 85.297 27.7713 85.6197 27.5661C85.949 27.3611 86.3193 27.2585 86.7289 27.2585C87.0647 27.2585 87.3629 27.33 87.6242 27.4729C87.8913 27.6096 88.1059 27.8023 88.2673 28.0509C88.4286 28.2933 88.5187 28.576 88.5376 28.8992V30.2322C88.5187 30.5492 88.4286 30.8319 88.2673 31.0805C88.1116 31.3291 87.9003 31.5248 87.6332 31.6678C87.3727 31.8045 87.0713 31.8729 86.7289 31.8729ZM86.869 31.0805C87.2851 31.0805 87.6209 30.9407 87.8757 30.661C88.1305 30.3751 88.2583 30.0116 88.2583 29.5704C88.2583 29.2658 88.1993 29.0017 88.0805 28.778C87.9691 28.5481 87.8077 28.371 87.5964 28.2467C87.385 28.1161 87.1393 28.0509 86.8599 28.0509C86.5798 28.0509 86.3316 28.1161 86.1137 28.2467C85.9023 28.3772 85.7352 28.5574 85.6107 28.7874C85.4928 29.0111 85.4338 29.2689 85.4338 29.5611C85.4338 29.8594 85.4928 30.1235 85.6107 30.3534C85.7352 30.5771 85.9056 30.7542 86.1235 30.8847C86.3406 31.0152 86.5896 31.0805 86.869 31.0805ZM88.2017 31.7797V30.5865L88.3606 29.5051L88.2017 28.4331V27.3518H89.0504V31.7797H88.2017Z" fill="white"/>
<path d="M92.1451 31.8714C91.7355 31.8714 91.3685 31.772 91.0458 31.5731C90.7222 31.368 90.4641 31.0915 90.2716 30.7434C90.0849 30.3954 89.9923 30.0039 89.9923 29.5689C89.9923 29.1338 90.0849 28.7424 90.2716 28.3943C90.4641 28.0463 90.7222 27.7698 91.0458 27.5647C91.3685 27.3596 91.7355 27.2571 92.1451 27.2571C92.4752 27.2571 92.7734 27.3285 93.0404 27.4714C93.3075 27.6082 93.5221 27.8008 93.6835 28.0494C93.8514 28.2918 93.9448 28.5745 93.9628 28.8977V30.2307C93.9448 30.5477 93.8547 30.8304 93.6925 31.079C93.5311 31.3276 93.3165 31.5233 93.0494 31.6663C92.7824 31.803 92.4809 31.8714 92.1451 31.8714ZM92.2851 31.079C92.5653 31.079 92.807 31.0137 93.0126 30.8832C93.2239 30.7528 93.3886 30.5757 93.5065 30.3519C93.6245 30.122 93.6835 29.861 93.6835 29.5689C93.6835 29.2643 93.6212 29.0002 93.4967 28.7765C93.3787 28.5528 93.2141 28.3757 93.0027 28.2452C92.7979 28.1146 92.5555 28.0494 92.2761 28.0494C91.996 28.0494 91.7511 28.1146 91.5397 28.2452C91.3284 28.3757 91.1604 28.5559 91.0359 28.7859C90.918 29.0096 90.859 29.2674 90.859 29.5596C90.859 29.8579 90.918 30.122 91.0359 30.3519C91.1604 30.5757 91.3284 30.7528 91.5397 30.8832C91.7568 31.0137 92.0058 31.079 92.2851 31.079ZM94.4756 31.7782H93.6278V30.585L93.7859 29.5036L93.6278 28.4317V25.1223H94.4756V31.7782Z" fill="white"/>
<path d="M97.7483 31.8729C97.3068 31.8729 96.9095 31.7734 96.5548 31.5746C96.2009 31.3695 95.9216 31.093 95.716 30.7449C95.5112 30.3969 95.4088 30.0023 95.4088 29.5611C95.4088 29.126 95.5079 28.7345 95.707 28.3865C95.9118 28.0385 96.1854 27.765 96.527 27.5661C96.8751 27.3611 97.2634 27.2585 97.6926 27.2585C98.1022 27.2585 98.4627 27.3518 98.7739 27.5382C99.091 27.7246 99.3359 27.9825 99.5104 28.3119C99.6906 28.6413 99.7807 29.0142 99.7807 29.4306C99.7807 29.4927 99.7774 29.5611 99.7709 29.6356C99.7651 29.704 99.7528 29.7848 99.734 29.878H95.9962V29.1788H99.2867L98.9787 29.4492C98.9787 29.1509 98.9263 28.8992 98.8206 28.6941C98.715 28.4828 98.5659 28.3212 98.3725 28.2093C98.18 28.0913 97.9474 28.0322 97.6738 28.0322C97.3879 28.0322 97.1364 28.0944 96.9185 28.2187C96.7015 28.343 96.5335 28.517 96.4156 28.7407C96.2976 28.9645 96.2378 29.2286 96.2378 29.5331C96.2378 29.8438 96.3001 30.1173 96.4246 30.3534C96.5491 30.5834 96.726 30.7636 96.9562 30.8941C97.1856 31.0183 97.4502 31.0805 97.7483 31.0805C97.9966 31.0805 98.2235 31.037 98.4291 30.95C98.6404 30.863 98.8206 30.7325 98.9697 30.5585L99.5104 31.1085C99.299 31.3571 99.0377 31.5466 98.7272 31.6771C98.4225 31.8076 98.0965 31.8729 97.7483 31.8729Z" fill="white"/>
<path d="M104.582 31.8727C104.073 31.8727 103.638 31.7794 103.278 31.593C102.917 31.4066 102.597 31.1362 102.318 30.782L102.914 30.1854C103.119 30.4712 103.355 30.6888 103.622 30.8379C103.889 30.9808 104.219 31.0524 104.61 31.0524C104.995 31.0524 105.303 30.9684 105.534 30.8006C105.769 30.6329 105.887 30.4029 105.887 30.1108C105.887 29.8684 105.832 29.6727 105.719 29.5235C105.608 29.3744 105.456 29.2532 105.263 29.16C105.076 29.0606 104.872 28.9736 104.648 28.8989C104.424 28.8182 104.2 28.7343 103.976 28.6473C103.753 28.5541 103.548 28.4422 103.361 28.3117C103.175 28.175 103.023 27.9979 102.905 27.7804C102.793 27.5628 102.737 27.2894 102.737 26.9601C102.737 26.5933 102.824 26.2826 102.997 26.0279C103.178 25.7668 103.42 25.568 103.725 25.4313C104.035 25.2883 104.383 25.2168 104.769 25.2168C105.191 25.2168 105.57 25.3008 105.906 25.4685C106.242 25.6301 106.515 25.8445 106.726 26.1117L106.13 26.7083C105.937 26.4846 105.729 26.3168 105.506 26.205C105.288 26.0931 105.036 26.0372 104.75 26.0372C104.402 26.0372 104.125 26.1148 103.921 26.2702C103.716 26.4193 103.613 26.6307 103.613 26.9041C103.613 27.1216 103.669 27.2987 103.781 27.4354C103.898 27.5659 104.051 27.6778 104.238 27.771C104.424 27.8643 104.629 27.9512 104.853 28.032C105.083 28.1066 105.31 28.1905 105.534 28.2837C105.757 28.377 105.962 28.495 106.149 28.638C106.335 28.7809 106.484 28.9673 106.596 29.1973C106.714 29.421 106.773 29.7038 106.773 30.0456C106.773 30.6173 106.574 31.0647 106.177 31.3879C105.785 31.711 105.253 31.8727 104.582 31.8727Z" fill="white"/>
<path d="M107.814 31.7797V27.3518H108.653V31.7797H107.814ZM108.234 26.4662C108.079 26.4662 107.951 26.4165 107.852 26.3171C107.752 26.2115 107.703 26.081 107.703 25.9256C107.703 25.7764 107.752 25.6522 107.852 25.5527C107.951 25.447 108.079 25.3943 108.234 25.3943C108.389 25.3943 108.516 25.447 108.616 25.5527C108.715 25.6522 108.765 25.7764 108.765 25.9256C108.765 26.081 108.715 26.2115 108.616 26.3171C108.516 26.4165 108.389 26.4662 108.234 26.4662Z" fill="white"/>
<path d="M109.89 31.7797V27.3518H110.729V31.7797H109.89ZM112.882 31.7797V29.1043C112.882 28.7749 112.779 28.517 112.574 28.3306C112.375 28.1379 112.124 28.0416 111.819 28.0416C111.614 28.0416 111.431 28.0851 111.269 28.1721C111.108 28.2591 110.977 28.3803 110.878 28.5356C110.779 28.691 110.729 28.8775 110.729 29.0949L110.384 28.9272C110.384 28.5916 110.455 28.2995 110.598 28.0509C110.747 27.8023 110.949 27.6096 111.204 27.4729C111.458 27.33 111.744 27.2585 112.061 27.2585C112.373 27.2585 112.652 27.3269 112.9 27.4637C113.155 27.6004 113.354 27.793 113.497 28.0416C113.646 28.2902 113.721 28.5853 113.721 28.9272V31.7797H112.882ZM115.875 31.7797V29.1043C115.875 28.7749 115.771 28.517 115.567 28.3306C115.368 28.1379 115.119 28.0416 114.821 28.0416C114.616 28.0416 114.43 28.0851 114.262 28.1721C114.1 28.2591 113.969 28.3803 113.87 28.5356C113.77 28.691 113.721 28.8775 113.721 29.0949L113.245 28.9272C113.264 28.5853 113.354 28.2933 113.515 28.0509C113.683 27.8023 113.898 27.6096 114.159 27.4729C114.42 27.33 114.706 27.2585 115.017 27.2585C115.34 27.2585 115.629 27.3269 115.884 27.4637C116.138 27.6004 116.341 27.793 116.49 28.0416C116.645 28.2902 116.722 28.5885 116.722 28.9365V31.7797H115.875Z" fill="white"/>
<path d="M120.195 31.8729C119.859 31.8729 119.554 31.8045 119.281 31.6678C119.014 31.5248 118.8 31.3291 118.638 31.0805C118.476 30.8319 118.386 30.5492 118.367 30.2322V28.8992C118.386 28.576 118.476 28.2933 118.638 28.0509C118.806 27.8023 119.023 27.6096 119.291 27.4729C119.564 27.33 119.866 27.2585 120.195 27.2585C120.599 27.2585 120.962 27.3611 121.285 27.5661C121.615 27.7713 121.873 28.0478 122.059 28.3958C122.245 28.7439 122.339 29.1353 122.339 29.5704C122.339 30.0054 122.245 30.3969 122.059 30.7449C121.873 31.093 121.615 31.3695 121.285 31.5746C120.962 31.7734 120.599 31.8729 120.195 31.8729ZM120.055 31.0805C120.334 31.0805 120.58 31.0152 120.791 30.8847C121.003 30.7542 121.171 30.5771 121.295 30.3534C121.419 30.1235 121.481 29.8594 121.481 29.5611C121.481 29.2689 121.419 29.008 121.295 28.778C121.171 28.5481 121.003 28.371 120.791 28.2467C120.58 28.1161 120.337 28.0509 120.064 28.0509C119.784 28.0509 119.539 28.1161 119.327 28.2467C119.116 28.371 118.951 28.5481 118.833 28.778C118.715 29.008 118.657 29.272 118.657 29.5704C118.657 29.8625 118.712 30.1235 118.824 30.3534C118.942 30.5771 119.107 30.7542 119.318 30.8847C119.536 31.0152 119.781 31.0805 120.055 31.0805ZM117.864 33.6348V27.3518H118.703V28.517L118.544 29.589L118.703 30.6704V33.6348H117.864Z" fill="white"/>
<path d="M123.29 31.7782V25.1223H124.128V31.7782H123.29Z" fill="white"/>
<path d="M127.407 31.8729C126.966 31.8729 126.568 31.7734 126.214 31.5746C125.859 31.3695 125.58 31.093 125.375 30.7449C125.17 30.3969 125.067 30.0023 125.067 29.5611C125.067 29.126 125.166 28.7345 125.365 28.3865C125.571 28.0385 125.844 27.765 126.186 27.5661C126.534 27.3611 126.923 27.2585 127.351 27.2585C127.761 27.2585 128.122 27.3518 128.432 27.5382C128.749 27.7246 128.995 27.9825 129.169 28.3119C129.349 28.6413 129.439 29.0142 129.439 29.4306C129.439 29.4927 129.436 29.5611 129.43 29.6356C129.424 29.704 129.411 29.7848 129.392 29.878H125.655V29.1788H128.945L128.637 29.4492C128.637 29.1509 128.585 28.8992 128.479 28.6941C128.373 28.4828 128.224 28.3212 128.032 28.2093C127.839 28.0913 127.606 28.0322 127.332 28.0322C127.046 28.0322 126.795 28.0944 126.578 28.2187C126.36 28.343 126.192 28.517 126.074 28.7407C125.956 28.9645 125.897 29.2286 125.897 29.5331C125.897 29.8438 125.959 30.1173 126.083 30.3534C126.208 30.5834 126.384 30.7636 126.615 30.8941C126.845 31.0183 127.109 31.0805 127.407 31.0805C127.656 31.0805 127.883 31.037 128.088 30.95C128.299 30.863 128.479 30.7325 128.628 30.5585L129.169 31.1085C128.957 31.3571 128.697 31.5466 128.386 31.6771C128.081 31.8076 127.755 31.8729 127.407 31.8729Z" fill="white"/>
</g>
</g>
</svg>
