<svg width="113" height="36" viewBox="0 0 113 36" fill="none" xmlns="http://www.w3.org/2000/svg">
<path d="M49.5628 34.1541C49.1243 34.1541 48.7313 34.0559 48.3839 33.8596C48.0422 33.6574 47.7717 33.383 47.5723 33.0365C47.373 32.6842 47.2733 32.2856 47.2733 31.8409V28.0548H48.0764V31.8236C48.0764 32.1412 48.1419 32.4156 48.2729 32.6466C48.4038 32.8777 48.5804 33.0567 48.8025 33.1838C49.0303 33.3108 49.2838 33.3744 49.5628 33.3744C49.8533 33.3744 50.1067 33.3108 50.3231 33.1838C50.5453 33.0567 50.719 32.8777 50.8443 32.6466C50.9752 32.4156 51.0407 32.1441 51.0407 31.8322V28.0548H51.8523V31.8496C51.8523 32.2943 51.7526 32.6899 51.5533 33.0365C51.354 33.383 51.0835 33.6574 50.7417 33.8596C50.4 34.0559 50.0071 34.1541 49.5628 34.1541Z" fill="white"/>
<path d="M55.9069 34.0675V31.6676C55.9069 31.3557 55.8101 31.0987 55.6164 30.8965C55.4228 30.6944 55.1722 30.5933 54.8647 30.5933C54.6596 30.5933 54.4774 30.6395 54.3179 30.7319C54.1585 30.8243 54.0332 30.9514 53.942 31.1131C53.8509 31.2749 53.8053 31.4597 53.8053 31.6676L53.4893 31.4857C53.4893 31.1738 53.5576 30.8965 53.6943 30.6539C53.831 30.4114 54.0218 30.2208 54.2667 30.0821C54.5116 29.9377 54.7878 29.8655 55.0953 29.8655C55.4029 29.8655 55.6734 29.9435 55.9069 30.0995C56.1461 30.2554 56.334 30.4605 56.4707 30.7146C56.6074 30.963 56.6757 31.2287 56.6757 31.5117V34.0675H55.9069ZM53.0365 34.0675V29.9522H53.8053V34.0675H53.0365Z" fill="white"/>
<path d="M57.7252 34.0675V29.9522H58.4941V34.0675H57.7252ZM58.1097 29.1291C57.9673 29.1291 57.8505 29.0829 57.7594 28.9905C57.6683 28.8923 57.6227 28.771 57.6227 28.6266C57.6227 28.488 57.6683 28.3725 57.7594 28.2801C57.8505 28.1819 57.9673 28.1328 58.1097 28.1328C58.2521 28.1328 58.3688 28.1819 58.4599 28.2801C58.5511 28.3725 58.5966 28.488 58.5966 28.6266C58.5966 28.771 58.5511 28.8923 58.4599 28.9905C58.3688 29.0829 58.2521 29.1291 58.1097 29.1291Z" fill="white"/>
<path d="M61.0196 34.0675L59.1573 29.9522H60.0116L61.5066 33.4264H61.0111L62.5146 29.9522H63.3348L61.4724 34.0675H61.0196Z" fill="white"/>
<path d="M65.7113 34.1541C65.3069 34.1541 64.9424 34.0617 64.6178 33.8769C64.2932 33.6863 64.0369 33.4293 63.8489 33.1058C63.661 32.7824 63.567 32.4156 63.567 32.0055C63.567 31.6012 63.6581 31.2373 63.8404 30.9139C64.0283 30.5904 64.2789 30.3363 64.5922 30.1514C64.9111 29.9608 65.267 29.8655 65.66 29.8655C66.0359 29.8655 66.3662 29.9522 66.651 30.1255C66.9414 30.2987 67.1664 30.5384 67.3259 30.8446C67.491 31.1507 67.5736 31.4972 67.5736 31.8842C67.5736 31.942 67.5708 32.0055 67.5651 32.0748C67.5594 32.1383 67.548 32.2134 67.5309 32.3001H64.1052V31.6503H67.1208L66.8389 31.9015C66.8389 31.6243 66.7905 31.3904 66.6937 31.1998C66.5969 31.0034 66.4602 30.8532 66.2836 30.7493C66.1071 30.6395 65.8935 30.5846 65.6429 30.5846C65.3809 30.5846 65.1503 30.6424 64.951 30.7579C64.7516 30.8734 64.5979 31.0352 64.4896 31.2431C64.3814 31.451 64.3273 31.6965 64.3273 31.9795C64.3273 32.2683 64.3843 32.5224 64.4982 32.7419C64.6121 32.9556 64.7744 33.1231 64.9851 33.2444C65.1959 33.3599 65.4379 33.4177 65.7113 33.4177C65.9391 33.4177 66.147 33.3773 66.3349 33.2964C66.5285 33.2155 66.6937 33.0943 66.8304 32.9325L67.3259 33.4437C67.1322 33.6747 66.893 33.8509 66.6083 33.9722C66.3292 34.0935 66.0302 34.1541 65.7113 34.1541Z" fill="white"/>
<path d="M68.4119 34.0675V29.9522H69.1808V34.0675H68.4119ZM69.1808 31.7196L68.8903 31.5896C68.8903 31.064 69.0099 30.6453 69.2491 30.3334C69.4883 30.0215 69.8329 29.8655 70.2828 29.8655C70.4879 29.8655 70.673 29.9031 70.8381 29.9782C71.0033 30.0475 71.157 30.1659 71.2994 30.3334L70.7954 30.8619C70.71 30.7695 70.616 30.703 70.5135 30.6626C70.411 30.6222 70.2914 30.602 70.1547 30.602C69.8699 30.602 69.6364 30.6944 69.4542 30.8792C69.2719 31.064 69.1808 31.3442 69.1808 31.7196Z" fill="white"/>
<path d="M73.039 34.1541C72.8111 34.1541 72.5947 34.1252 72.3897 34.0675C72.1904 34.004 72.0053 33.9173 71.8344 33.8076C71.6636 33.6921 71.5155 33.5563 71.3902 33.4004L71.8857 32.8979C72.0338 33.0827 72.2046 33.2213 72.3983 33.3137C72.5919 33.4004 72.8083 33.4437 73.0475 33.4437C73.2867 33.4437 73.4718 33.4033 73.6028 33.3224C73.7338 33.2358 73.7993 33.1174 73.7993 32.9672C73.7993 32.817 73.7452 32.7015 73.637 32.6206C73.5344 32.534 73.4006 32.4647 73.2355 32.4127C73.0703 32.3549 72.8937 32.3001 72.7058 32.2481C72.5235 32.1903 72.3498 32.1181 72.1847 32.0315C72.0195 31.9449 71.8828 31.8265 71.7746 31.6763C71.6721 31.5261 71.6208 31.3268 71.6208 31.0785C71.6208 30.8301 71.6807 30.6164 71.8003 30.4374C71.9199 30.2525 72.085 30.111 72.2957 30.0128C72.5122 29.9146 72.7713 29.8655 73.0731 29.8655C73.3921 29.8655 73.674 29.9233 73.9189 30.0388C74.1695 30.1486 74.3745 30.3161 74.534 30.5413L74.0385 31.0438C73.9246 30.8936 73.7822 30.7781 73.6113 30.6973C73.4462 30.6164 73.2582 30.576 73.0475 30.576C72.8254 30.576 72.6545 30.6164 72.5349 30.6973C72.421 30.7724 72.3641 30.8792 72.3641 31.0178C72.3641 31.1565 72.4153 31.2633 72.5179 31.3384C72.6204 31.4135 72.7542 31.477 72.9194 31.529C73.0902 31.581 73.2668 31.6358 73.449 31.6936C73.6313 31.7456 73.805 31.8178 73.9701 31.9102C74.1353 32.0026 74.2691 32.1268 74.3716 32.2827C74.4799 32.4387 74.534 32.6437 74.534 32.8979C74.534 33.2849 74.3973 33.591 74.1239 33.8162C73.8562 34.0415 73.4946 34.1541 73.039 34.1541Z" fill="white"/>
<path d="M75.4033 34.0675V29.9522H76.1721V34.0675H75.4033ZM75.7877 29.1291C75.6453 29.1291 75.5286 29.0829 75.4374 28.9905C75.3463 28.8923 75.3008 28.771 75.3008 28.6266C75.3008 28.488 75.3463 28.3725 75.4374 28.2801C75.5286 28.1819 75.6453 28.1328 75.7877 28.1328C75.9301 28.1328 76.0468 28.1819 76.1379 28.2801C76.2291 28.3725 76.2746 28.488 76.2746 28.6266C76.2746 28.771 76.2291 28.8923 76.1379 28.9905C76.0468 29.0829 75.9301 29.1291 75.7877 29.1291Z" fill="white"/>
<path d="M77.9288 34.0675V28.2281H78.6977V34.0675H77.9288ZM76.9293 30.6626V29.9522H79.6972V30.6626H76.9293Z" fill="white"/>
<path d="M81.783 34.1021L80.0232 29.9522H80.8775L82.1845 33.2011H81.9112L83.2866 29.9522H84.1409L82.2443 34.1021H81.783ZM80.6212 35.7916L81.8172 33.3051L82.2443 34.1021L81.4755 35.7916H80.6212Z" fill="white"/>
<path d="M87.1965 34.0675V29.3371C87.1965 29.0309 87.262 28.7652 87.3929 28.54C87.5239 28.3089 87.7033 28.127 87.9311 27.9942C88.1646 27.8613 88.4352 27.7949 88.7427 27.7949C88.9762 27.7949 89.1784 27.8353 89.3493 27.9162C89.5201 27.997 89.6767 28.1155 89.8191 28.2714L89.3151 28.7739C89.241 28.693 89.1585 28.6324 89.0673 28.592C88.9762 28.5458 88.8652 28.5227 88.7342 28.5227C88.4893 28.5227 88.2985 28.5949 88.1618 28.7392C88.0308 28.8836 87.9653 29.0829 87.9653 29.3371V34.0675H87.1965ZM86.1969 30.6626V29.9522H89.2553V30.6626H86.1969Z" fill="white"/>
<path d="M91.6479 34.1541C91.2492 34.1541 90.8904 34.0588 90.5715 33.8682C90.2526 33.6776 89.9991 33.4206 89.8112 33.0971C89.6232 32.7679 89.5293 32.4011 89.5293 31.9968C89.5293 31.5983 89.6232 31.2402 89.8112 30.9225C89.9991 30.5991 90.2526 30.3421 90.5715 30.1514C90.8904 29.9608 91.2492 29.8655 91.6479 29.8655C92.0409 29.8655 92.3968 29.9608 92.7157 30.1514C93.0404 30.3363 93.2967 30.5904 93.4846 30.9139C93.6725 31.2373 93.7665 31.5983 93.7665 31.9968C93.7665 32.4011 93.6725 32.7679 93.4846 33.0971C93.2967 33.4206 93.0404 33.6776 92.7157 33.8682C92.3968 34.0588 92.0409 34.1541 91.6479 34.1541ZM91.6479 33.4004C91.9042 33.4004 92.132 33.3397 92.3313 33.2184C92.5306 33.0971 92.6873 32.9325 92.8012 32.7246C92.9151 32.5109 92.972 32.2683 92.972 31.9968C92.972 31.7311 92.9122 31.4943 92.7926 31.2864C92.6787 31.0785 92.5221 30.9168 92.3228 30.8012C92.1291 30.6799 91.9042 30.6193 91.6479 30.6193C91.3916 30.6193 91.1638 30.6799 90.9645 30.8012C90.7651 30.9168 90.6085 31.0785 90.4946 31.2864C90.3807 31.4943 90.3237 31.7311 90.3237 31.9968C90.3237 32.2683 90.3807 32.5109 90.4946 32.7246C90.6085 32.9325 90.7651 33.0971 90.9645 33.2184C91.1638 33.3397 91.3916 33.4004 91.6479 33.4004Z" fill="white"/>
<path d="M94.6328 34.0675V29.9522H95.4017V34.0675H94.6328ZM95.4017 31.7196L95.1112 31.5896C95.1112 31.064 95.2308 30.6453 95.47 30.3334C95.7092 30.0215 96.0538 29.8655 96.5037 29.8655C96.7087 29.8655 96.8938 29.9031 97.059 29.9782C97.2241 30.0475 97.3779 30.1659 97.5203 30.3334L97.0163 30.8619C96.9308 30.7695 96.8369 30.703 96.7344 30.6626C96.6318 30.6222 96.5122 30.602 96.3755 30.602C96.0908 30.602 95.8573 30.6944 95.675 30.8792C95.4928 31.064 95.4017 31.3442 95.4017 31.7196Z" fill="white"/>
<path d="M101.321 34.1021L99.5616 29.9522H100.416L101.723 33.2011H101.45L102.825 29.9522H103.679L101.783 34.1021H101.321ZM100.16 35.7916L101.356 33.3051L101.783 34.1021L101.014 35.7916H100.16Z" fill="white"/>
<path d="M106.006 34.1541C105.607 34.1541 105.248 34.0588 104.929 33.8682C104.61 33.6776 104.357 33.4206 104.169 33.0971C103.981 32.7679 103.887 32.4011 103.887 31.9968C103.887 31.5983 103.981 31.2402 104.169 30.9225C104.357 30.5991 104.61 30.3421 104.929 30.1514C105.248 29.9608 105.607 29.8655 106.006 29.8655C106.399 29.8655 106.754 29.9608 107.073 30.1514C107.398 30.3363 107.654 30.5904 107.842 30.9139C108.03 31.2373 108.124 31.5983 108.124 31.9968C108.124 32.4011 108.03 32.7679 107.842 33.0971C107.654 33.4206 107.398 33.6776 107.073 33.8682C106.754 34.0588 106.399 34.1541 106.006 34.1541ZM106.006 33.4004C106.262 33.4004 106.49 33.3397 106.689 33.2184C106.888 33.0971 107.045 32.9325 107.159 32.7246C107.273 32.5109 107.33 32.2683 107.33 31.9968C107.33 31.7311 107.27 31.4943 107.15 31.2864C107.036 31.0785 106.88 30.9168 106.68 30.8012C106.487 30.6799 106.262 30.6193 106.006 30.6193C105.749 30.6193 105.521 30.6799 105.322 30.8012C105.123 30.9168 104.966 31.0785 104.852 31.2864C104.738 31.4943 104.681 31.7311 104.681 31.9968C104.681 32.2683 104.738 32.5109 104.852 32.7246C104.966 32.9325 105.123 33.0971 105.322 33.2184C105.521 33.3397 105.749 33.4004 106.006 33.4004Z" fill="white"/>
<path d="M110.622 34.1541C110.292 34.1541 109.993 34.079 109.725 33.9289C109.463 33.7729 109.258 33.5592 109.11 33.2877C108.962 33.0163 108.888 32.7015 108.888 32.3434V29.9522H109.657V32.3087C109.657 32.534 109.694 32.7304 109.768 32.8979C109.848 33.0596 109.961 33.1838 110.11 33.2704C110.258 33.3571 110.431 33.4004 110.631 33.4004C110.933 33.4004 111.169 33.3051 111.34 33.1145C111.511 32.9181 111.596 32.6495 111.596 32.3087V29.9522H112.365V32.3434C112.365 32.7015 112.291 33.0163 112.143 33.2877C111.995 33.5592 111.79 33.7729 111.528 33.9289C111.271 34.079 110.97 34.1541 110.622 34.1541Z" fill="white"/>
<path d="M109.004 23.4979L101.79 12.8264H101.228L92.1612 0.208464H95.8672L103.015 10.2424H103.577L112.644 23.4979H109.004ZM91.7641 23.4979L100.665 11.1149L102.783 12.9942L95.2716 23.4979H91.7641ZM103.776 12.2559L101.691 10.3766L108.772 0.208464H112.28L103.776 12.2559Z" fill="white"/>
<path d="M86.5913 23.4981V7.55792H89.5694V23.4981H86.5913Z" fill="white"/>
<path d="M85.7322 0.208252C87.0508 1.54555 87.0508 3.71375 85.7322 5.05105C87.0508 3.71375 89.1887 3.71375 90.5074 5.05105C89.1887 3.71375 89.1887 1.54555 90.5074 0.208252C89.1887 1.54555 87.0508 1.54555 85.7322 0.208252Z" fill="white"/>
<path d="M79.5478 23.4983V14.2026C79.5478 12.9945 79.1728 11.999 78.4228 11.2159C77.6727 10.4329 76.7021 10.0414 75.5109 10.0414C74.7167 10.0414 74.0108 10.2204 73.3931 10.5783C72.7755 10.9363 72.2901 11.4285 71.9372 12.0549C71.5842 12.6813 71.4077 13.3972 71.4077 14.2026L70.1834 13.4979C70.1834 12.2898 70.4481 11.2159 70.9776 10.2763C71.507 9.33668 72.246 8.5984 73.1946 8.06147C74.1432 7.50216 75.2131 7.22251 76.4043 7.22251C77.5955 7.22251 78.6434 7.52453 79.5478 8.12858C80.4743 8.73263 81.2023 9.52685 81.7318 10.5112C82.2612 11.4732 82.5259 12.5024 82.5259 13.5986V23.4983H79.5478ZM68.4297 23.4983V7.55809H71.4077V23.4983H68.4297Z" fill="white"/>
<path d="M55.9775 23.8334C54.2789 23.8334 52.7568 23.4531 51.4111 22.6925C50.0875 21.9094 49.0397 20.8468 48.2676 19.5044C47.4955 18.1397 47.1094 16.596 47.1094 14.8734V0.20839H50.2199V14.8063C50.2199 16.0367 50.4736 17.0994 50.9809 17.9943C51.4883 18.8892 52.1722 19.5827 53.0325 20.0749C53.9149 20.5671 54.8966 20.8132 55.9775 20.8132C57.1026 20.8132 58.0842 20.5671 58.9225 20.0749C59.7828 19.5827 60.4557 18.8892 60.941 17.9943C61.4484 17.0994 61.702 16.0479 61.702 14.8398V0.20839H64.8456V14.9069C64.8456 16.6296 64.4595 18.1621 63.6874 19.5044C62.9153 20.8468 61.8675 21.9094 60.5439 22.6925C59.2203 23.4531 57.6982 23.8334 55.9775 23.8334Z" fill="white"/>
<path d="M20.5655 33.0034C19.3955 33.2727 18.1779 33.4148 16.9275 33.4148C10.1441 33.4148 4.32424 29.2308 1.84034 23.2686H11.4704C16.4935 23.2686 20.5655 27.3982 20.5655 32.4925V33.0034Z" fill="white"/>
<path d="M32.6593 21.4234H31.4801C26.457 21.4234 22.385 17.2937 22.385 12.1995V0.208425H33.2991V16.8114C33.2991 18.4117 33.0759 19.9592 32.6593 21.4234Z" fill="white"/>
<path d="M32.015 23.2686C30.2318 27.549 26.7292 30.9129 22.385 32.4701C22.3969 27.3862 26.4643 23.2686 31.4801 23.2686H32.015Z" fill="white"/>
<path d="M20.5655 0.20842H0.556274V16.8114C0.556274 18.4117 0.779519 19.9591 1.19615 21.4234H11.4704C16.4935 21.4234 20.5655 17.2937 20.5655 12.1995V0.20842Z" fill="white"/>
</svg>
