<svg width="40" height="40" viewBox="0 0 40 40" fill="none" xmlns="http://www.w3.org/2000/svg">
<path d="M9.99996 21.8767C10.002 22.0414 9.97102 22.2049 9.90891 22.3574C9.84681 22.51 9.75481 22.6486 9.63833 22.7651C9.52185 22.8816 9.38325 22.9736 9.23069 23.0357C9.07812 23.0978 8.91467 23.1287 8.74996 23.1267H1.87496C1.64267 23.1247 1.41529 23.0596 1.21713 22.9384C1.01897 22.8171 0.857496 22.6443 0.749962 22.4384C0.650282 22.2289 0.609266 21.9963 0.631277 21.7653C0.653288 21.5343 0.737503 21.3136 0.874962 21.1267C1.98116 19.6413 3.45746 18.4719 5.15663 17.735C4.42638 17.0669 3.86525 16.2349 3.51943 15.3075C3.17361 14.3801 3.053 13.3839 3.16751 12.4007C3.28202 11.4176 3.62838 10.4757 4.17809 9.65266C4.7278 8.82957 5.46513 8.14881 6.32939 7.66641C7.19365 7.18401 8.16012 6.91377 9.14924 6.87793C10.1384 6.84209 11.1219 7.04168 12.0188 7.46028C12.9157 7.87887 13.7003 8.50449 14.3082 9.28563C14.916 10.0668 15.3296 10.9811 15.515 11.9534C15.5613 12.2067 15.5293 12.468 15.4233 12.7027C15.3173 12.9373 15.1423 13.134 14.9216 13.2667C12.9008 14.4652 11.3639 16.3341 10.5783 18.5484C10.1908 19.6151 9.99501 20.7419 9.99996 21.8767ZM39.125 21.1267C38.0188 19.6413 36.5425 18.4719 34.8433 17.735C35.5746 17.067 36.1367 16.2349 36.4833 15.307C36.8299 14.3792 36.9511 13.3823 36.8369 12.3984C36.7227 11.4146 36.3764 10.4719 35.8265 9.64816C35.2766 8.82439 34.5388 8.14308 33.6739 7.66034C32.8091 7.17761 31.8419 6.90727 30.8521 6.87161C29.8622 6.83594 28.8781 7.03597 27.9808 7.45521C27.0834 7.87446 26.2985 8.50091 25.6907 9.28297C25.0829 10.065 24.6697 10.9803 24.485 11.9534C24.4387 12.2067 24.4706 12.468 24.5766 12.7027C24.6827 12.9373 24.8576 13.134 25.0783 13.2667C27.1017 14.4622 28.6395 16.3321 29.4216 18.5484C29.81 19.615 30.005 20.7417 30 21.8767C29.9979 22.0414 30.0289 22.2049 30.091 22.3574C30.1531 22.51 30.2451 22.6486 30.3616 22.7651C30.4781 22.8816 30.6167 22.9736 30.7692 23.0357C30.9218 23.0978 31.0853 23.1287 31.25 23.1267H38.125C38.3571 23.1267 38.5847 23.0621 38.7821 22.94C38.9796 22.818 39.1392 22.6434 39.243 22.4357C39.3468 22.2281 39.3908 21.9957 39.3699 21.7645C39.3491 21.5333 39.2642 21.3124 39.125 21.1267ZM24.5616 27.8284C25.8059 26.875 26.7201 25.5557 27.1759 24.0559C27.6317 22.5561 27.6061 20.9512 27.1028 19.4667C26.5994 17.9823 25.6436 16.6928 24.3696 15.7795C23.0956 14.8663 21.5675 14.3751 20 14.3751C18.4325 14.3751 16.9043 14.8663 15.6303 15.7795C14.3564 16.6928 13.4005 17.9823 12.8972 19.4667C12.3938 20.9512 12.3682 22.5561 12.824 24.0559C13.2798 25.5557 14.1941 26.875 15.4383 27.8284C13.0076 28.9073 11.0369 30.8113 9.87496 33.2034C9.78248 33.3935 9.74108 33.6044 9.75481 33.8154C9.76855 34.0264 9.83695 34.2302 9.9533 34.4067C10.0613 34.5881 10.2145 34.7382 10.398 34.8425C10.5815 34.9468 10.7889 35.0017 11 35.0017H29C29.211 35.0015 29.4184 34.9466 29.6018 34.8423C29.7853 34.738 29.9385 34.5879 30.0466 34.4067C30.163 34.2302 30.2314 34.0264 30.2451 33.8154C30.2588 33.6044 30.2174 33.3935 30.125 33.2034C28.9634 30.8116 26.9917 28.9076 24.5616 27.8284Z" fill="white"/>
</svg>
